M48
; DRILL file {KiCad 6.0.2+dfsg-1} date qua 03 ago 2022 16:05:03
; FORMAT={-:-/ absolute / metric / decimal}
; #@! TF.CreationDate,2022-08-03T16:05:03-03:00
; #@! TF.GenerationSoftware,Kicad,Pcbnew,6.0.2+dfsg-1
; #@! TF.FileFunction,Plated,1,2,PTH
FMAT,2
METRIC
; #@! TA.AperFunction,Plated,PTH,ViaDrill
T1C0.400
; #@! TA.AperFunction,Plated,PTH,ComponentDrill
T2C0.650
; #@! TA.AperFunction,Plated,PTH,ComponentDrill
T3C0.700
; #@! TA.AperFunction,Plated,PTH,ComponentDrill
T4C0.800
; #@! TA.AperFunction,Plated,PTH,ComponentDrill
T5C1.000
; #@! TA.AperFunction,Plated,PTH,ComponentDrill
T6C1.050
; #@! TA.AperFunction,Plated,PTH,ComponentDrill
T7C1.500
; #@! TA.AperFunction,Plated,PTH,ComponentDrill
T8C3.041
%
G90
G05
T1
X9.113Y64.118
X10.613Y55.368
X12.613Y50.118
X12.613Y46.368
X15.863Y59.618
X16.113Y60.868
X16.363Y63.368
X43.363Y72.868
X45.237Y72.994
X80.363Y71.118
T2
X3.061Y14.933
X3.061Y12.433
X14.798Y3.316
X17.298Y3.316
T3
X47.309Y76.568
X49.809Y76.568
X52.309Y76.568
X54.809Y76.568
T4
X48.672Y29.822
X48.895Y9.652
X56.292Y29.822
X56.515Y9.652
X68.707Y29.718
X68.707Y9.652
X68.961Y49.53
X76.327Y29.718
X76.327Y9.652
X76.581Y49.53
X88.773Y49.53
X88.773Y29.718
X88.773Y9.652
X96.393Y49.53
X96.393Y29.718
X96.393Y9.652
X108.839Y29.798
X108.839Y9.652
X116.459Y29.798
X116.459Y9.652
T5
X0.943Y27.808
X0.943Y21.608
T6
X49.483Y66.936
X51.983Y66.936
X54.483Y66.936
X116.047Y66.936
X118.547Y66.936
X121.047Y66.936
T7
X22.193Y47.038
X22.193Y38.038
X33.147Y13.462
X39.497Y16.002
X53.147Y33.462
X53.147Y13.462
X59.497Y36.002
X59.497Y16.002
X73.147Y53.462
X73.147Y33.462
X73.147Y13.462
X79.497Y56.002
X79.497Y36.002
X79.497Y16.002
X93.147Y53.462
X93.147Y33.462
X93.147Y13.462
X99.497Y56.002
X99.497Y36.002
X99.497Y16.002
X113.147Y33.462
X113.147Y13.462
X119.497Y36.002
X119.497Y16.002
T8
X46.433Y59.436
X57.533Y59.436
X112.997Y59.436
X124.097Y59.436
T0
M30
