%TF.GenerationSoftware,KiCad,Pcbnew,6.0.2+dfsg-1*%
%TF.CreationDate,2022-08-03T16:04:54-03:00*%
%TF.ProjectId,Nano-keyboard,4e616e6f-2d6b-4657-9962-6f6172642e6b,rev?*%
%TF.SameCoordinates,Original*%
%TF.FileFunction,Copper,L2,Bot*%
%TF.FilePolarity,Positive*%
%FSLAX46Y46*%
G04 Gerber Fmt 4.6, Leading zero omitted, Abs format (unit mm)*
G04 Created by KiCad (PCBNEW 6.0.2+dfsg-1) date 2022-08-03 16:04:54*
%MOMM*%
%LPD*%
G01*
G04 APERTURE LIST*
%TA.AperFunction,ComponentPad*%
%ADD10R,1.600000X1.600000*%
%TD*%
%TA.AperFunction,ComponentPad*%
%ADD11O,1.600000X1.600000*%
%TD*%
%TA.AperFunction,ComponentPad*%
%ADD12C,2.200000*%
%TD*%
%TA.AperFunction,ComponentPad*%
%ADD13R,1.100000X1.100000*%
%TD*%
%TA.AperFunction,ComponentPad*%
%ADD14C,1.100000*%
%TD*%
%TA.AperFunction,ComponentPad*%
%ADD15C,1.575000*%
%TD*%
%TA.AperFunction,ComponentPad*%
%ADD16C,4.562000*%
%TD*%
%TA.AperFunction,ComponentPad*%
%ADD17C,1.000000*%
%TD*%
%TA.AperFunction,ComponentPad*%
%ADD18R,2.000000X4.000000*%
%TD*%
%TA.AperFunction,ComponentPad*%
%ADD19R,1.200000X2.000000*%
%TD*%
%TA.AperFunction,ViaPad*%
%ADD20C,0.600000*%
%TD*%
%TA.AperFunction,Conductor*%
%ADD21C,0.508000*%
%TD*%
%TA.AperFunction,Conductor*%
%ADD22C,0.889000*%
%TD*%
G04 APERTURE END LIST*
D10*
%TO.P,D8,1,K*%
%TO.N,ROW2*%
X108839000Y29798371D03*
D11*
%TO.P,D8,2,A*%
%TO.N,Net-(B8-Pad1)*%
X116459000Y29798371D03*
%TD*%
D12*
%TO.P,B3,1*%
%TO.N,Net-(B3-Pad1)*%
X93147000Y13462000D03*
%TO.P,B3,2*%
%TO.N,COL3*%
X99497000Y16002000D03*
%TD*%
%TO.P,B2,1*%
%TO.N,Net-(B2-Pad1)*%
X73147000Y13462000D03*
%TO.P,B2,2*%
%TO.N,COL2*%
X79497000Y16002000D03*
%TD*%
D10*
%TO.P,D7,1,K*%
%TO.N,ROW2*%
X88773000Y29718000D03*
D11*
%TO.P,D7,2,A*%
%TO.N,Net-(B7-Pad1)*%
X96393000Y29718000D03*
%TD*%
D12*
%TO.P,B9,1*%
%TO.N,Net-(B9-Pad1)*%
X73147000Y53462000D03*
%TO.P,B9,2*%
%TO.N,COL1*%
X79497000Y56002000D03*
%TD*%
%TO.P,B8,1*%
%TO.N,Net-(B8-Pad1)*%
X113147000Y33462000D03*
%TO.P,B8,2*%
%TO.N,COL4*%
X119497000Y36002000D03*
%TD*%
D13*
%TO.P,J1,1,1*%
%TO.N,GND*%
X54809000Y76568000D03*
D14*
%TO.P,J1,2,2*%
%TO.N,unconnected-(J1-Pad2)*%
X52309000Y76568000D03*
%TO.P,J1,3,3*%
%TO.N,/RX0*%
X49809000Y76568000D03*
%TO.P,J1,4,4*%
%TO.N,/TX0*%
X47309000Y76568000D03*
%TD*%
D10*
%TO.P,D1,1,K*%
%TO.N,ROW1*%
X48895000Y9652000D03*
D11*
%TO.P,D1,2,A*%
%TO.N,Net-(B1-Pad1)*%
X56515000Y9652000D03*
%TD*%
D12*
%TO.P,B7,1*%
%TO.N,Net-(B7-Pad1)*%
X93147000Y33462000D03*
%TO.P,B7,2*%
%TO.N,COL3*%
X99497000Y36002000D03*
%TD*%
%TO.P,B4,1*%
%TO.N,Net-(B4-Pad1)*%
X113147000Y13462000D03*
%TO.P,B4,2*%
%TO.N,COL4*%
X119497000Y16002000D03*
%TD*%
D15*
%TO.P,U5,A1,A1*%
%TO.N,/ENCODER2_A*%
X54483000Y66936000D03*
%TO.P,U5,B1,B1*%
%TO.N,/ENCODER2_B*%
X49483000Y66936000D03*
%TO.P,U5,C1,C1*%
%TO.N,GND*%
X51983000Y66936000D03*
D16*
%TO.P,U5,MH1,MH1*%
X57533000Y59436000D03*
%TO.P,U5,MH2,MH2*%
X46433000Y59436000D03*
%TD*%
D10*
%TO.P,D10,1,K*%
%TO.N,ROW3*%
X88773000Y49530000D03*
D11*
%TO.P,D10,2,A*%
%TO.N,Net-(B10-Pad1)*%
X96393000Y49530000D03*
%TD*%
D10*
%TO.P,D4,1,K*%
%TO.N,ROW1*%
X108839000Y9652000D03*
D11*
%TO.P,D4,2,A*%
%TO.N,Net-(B4-Pad1)*%
X116459000Y9652000D03*
%TD*%
D10*
%TO.P,D3,1,K*%
%TO.N,ROW1*%
X88773000Y9652000D03*
D11*
%TO.P,D3,2,A*%
%TO.N,Net-(B3-Pad1)*%
X96393000Y9652000D03*
%TD*%
D12*
%TO.P,B5,1*%
%TO.N,Net-(B5-Pad1)*%
X53147000Y33462000D03*
%TO.P,B5,2*%
%TO.N,COL1*%
X59497000Y36002000D03*
%TD*%
D10*
%TO.P,D9,1,K*%
%TO.N,ROW3*%
X68961000Y49530000D03*
D11*
%TO.P,D9,2,A*%
%TO.N,Net-(B9-Pad1)*%
X76581000Y49530000D03*
%TD*%
D10*
%TO.P,D5,1,K*%
%TO.N,ROW2*%
X48671686Y29822000D03*
D11*
%TO.P,D5,2,A*%
%TO.N,Net-(B5-Pad1)*%
X56291686Y29822000D03*
%TD*%
D17*
%TO.P,J3,1,1*%
%TO.N,+3V3*%
X3061000Y12433000D03*
%TO.P,J3,2,2*%
%TO.N,/MASTER_SWITCH*%
X3061000Y14933000D03*
%TD*%
D12*
%TO.P,B0,1*%
%TO.N,+3V3*%
X33147000Y13462000D03*
%TO.P,B0,2*%
%TO.N,/FUNC*%
X39497000Y16002000D03*
%TD*%
%TO.P,B10,1*%
%TO.N,Net-(B10-Pad1)*%
X93147000Y53462000D03*
%TO.P,B10,2*%
%TO.N,COL2*%
X99497000Y56002000D03*
%TD*%
D15*
%TO.P,U6,A1,A1*%
%TO.N,/ENCODER1_A*%
X121047000Y66936000D03*
%TO.P,U6,B1,B1*%
%TO.N,/ENCODER1_B*%
X116047000Y66936000D03*
%TO.P,U6,C1,C1*%
%TO.N,GND*%
X118547000Y66936000D03*
D16*
%TO.P,U6,MH1,MH1*%
X124097000Y59436000D03*
%TO.P,U6,MH2,MH2*%
X112997000Y59436000D03*
%TD*%
D12*
%TO.P,B1,1*%
%TO.N,Net-(B1-Pad1)*%
X53147000Y13462000D03*
%TO.P,B1,2*%
%TO.N,COL1*%
X59497000Y16002000D03*
%TD*%
D17*
%TO.P,J2,1,1*%
%TO.N,Net-(J2-Pad1)*%
X17298000Y3316000D03*
%TO.P,J2,2,2*%
%TO.N,Net-(J2-Pad2)*%
X14798000Y3316000D03*
%TD*%
D10*
%TO.P,D6,1,K*%
%TO.N,ROW2*%
X68707000Y29718000D03*
D11*
%TO.P,D6,2,A*%
%TO.N,Net-(B6-Pad1)*%
X76327000Y29718000D03*
%TD*%
D12*
%TO.P,B6,1*%
%TO.N,Net-(B6-Pad1)*%
X73147000Y33462000D03*
%TO.P,B6,2*%
%TO.N,COL2*%
X79497000Y36002000D03*
%TD*%
D10*
%TO.P,D2,1,K*%
%TO.N,ROW1*%
X68707000Y9652000D03*
D11*
%TO.P,D2,2,A*%
%TO.N,Net-(B2-Pad1)*%
X76327000Y9652000D03*
%TD*%
D18*
%TO.P,U3,1,BAT+*%
%TO.N,Net-(J2-Pad1)*%
X22193000Y38038000D03*
%TO.P,U3,2,BAT-*%
%TO.N,Net-(J2-Pad2)*%
X22193000Y47038000D03*
D19*
%TO.P,U3,3,VOUT+*%
%TO.N,Net-(C2-Pad1)*%
X943000Y21608000D03*
%TO.P,U3,4,VOUT-*%
%TO.N,GND*%
X943000Y27808000D03*
%TD*%
D20*
%TO.N,GND*%
X10613000Y55368000D03*
X12613000Y46368000D03*
X12613000Y50118000D03*
%TO.N,+3V3*%
X80363000Y71118000D03*
X9113000Y64118000D03*
%TO.N,ROW1*%
X15863000Y59618000D03*
%TO.N,ROW2*%
X16113000Y60868000D03*
%TO.N,ROW3*%
X16363000Y63368000D03*
%TO.N,/ENCODER1_A*%
X43363000Y72868000D03*
%TO.N,/ENCODER1_B*%
X45237406Y72993594D03*
%TD*%
D21*
%TO.N,GND*%
X10613000Y55368000D02*
X12613000Y53368000D01*
X12613000Y53368000D02*
X12613000Y50118000D01*
X12613000Y46368000D02*
X12613000Y50118000D01*
D22*
%TO.N,+3V3*%
X3061000Y12433000D02*
X5799654Y15171654D01*
X5799654Y15171654D02*
X5799654Y60804654D01*
X9113000Y64118000D02*
X14863000Y64118000D01*
X15613000Y64868000D02*
X41863000Y64868000D01*
X32118000Y12433000D02*
X33147000Y13462000D01*
X14863000Y64118000D02*
X15613000Y64868000D01*
X5799654Y60804654D02*
X9113000Y64118000D01*
X48113000Y71118000D02*
X80363000Y71118000D01*
X41863000Y64868000D02*
X48113000Y71118000D01*
X3061000Y12433000D02*
X32118000Y12433000D01*
D21*
%TO.N,Net-(B1-Pad1)*%
X53147000Y13462000D02*
X56515000Y10094000D01*
X56515000Y10094000D02*
X56515000Y9652000D01*
%TO.N,Net-(B2-Pad1)*%
X73147000Y13462000D02*
X76327000Y10282000D01*
X76327000Y10282000D02*
X76327000Y9652000D01*
%TO.N,Net-(B3-Pad1)*%
X93147000Y13462000D02*
X96393000Y10216000D01*
X96393000Y10216000D02*
X96393000Y9652000D01*
%TO.N,Net-(B4-Pad1)*%
X113147000Y13462000D02*
X116459000Y10150000D01*
X116459000Y10150000D02*
X116459000Y9652000D01*
%TO.N,Net-(B5-Pad1)*%
X53147000Y32966686D02*
X56291686Y29822000D01*
X53147000Y33462000D02*
X53147000Y32966686D01*
%TO.N,Net-(B6-Pad1)*%
X73147000Y33462000D02*
X73147000Y32898000D01*
X73147000Y32898000D02*
X76327000Y29718000D01*
%TO.N,Net-(B7-Pad1)*%
X96393000Y30216000D02*
X96393000Y29718000D01*
X93147000Y33462000D02*
X96393000Y30216000D01*
%TO.N,Net-(B8-Pad1)*%
X113147000Y33110371D02*
X116459000Y29798371D01*
X113147000Y33462000D02*
X113147000Y33110371D01*
%TO.N,Net-(B9-Pad1)*%
X76581000Y50028000D02*
X76581000Y49530000D01*
X73147000Y53462000D02*
X76581000Y50028000D01*
%TO.N,Net-(B10-Pad1)*%
X96393000Y50216000D02*
X96393000Y49530000D01*
X93147000Y53462000D02*
X96393000Y50216000D01*
%TO.N,COL1*%
X59497000Y16002000D02*
X59497000Y36002000D01*
X76363000Y45368000D02*
X61613000Y45368000D01*
X79497000Y56002000D02*
X79497000Y48502000D01*
X77113000Y46118000D02*
X76363000Y45368000D01*
X79497000Y48502000D02*
X77113000Y46118000D01*
X59497000Y43252000D02*
X59497000Y36002000D01*
X61613000Y45368000D02*
X59497000Y43252000D01*
%TO.N,COL2*%
X88997000Y56002000D02*
X79497000Y46502000D01*
X79497000Y16002000D02*
X79497000Y36002000D01*
X99497000Y56002000D02*
X88997000Y56002000D01*
X79497000Y46502000D02*
X79497000Y36002000D01*
%TO.N,COL3*%
X99497000Y36002000D02*
X99497000Y16002000D01*
%TO.N,COL4*%
X119497000Y16002000D02*
X119497000Y36002000D01*
%TO.N,ROW1*%
X48863000Y9618000D02*
X48863000Y11360584D01*
X48863000Y11360584D02*
X43613000Y16610584D01*
X43613000Y16610584D02*
X43613000Y31868000D01*
X43613000Y31868000D02*
X15863000Y59618000D01*
X48895000Y9652000D02*
X48895000Y9650000D01*
X48895000Y9650000D02*
X48863000Y9618000D01*
%TO.N,ROW2*%
X17625686Y60868000D02*
X48671686Y29822000D01*
X16113000Y60868000D02*
X17625686Y60868000D01*
%TO.N,ROW3*%
X68961000Y49530000D02*
X30701000Y49530000D01*
X16863000Y63368000D02*
X16363000Y63368000D01*
X30701000Y49530000D02*
X16863000Y63368000D01*
%TO.N,/ENCODER1_A*%
X44550594Y74055594D02*
X116175406Y74055594D01*
X121047000Y69184000D02*
X121047000Y66936000D01*
X43363000Y72868000D02*
X44550594Y74055594D01*
X116175406Y74055594D02*
X121047000Y69184000D01*
%TO.N,/ENCODER1_B*%
X45363000Y72868000D02*
X110115000Y72868000D01*
X110115000Y72868000D02*
X116047000Y66936000D01*
X45237406Y72993594D02*
X45363000Y72868000D01*
%TD*%
%TA.AperFunction,Conductor*%
%TO.N,GND*%
G36*
X13303121Y77637998D02*
G01*
X13349614Y77584342D01*
X13361000Y77532000D01*
X13361000Y71656000D01*
X41361000Y71656000D01*
X41361000Y77532000D01*
X41381002Y77600121D01*
X41434658Y77646614D01*
X41487000Y77658000D01*
X46617552Y77658000D01*
X46685673Y77637998D01*
X46732166Y77584342D01*
X46742270Y77514068D01*
X46712776Y77449488D01*
X46696505Y77433804D01*
X46564823Y77327929D01*
X46560865Y77323212D01*
X46560863Y77323210D01*
X46477594Y77223973D01*
X46431391Y77168911D01*
X46428427Y77163519D01*
X46428424Y77163515D01*
X46384547Y77083703D01*
X46331387Y76987005D01*
X46268621Y76789139D01*
X46267935Y76783022D01*
X46267934Y76783018D01*
X46246613Y76592932D01*
X46245482Y76582850D01*
X46262852Y76375996D01*
X46320069Y76176455D01*
X46322887Y76170973D01*
X46322888Y76170969D01*
X46388985Y76042359D01*
X46414955Y75991827D01*
X46543894Y75829146D01*
X46548581Y75825157D01*
X46548584Y75825154D01*
X46580778Y75797755D01*
X46701976Y75694608D01*
X46883180Y75593336D01*
X47080603Y75529190D01*
X47286725Y75504611D01*
X47292860Y75505083D01*
X47292862Y75505083D01*
X47487555Y75520064D01*
X47487560Y75520065D01*
X47493696Y75520537D01*
X47499626Y75522193D01*
X47499628Y75522193D01*
X47593664Y75548449D01*
X47693632Y75576360D01*
X47733190Y75596342D01*
X47873416Y75667175D01*
X47873418Y75667176D01*
X47878917Y75669954D01*
X48042495Y75797755D01*
X48178133Y75954894D01*
X48280667Y76135386D01*
X48346190Y76332356D01*
X48372207Y76538302D01*
X48372622Y76568000D01*
X48362661Y76669584D01*
X48352966Y76768466D01*
X48352965Y76768469D01*
X48352365Y76774592D01*
X48292368Y76973315D01*
X48233673Y77083703D01*
X48197809Y77151153D01*
X48197808Y77151155D01*
X48194913Y77156599D01*
X48136832Y77227814D01*
X48067610Y77312689D01*
X48067607Y77312692D01*
X48063715Y77317464D01*
X48056770Y77323210D01*
X47921741Y77434916D01*
X47882003Y77493749D01*
X47880382Y77564728D01*
X47917391Y77625315D01*
X47981281Y77656275D01*
X48002057Y77658000D01*
X49117552Y77658000D01*
X49185673Y77637998D01*
X49232166Y77584342D01*
X49242270Y77514068D01*
X49212776Y77449488D01*
X49196505Y77433804D01*
X49064823Y77327929D01*
X49060865Y77323212D01*
X49060863Y77323210D01*
X48977594Y77223973D01*
X48931391Y77168911D01*
X48928427Y77163519D01*
X48928424Y77163515D01*
X48884547Y77083703D01*
X48831387Y76987005D01*
X48768621Y76789139D01*
X48767935Y76783022D01*
X48767934Y76783018D01*
X48746613Y76592932D01*
X48745482Y76582850D01*
X48762852Y76375996D01*
X48820069Y76176455D01*
X48822887Y76170973D01*
X48822888Y76170969D01*
X48888985Y76042359D01*
X48914955Y75991827D01*
X49043894Y75829146D01*
X49048581Y75825157D01*
X49048584Y75825154D01*
X49080778Y75797755D01*
X49201976Y75694608D01*
X49383180Y75593336D01*
X49580603Y75529190D01*
X49786725Y75504611D01*
X49792860Y75505083D01*
X49792862Y75505083D01*
X49987555Y75520064D01*
X49987560Y75520065D01*
X49993696Y75520537D01*
X49999626Y75522193D01*
X49999628Y75522193D01*
X50093664Y75548449D01*
X50193632Y75576360D01*
X50233190Y75596342D01*
X50373416Y75667175D01*
X50373418Y75667176D01*
X50378917Y75669954D01*
X50542495Y75797755D01*
X50678133Y75954894D01*
X50780667Y76135386D01*
X50846190Y76332356D01*
X50872207Y76538302D01*
X50872622Y76568000D01*
X50862661Y76669584D01*
X50852966Y76768466D01*
X50852965Y76768469D01*
X50852365Y76774592D01*
X50792368Y76973315D01*
X50733673Y77083703D01*
X50697809Y77151153D01*
X50697808Y77151155D01*
X50694913Y77156599D01*
X50636832Y77227814D01*
X50567610Y77312689D01*
X50567607Y77312692D01*
X50563715Y77317464D01*
X50556770Y77323210D01*
X50421741Y77434916D01*
X50382003Y77493749D01*
X50380382Y77564728D01*
X50417391Y77625315D01*
X50481281Y77656275D01*
X50502057Y77658000D01*
X51617552Y77658000D01*
X51685673Y77637998D01*
X51732166Y77584342D01*
X51742270Y77514068D01*
X51712776Y77449488D01*
X51696505Y77433804D01*
X51564823Y77327929D01*
X51560865Y77323212D01*
X51560863Y77323210D01*
X51477594Y77223973D01*
X51431391Y77168911D01*
X51428427Y77163519D01*
X51428424Y77163515D01*
X51384547Y77083703D01*
X51331387Y76987005D01*
X51268621Y76789139D01*
X51267935Y76783022D01*
X51267934Y76783018D01*
X51246613Y76592932D01*
X51245482Y76582850D01*
X51262852Y76375996D01*
X51320069Y76176455D01*
X51322887Y76170973D01*
X51322888Y76170969D01*
X51388985Y76042359D01*
X51414955Y75991827D01*
X51543894Y75829146D01*
X51548581Y75825157D01*
X51548584Y75825154D01*
X51580778Y75797755D01*
X51701976Y75694608D01*
X51883180Y75593336D01*
X52080603Y75529190D01*
X52286725Y75504611D01*
X52292860Y75505083D01*
X52292862Y75505083D01*
X52487555Y75520064D01*
X52487560Y75520065D01*
X52493696Y75520537D01*
X52499626Y75522193D01*
X52499628Y75522193D01*
X52593664Y75548449D01*
X52693632Y75576360D01*
X52733190Y75596342D01*
X52873416Y75667175D01*
X52873418Y75667176D01*
X52878917Y75669954D01*
X53042495Y75797755D01*
X53178133Y75954894D01*
X53280667Y76135386D01*
X53346190Y76332356D01*
X53372207Y76538302D01*
X53372622Y76568000D01*
X53362661Y76669584D01*
X53352966Y76768466D01*
X53352965Y76768469D01*
X53352365Y76774592D01*
X53292368Y76973315D01*
X53233673Y77083703D01*
X53197809Y77151153D01*
X53197808Y77151155D01*
X53194913Y77156599D01*
X53136832Y77227814D01*
X53067610Y77312689D01*
X53067607Y77312692D01*
X53063715Y77317464D01*
X53056770Y77323210D01*
X52921741Y77434916D01*
X52882003Y77493749D01*
X52880382Y77564728D01*
X52917391Y77625315D01*
X52981281Y77656275D01*
X53002057Y77658000D01*
X124742634Y77658000D01*
X124810755Y77637998D01*
X124857248Y77584342D01*
X124867352Y77514068D01*
X124837858Y77449488D01*
X124821415Y77433666D01*
X124785844Y77405168D01*
X124783291Y77402588D01*
X124552049Y77168911D01*
X124541842Y77158597D01*
X124327797Y76885616D01*
X124325904Y76882527D01*
X124325902Y76882524D01*
X124279652Y76807051D01*
X124146546Y76589842D01*
X124000492Y76275195D01*
X123891571Y75945847D01*
X123890835Y75942292D01*
X123890834Y75942289D01*
X123833861Y75667175D01*
X123821226Y75606162D01*
X123790389Y75260644D01*
X123791229Y75228570D01*
X123799469Y74913870D01*
X123799980Y74910282D01*
X123799980Y74910278D01*
X123830722Y74694278D01*
X123848347Y74570439D01*
X123936374Y74234902D01*
X124062382Y73911705D01*
X124064081Y73908497D01*
X124197547Y73656425D01*
X124224704Y73605134D01*
X124226756Y73602149D01*
X124226761Y73602140D01*
X124419129Y73322243D01*
X124419135Y73322236D01*
X124421186Y73319251D01*
X124517116Y73209284D01*
X124611673Y73100892D01*
X124649224Y73057846D01*
X124905796Y72824383D01*
X125187501Y72621957D01*
X125490606Y72453251D01*
X125811093Y72320501D01*
X125814587Y72319506D01*
X125814589Y72319505D01*
X126141212Y72226464D01*
X126141217Y72226463D01*
X126144713Y72225467D01*
X126380452Y72186863D01*
X126483465Y72169994D01*
X126483469Y72169994D01*
X126487045Y72169408D01*
X126490671Y72169237D01*
X126829926Y72153238D01*
X126829927Y72153238D01*
X126833553Y72153067D01*
X126842745Y72153694D01*
X127176010Y72176413D01*
X127176018Y72176414D01*
X127179641Y72176661D01*
X127183217Y72177324D01*
X127183219Y72177324D01*
X127517160Y72239216D01*
X127517164Y72239217D01*
X127520725Y72239877D01*
X127852282Y72341878D01*
X127859436Y72345018D01*
X128102838Y72451864D01*
X128169918Y72481310D01*
X128217217Y72508949D01*
X128466293Y72654498D01*
X128469423Y72656327D01*
X128746827Y72864608D01*
X128754983Y72872347D01*
X128995820Y73100892D01*
X128995824Y73100896D01*
X128998454Y73103392D01*
X129003759Y73109736D01*
X129071337Y73190559D01*
X129130378Y73229988D01*
X129201364Y73231239D01*
X129261757Y73193913D01*
X129292382Y73129861D01*
X129294000Y73109736D01*
X129294000Y6223973D01*
X129273998Y6155852D01*
X129220342Y6109359D01*
X129150068Y6099255D01*
X129085488Y6128749D01*
X129075700Y6138202D01*
X128889967Y6338074D01*
X128889965Y6338075D01*
X128887495Y6340734D01*
X128884741Y6343086D01*
X128884737Y6343090D01*
X128787724Y6425947D01*
X128623716Y6566023D01*
X128335792Y6759500D01*
X128332583Y6761156D01*
X128332575Y6761161D01*
X128030757Y6916940D01*
X128030758Y6916940D01*
X128027537Y6918602D01*
X128024156Y6919880D01*
X128024146Y6919884D01*
X127793433Y7007063D01*
X127703039Y7041220D01*
X127699518Y7042104D01*
X127699513Y7042106D01*
X127538263Y7082609D01*
X127366598Y7125728D01*
X127347527Y7128239D01*
X127026278Y7170532D01*
X127026270Y7170533D01*
X127022674Y7171006D01*
X126878178Y7173276D01*
X126679467Y7176398D01*
X126679463Y7176398D01*
X126675825Y7176455D01*
X126672211Y7176094D01*
X126672205Y7176094D01*
X126428172Y7151736D01*
X126330648Y7142002D01*
X125991718Y7068103D01*
X125988291Y7066930D01*
X125988285Y7066928D01*
X125666960Y6956914D01*
X125666955Y6956912D01*
X125663529Y6955739D01*
X125660261Y6954180D01*
X125660253Y6954177D01*
X125582185Y6916940D01*
X125350429Y6806398D01*
X125056569Y6622060D01*
X125053735Y6619790D01*
X125053730Y6619786D01*
X124983680Y6563665D01*
X124785844Y6405168D01*
X124541842Y6158597D01*
X124327797Y5885616D01*
X124325904Y5882527D01*
X124325902Y5882524D01*
X124279652Y5807051D01*
X124146546Y5589842D01*
X124000492Y5275195D01*
X123891571Y4945847D01*
X123890835Y4942292D01*
X123890834Y4942289D01*
X123871820Y4850471D01*
X123821226Y4606162D01*
X123812508Y4508483D01*
X123794922Y4311430D01*
X123790389Y4260644D01*
X123790484Y4257014D01*
X123790484Y4257012D01*
X123790739Y4247268D01*
X123791229Y4228570D01*
X123799469Y3913870D01*
X123848347Y3570439D01*
X123936374Y3234902D01*
X124062382Y2911705D01*
X124069396Y2898458D01*
X124221044Y2612047D01*
X124224704Y2605134D01*
X124226756Y2602149D01*
X124226761Y2602140D01*
X124419129Y2322243D01*
X124419135Y2322236D01*
X124421186Y2319251D01*
X124517116Y2209284D01*
X124611673Y2100892D01*
X124649224Y2057846D01*
X124651909Y2055403D01*
X124830175Y1893193D01*
X124867097Y1832553D01*
X124865374Y1761577D01*
X124825552Y1702801D01*
X124760274Y1674884D01*
X124745375Y1674000D01*
X4861789Y1674000D01*
X4793668Y1694002D01*
X4747175Y1747658D01*
X4737071Y1817932D01*
X4766565Y1882512D01*
X4775057Y1891397D01*
X4995820Y2100892D01*
X4995824Y2100896D01*
X4998454Y2103392D01*
X5003759Y2109736D01*
X5218646Y2366739D01*
X5220968Y2369516D01*
X5222956Y2372542D01*
X5409432Y2656425D01*
X5409437Y2656434D01*
X5411419Y2659451D01*
X5537269Y2909674D01*
X5565658Y2966118D01*
X5565661Y2966126D01*
X5567285Y2969354D01*
X5576718Y2995132D01*
X5685249Y3291707D01*
X5685252Y3291716D01*
X5686497Y3295119D01*
X5687342Y3298641D01*
X5687345Y3298649D01*
X5694908Y3330149D01*
X13784719Y3330149D01*
X13801268Y3133066D01*
X13802967Y3127142D01*
X13849140Y2966118D01*
X13855783Y2942950D01*
X13946187Y2767044D01*
X14069035Y2612047D01*
X14219650Y2483864D01*
X14392294Y2387376D01*
X14580392Y2326260D01*
X14776777Y2302842D01*
X14782912Y2303314D01*
X14782914Y2303314D01*
X14967830Y2317543D01*
X14967834Y2317544D01*
X14973972Y2318016D01*
X15164463Y2371202D01*
X15169967Y2373982D01*
X15169969Y2373983D01*
X15335495Y2457596D01*
X15335497Y2457597D01*
X15340996Y2460375D01*
X15496847Y2582139D01*
X15626078Y2731855D01*
X15723769Y2903821D01*
X15786197Y3091487D01*
X15810985Y3287705D01*
X15811380Y3316000D01*
X15809993Y3330149D01*
X16284719Y3330149D01*
X16301268Y3133066D01*
X16302967Y3127142D01*
X16349140Y2966118D01*
X16355783Y2942950D01*
X16446187Y2767044D01*
X16569035Y2612047D01*
X16719650Y2483864D01*
X16892294Y2387376D01*
X17080392Y2326260D01*
X17276777Y2302842D01*
X17282912Y2303314D01*
X17282914Y2303314D01*
X17467830Y2317543D01*
X17467834Y2317544D01*
X17473972Y2318016D01*
X17664463Y2371202D01*
X17669967Y2373982D01*
X17669969Y2373983D01*
X17835495Y2457596D01*
X17835497Y2457597D01*
X17840996Y2460375D01*
X17996847Y2582139D01*
X18126078Y2731855D01*
X18223769Y2903821D01*
X18286197Y3091487D01*
X18310985Y3287705D01*
X18311380Y3316000D01*
X18292080Y3512833D01*
X18234916Y3702169D01*
X18142066Y3876796D01*
X18060500Y3976806D01*
X18020960Y4025287D01*
X18020957Y4025290D01*
X18017065Y4030062D01*
X18010724Y4035308D01*
X17869425Y4152201D01*
X17869421Y4152203D01*
X17864675Y4156130D01*
X17690701Y4250198D01*
X17501768Y4308682D01*
X17495643Y4309326D01*
X17495642Y4309326D01*
X17311204Y4328711D01*
X17311202Y4328711D01*
X17305075Y4329355D01*
X17222576Y4321847D01*
X17114251Y4311989D01*
X17114248Y4311988D01*
X17108112Y4311430D01*
X17102206Y4309692D01*
X17102202Y4309691D01*
X16997076Y4278751D01*
X16918381Y4255590D01*
X16912923Y4252737D01*
X16912919Y4252735D01*
X16822147Y4205280D01*
X16743110Y4163960D01*
X16588975Y4040032D01*
X16461846Y3888526D01*
X16458879Y3883128D01*
X16458875Y3883123D01*
X16380095Y3739820D01*
X16366567Y3715213D01*
X16364706Y3709346D01*
X16364705Y3709344D01*
X16352418Y3670610D01*
X16306765Y3526694D01*
X16284719Y3330149D01*
X15809993Y3330149D01*
X15792080Y3512833D01*
X15734916Y3702169D01*
X15642066Y3876796D01*
X15560500Y3976806D01*
X15520960Y4025287D01*
X15520957Y4025290D01*
X15517065Y4030062D01*
X15510724Y4035308D01*
X15369425Y4152201D01*
X15369421Y4152203D01*
X15364675Y4156130D01*
X15190701Y4250198D01*
X15001768Y4308682D01*
X14995643Y4309326D01*
X14995642Y4309326D01*
X14811204Y4328711D01*
X14811202Y4328711D01*
X14805075Y4329355D01*
X14722576Y4321847D01*
X14614251Y4311989D01*
X14614248Y4311988D01*
X14608112Y4311430D01*
X14602206Y4309692D01*
X14602202Y4309691D01*
X14497076Y4278751D01*
X14418381Y4255590D01*
X14412923Y4252737D01*
X14412919Y4252735D01*
X14322147Y4205280D01*
X14243110Y4163960D01*
X14088975Y4040032D01*
X13961846Y3888526D01*
X13958879Y3883128D01*
X13958875Y3883123D01*
X13880095Y3739820D01*
X13866567Y3715213D01*
X13864706Y3709346D01*
X13864705Y3709344D01*
X13852418Y3670610D01*
X13806765Y3526694D01*
X13784719Y3330149D01*
X5694908Y3330149D01*
X5766631Y3628897D01*
X5766632Y3628901D01*
X5767478Y3632426D01*
X5797628Y3881572D01*
X5808816Y3974027D01*
X5808816Y3974033D01*
X5809152Y3976806D01*
X5815098Y4166000D01*
X5806813Y4309691D01*
X5795338Y4508697D01*
X5795337Y4508702D01*
X5795129Y4512317D01*
X5735489Y4854044D01*
X5636966Y5186651D01*
X5500867Y5505729D01*
X5328997Y5807051D01*
X5273557Y5882524D01*
X5125775Y6083703D01*
X5123632Y6086621D01*
X5102503Y6109359D01*
X4889967Y6338074D01*
X4889965Y6338075D01*
X4887495Y6340734D01*
X4884741Y6343086D01*
X4884737Y6343090D01*
X4787724Y6425947D01*
X4623716Y6566023D01*
X4335792Y6759500D01*
X4332583Y6761156D01*
X4332575Y6761161D01*
X4030757Y6916940D01*
X4030758Y6916940D01*
X4027537Y6918602D01*
X4024156Y6919880D01*
X4024146Y6919884D01*
X3793433Y7007063D01*
X3703039Y7041220D01*
X3699518Y7042104D01*
X3699513Y7042106D01*
X3538263Y7082609D01*
X3366598Y7125728D01*
X3347527Y7128239D01*
X3026278Y7170532D01*
X3026270Y7170533D01*
X3022674Y7171006D01*
X2878178Y7173276D01*
X2679467Y7176398D01*
X2679463Y7176398D01*
X2675825Y7176455D01*
X2672211Y7176094D01*
X2672205Y7176094D01*
X2428172Y7151736D01*
X2330648Y7142002D01*
X1991718Y7068103D01*
X1988291Y7066930D01*
X1988285Y7066928D01*
X1666960Y6956914D01*
X1666955Y6956912D01*
X1663529Y6955739D01*
X1660261Y6954180D01*
X1660253Y6954177D01*
X1582185Y6916940D01*
X1350429Y6806398D01*
X1056569Y6622060D01*
X1053735Y6619790D01*
X1053730Y6619786D01*
X983680Y6563665D01*
X785844Y6405168D01*
X541842Y6158597D01*
X539602Y6155741D01*
X539600Y6155738D01*
X535156Y6150070D01*
X477384Y6108804D01*
X406473Y6105323D01*
X344936Y6140731D01*
X312312Y6203788D01*
X310000Y6227814D01*
X310000Y19962000D01*
X330002Y20030121D01*
X383658Y20076614D01*
X436000Y20088000D01*
X4720654Y20088000D01*
X4788775Y20067998D01*
X4835268Y20014342D01*
X4846654Y19962000D01*
X4846654Y15618591D01*
X4826652Y15550470D01*
X4809749Y15529496D01*
X4275263Y14995010D01*
X4212951Y14960984D01*
X4142136Y14966049D01*
X4085300Y15008596D01*
X4060769Y15071810D01*
X4055682Y15123699D01*
X4055681Y15123704D01*
X4055080Y15129833D01*
X3997916Y15319169D01*
X3905066Y15493796D01*
X3834709Y15580062D01*
X3783960Y15642287D01*
X3783957Y15642290D01*
X3780065Y15647062D01*
X3773724Y15652308D01*
X3632425Y15769201D01*
X3632421Y15769203D01*
X3627675Y15773130D01*
X3453701Y15867198D01*
X3264768Y15925682D01*
X3258643Y15926326D01*
X3258642Y15926326D01*
X3074204Y15945711D01*
X3074202Y15945711D01*
X3068075Y15946355D01*
X2985576Y15938847D01*
X2877251Y15928989D01*
X2877248Y15928988D01*
X2871112Y15928430D01*
X2865206Y15926692D01*
X2865202Y15926691D01*
X2760076Y15895751D01*
X2681381Y15872590D01*
X2675923Y15869737D01*
X2675919Y15869735D01*
X2585147Y15822280D01*
X2506110Y15780960D01*
X2351975Y15657032D01*
X2224846Y15505526D01*
X2221879Y15500128D01*
X2221875Y15500123D01*
X2218397Y15493796D01*
X2129567Y15332213D01*
X2127706Y15326346D01*
X2127705Y15326344D01*
X2095187Y15223834D01*
X2069765Y15143694D01*
X2047719Y14947149D01*
X2048235Y14941005D01*
X2062819Y14767328D01*
X2064268Y14750066D01*
X2065967Y14744142D01*
X2107306Y14599976D01*
X2118783Y14559950D01*
X2209187Y14384044D01*
X2332035Y14229047D01*
X2482650Y14100864D01*
X2655294Y14004376D01*
X2843392Y13943260D01*
X2888706Y13937857D01*
X2925356Y13933486D01*
X2990630Y13905558D01*
X3030442Y13846775D01*
X3032154Y13775799D01*
X2999532Y13719277D01*
X2635218Y13354963D01*
X2604499Y13332397D01*
X2506110Y13280960D01*
X2351975Y13157032D01*
X2224846Y13005526D01*
X2221879Y13000128D01*
X2221875Y13000123D01*
X2201692Y12963409D01*
X2129567Y12832213D01*
X2069765Y12643694D01*
X2047719Y12447149D01*
X2048235Y12441005D01*
X2058573Y12317894D01*
X2064268Y12250066D01*
X2118783Y12059950D01*
X2121602Y12054465D01*
X2199543Y11902810D01*
X2209187Y11884044D01*
X2332035Y11729047D01*
X2336728Y11725053D01*
X2336729Y11725052D01*
X2461739Y11618661D01*
X2482650Y11600864D01*
X2655294Y11504376D01*
X2843392Y11443260D01*
X3039777Y11419842D01*
X3045912Y11420314D01*
X3045914Y11420314D01*
X3230831Y11434543D01*
X3230836Y11434544D01*
X3236972Y11435016D01*
X3242902Y11436672D01*
X3242904Y11436672D01*
X3381465Y11475359D01*
X3415349Y11480000D01*
X32102550Y11480000D01*
X32106068Y11479951D01*
X32181773Y11477836D01*
X32181776Y11477836D01*
X32188156Y11477658D01*
X32244517Y11487596D01*
X32253665Y11488865D01*
X32304270Y11494005D01*
X32304274Y11494006D01*
X32310616Y11494650D01*
X32336411Y11502734D01*
X32352210Y11506585D01*
X32372534Y11510168D01*
X32372538Y11510169D01*
X32378821Y11511277D01*
X32432043Y11532349D01*
X32440745Y11535430D01*
X32495363Y11552546D01*
X32500950Y11555643D01*
X32500957Y11555646D01*
X32519001Y11565648D01*
X32533701Y11572597D01*
X32552889Y11580194D01*
X32552897Y11580198D01*
X32558832Y11582548D01*
X32606733Y11613894D01*
X32614636Y11618661D01*
X32659111Y11643314D01*
X32664695Y11646409D01*
X32685225Y11664005D01*
X32698221Y11673762D01*
X32716778Y11685906D01*
X32716779Y11685907D01*
X32720835Y11688561D01*
X32725563Y11692818D01*
X32762455Y11729710D01*
X32769553Y11736283D01*
X32811695Y11772403D01*
X32829479Y11795330D01*
X32839944Y11807199D01*
X32859585Y11826840D01*
X32921897Y11860866D01*
X32958563Y11863357D01*
X33147000Y11848526D01*
X33399403Y11868391D01*
X33404210Y11869545D01*
X33404216Y11869546D01*
X33568420Y11908968D01*
X33645591Y11927495D01*
X33650164Y11929389D01*
X33874928Y12022489D01*
X33874932Y12022491D01*
X33879502Y12024384D01*
X34095376Y12156672D01*
X34287898Y12321102D01*
X34452328Y12513624D01*
X34584616Y12729498D01*
X34681505Y12963409D01*
X34706191Y13066233D01*
X34739454Y13204784D01*
X34739455Y13204790D01*
X34740609Y13209597D01*
X34760474Y13462000D01*
X34740609Y13714403D01*
X34725870Y13775799D01*
X34685666Y13943260D01*
X34681505Y13960591D01*
X34679611Y13965164D01*
X34586511Y14189928D01*
X34586509Y14189932D01*
X34584616Y14194502D01*
X34452328Y14410376D01*
X34287898Y14602898D01*
X34095376Y14767328D01*
X33879502Y14899616D01*
X33874932Y14901509D01*
X33874928Y14901511D01*
X33650164Y14994611D01*
X33650162Y14994612D01*
X33645591Y14996505D01*
X33510347Y15028974D01*
X33404216Y15054454D01*
X33404210Y15054455D01*
X33399403Y15055609D01*
X33147000Y15075474D01*
X32894597Y15055609D01*
X32889790Y15054455D01*
X32889784Y15054454D01*
X32783653Y15028974D01*
X32648409Y14996505D01*
X32643838Y14994612D01*
X32643836Y14994611D01*
X32419072Y14901511D01*
X32419068Y14901509D01*
X32414498Y14899616D01*
X32198624Y14767328D01*
X32006102Y14602898D01*
X31841672Y14410376D01*
X31709384Y14194502D01*
X31707491Y14189932D01*
X31707489Y14189928D01*
X31614389Y13965164D01*
X31612495Y13960591D01*
X31608334Y13943260D01*
X31568131Y13775799D01*
X31553391Y13714403D01*
X31553003Y13709469D01*
X31536683Y13502114D01*
X31511397Y13435773D01*
X31454259Y13393633D01*
X31411071Y13386000D01*
X5665936Y13386000D01*
X5597815Y13406002D01*
X5551322Y13459658D01*
X5541218Y13529932D01*
X5570712Y13594512D01*
X5576841Y13601095D01*
X6462597Y14486851D01*
X6465119Y14489304D01*
X6520150Y14541344D01*
X6520151Y14541345D01*
X6524791Y14545733D01*
X6557620Y14592617D01*
X6563186Y14599976D01*
X6595334Y14639394D01*
X6595337Y14639398D01*
X6599368Y14644341D01*
X6611892Y14668296D01*
X6620339Y14682190D01*
X6632177Y14699095D01*
X6632180Y14699101D01*
X6635839Y14704326D01*
X6653070Y14744142D01*
X6658571Y14756855D01*
X6662546Y14765188D01*
X6686109Y14810260D01*
X6686110Y14810263D01*
X6689065Y14815915D01*
X6696516Y14841899D01*
X6701995Y14857201D01*
X6712730Y14882009D01*
X6724439Y14938058D01*
X6726647Y14946981D01*
X6742430Y15002022D01*
X6744504Y15028974D01*
X6746795Y15045072D01*
X6751333Y15066793D01*
X6751334Y15066799D01*
X6752321Y15071525D01*
X6752654Y15077878D01*
X6752654Y15130054D01*
X6753025Y15139721D01*
X6756794Y15188699D01*
X6756794Y15188702D01*
X6757283Y15195058D01*
X6753646Y15223847D01*
X6752654Y15239625D01*
X6752654Y16002000D01*
X37883526Y16002000D01*
X37903391Y15749597D01*
X37904545Y15744790D01*
X37904546Y15744784D01*
X37934842Y15618591D01*
X37962495Y15503409D01*
X37964388Y15498838D01*
X37964389Y15498836D01*
X38038810Y15319169D01*
X38059384Y15269498D01*
X38191672Y15053624D01*
X38356102Y14861102D01*
X38548624Y14696672D01*
X38764498Y14564384D01*
X38769068Y14562491D01*
X38769072Y14562489D01*
X38951679Y14486851D01*
X38998409Y14467495D01*
X39083032Y14447179D01*
X39239784Y14409546D01*
X39239790Y14409545D01*
X39244597Y14408391D01*
X39497000Y14388526D01*
X39749403Y14408391D01*
X39754210Y14409545D01*
X39754216Y14409546D01*
X39910968Y14447179D01*
X39995591Y14467495D01*
X40042321Y14486851D01*
X40224928Y14562489D01*
X40224932Y14562491D01*
X40229502Y14564384D01*
X40445376Y14696672D01*
X40637898Y14861102D01*
X40802328Y15053624D01*
X40934616Y15269498D01*
X40955191Y15319169D01*
X41029611Y15498836D01*
X41029612Y15498838D01*
X41031505Y15503409D01*
X41059158Y15618591D01*
X41089454Y15744784D01*
X41089455Y15744790D01*
X41090609Y15749597D01*
X41110474Y16002000D01*
X41090609Y16254403D01*
X41087623Y16266843D01*
X41032660Y16495779D01*
X41031505Y16500591D01*
X41029611Y16505164D01*
X40936511Y16729928D01*
X40936509Y16729932D01*
X40934616Y16734502D01*
X40802328Y16950376D01*
X40799121Y16954131D01*
X40799118Y16954135D01*
X40777596Y16979333D01*
X40748565Y17044122D01*
X40759170Y17114322D01*
X40806044Y17167645D01*
X40862753Y17186713D01*
X40907650Y17190522D01*
X40991409Y17197629D01*
X40991413Y17197630D01*
X40996720Y17198080D01*
X41001875Y17199418D01*
X41001881Y17199419D01*
X41214703Y17254657D01*
X41214707Y17254658D01*
X41219872Y17255999D01*
X41224738Y17258191D01*
X41224741Y17258192D01*
X41425202Y17348493D01*
X41430075Y17350688D01*
X41621319Y17479441D01*
X41634272Y17491797D01*
X41784278Y17634897D01*
X41788135Y17638576D01*
X41925754Y17823542D01*
X42030240Y18029051D01*
X42043274Y18071025D01*
X42097024Y18244129D01*
X42098607Y18249227D01*
X42099308Y18254516D01*
X42128198Y18472489D01*
X42128198Y18472494D01*
X42128898Y18477774D01*
X42120249Y18708158D01*
X42072907Y18933791D01*
X41988224Y19148221D01*
X41868623Y19345317D01*
X41781755Y19445424D01*
X41721023Y19515412D01*
X41721021Y19515414D01*
X41717523Y19519445D01*
X41675970Y19553516D01*
X41543373Y19662240D01*
X41543367Y19662244D01*
X41539245Y19665624D01*
X41534609Y19668263D01*
X41534606Y19668265D01*
X41343529Y19777032D01*
X41338886Y19779675D01*
X41122175Y19858337D01*
X41116926Y19859286D01*
X41116923Y19859287D01*
X40899392Y19898623D01*
X40899385Y19898624D01*
X40895308Y19899361D01*
X40877586Y19900197D01*
X40872644Y19900430D01*
X40872637Y19900430D01*
X40871156Y19900500D01*
X40709110Y19900500D01*
X40642191Y19894822D01*
X40542591Y19886371D01*
X40542587Y19886370D01*
X40537280Y19885920D01*
X40532125Y19884582D01*
X40532119Y19884581D01*
X40319297Y19829343D01*
X40319293Y19829342D01*
X40314128Y19828001D01*
X40309262Y19825809D01*
X40309259Y19825808D01*
X40200980Y19777032D01*
X40103925Y19733312D01*
X39912681Y19604559D01*
X39745865Y19445424D01*
X39608246Y19260458D01*
X39503760Y19054949D01*
X39502178Y19049855D01*
X39502177Y19049852D01*
X39440115Y18849980D01*
X39435393Y18834773D01*
X39434692Y18829484D01*
X39419304Y18713377D01*
X39405102Y18606226D01*
X39413751Y18375842D01*
X39461093Y18150209D01*
X39545776Y17935779D01*
X39624739Y17805653D01*
X39642977Y17737041D01*
X39621226Y17669459D01*
X39566390Y17624364D01*
X39507139Y17614677D01*
X39501939Y17615086D01*
X39501930Y17615086D01*
X39497000Y17615474D01*
X39244597Y17595609D01*
X39239790Y17594455D01*
X39239784Y17594454D01*
X39083032Y17556821D01*
X38998409Y17536505D01*
X38993838Y17534612D01*
X38993836Y17534611D01*
X38769072Y17441511D01*
X38769068Y17441509D01*
X38764498Y17439616D01*
X38548624Y17307328D01*
X38356102Y17142898D01*
X38191672Y16950376D01*
X38059384Y16734502D01*
X38057491Y16729932D01*
X38057489Y16729928D01*
X37964389Y16505164D01*
X37962495Y16500591D01*
X37961340Y16495779D01*
X37906378Y16266843D01*
X37903391Y16254403D01*
X37883526Y16002000D01*
X6752654Y16002000D01*
X6752654Y18606226D01*
X29245102Y18606226D01*
X29253751Y18375842D01*
X29301093Y18150209D01*
X29385776Y17935779D01*
X29505377Y17738683D01*
X29508874Y17734653D01*
X29612984Y17614677D01*
X29656477Y17564555D01*
X29660608Y17561168D01*
X29830627Y17421760D01*
X29830633Y17421756D01*
X29834755Y17418376D01*
X29839391Y17415737D01*
X29839394Y17415735D01*
X29948422Y17353673D01*
X30035114Y17304325D01*
X30251825Y17225663D01*
X30257074Y17224714D01*
X30257077Y17224713D01*
X30474608Y17185377D01*
X30474615Y17185376D01*
X30478692Y17184639D01*
X30496414Y17183803D01*
X30501356Y17183570D01*
X30501363Y17183570D01*
X30502844Y17183500D01*
X30664890Y17183500D01*
X30731809Y17189178D01*
X30831409Y17197629D01*
X30831413Y17197630D01*
X30836720Y17198080D01*
X30841875Y17199418D01*
X30841881Y17199419D01*
X31054703Y17254657D01*
X31054707Y17254658D01*
X31059872Y17255999D01*
X31064738Y17258191D01*
X31064741Y17258192D01*
X31265202Y17348493D01*
X31270075Y17350688D01*
X31461319Y17479441D01*
X31474272Y17491797D01*
X31624278Y17634897D01*
X31628135Y17638576D01*
X31765754Y17823542D01*
X31870240Y18029051D01*
X31883274Y18071025D01*
X31937024Y18244129D01*
X31938607Y18249227D01*
X31939308Y18254516D01*
X31956493Y18384179D01*
X33178500Y18384179D01*
X33218060Y18071025D01*
X33296557Y17765298D01*
X33298010Y17761629D01*
X33298010Y17761628D01*
X33408279Y17483122D01*
X33412753Y17471821D01*
X33414659Y17468353D01*
X33414660Y17468352D01*
X33548603Y17224713D01*
X33564816Y17195221D01*
X33750346Y16939860D01*
X33929577Y16748999D01*
X33947486Y16729928D01*
X33966418Y16709767D01*
X33969469Y16707243D01*
X33969470Y16707242D01*
X34088022Y16609167D01*
X34209625Y16508568D01*
X34476131Y16339438D01*
X34479710Y16337754D01*
X34479717Y16337750D01*
X34758144Y16206733D01*
X34758148Y16206731D01*
X34761734Y16205044D01*
X35061928Y16107505D01*
X35371980Y16048359D01*
X35608162Y16033500D01*
X35765838Y16033500D01*
X36002020Y16048359D01*
X36312072Y16107505D01*
X36612266Y16205044D01*
X36615852Y16206731D01*
X36615856Y16206733D01*
X36894283Y16337750D01*
X36894290Y16337754D01*
X36897869Y16339438D01*
X37164375Y16508568D01*
X37285979Y16609168D01*
X37404530Y16707242D01*
X37404531Y16707243D01*
X37407582Y16709767D01*
X37426515Y16729928D01*
X37444423Y16748999D01*
X37623654Y16939860D01*
X37809184Y17195221D01*
X37825398Y17224713D01*
X37959340Y17468352D01*
X37959341Y17468353D01*
X37961247Y17471821D01*
X37965722Y17483122D01*
X38075990Y17761628D01*
X38075990Y17761629D01*
X38077443Y17765298D01*
X38155940Y18071025D01*
X38195500Y18384179D01*
X38195500Y18699821D01*
X38155940Y19012975D01*
X38077443Y19318702D01*
X38027270Y19445424D01*
X37962702Y19608505D01*
X37962700Y19608510D01*
X37961247Y19612179D01*
X37894653Y19733312D01*
X37811093Y19885307D01*
X37811091Y19885310D01*
X37809184Y19888779D01*
X37623654Y20144140D01*
X37407582Y20374233D01*
X37164375Y20575432D01*
X36897869Y20744562D01*
X36894290Y20746246D01*
X36894283Y20746250D01*
X36615856Y20877267D01*
X36615852Y20877269D01*
X36612266Y20878956D01*
X36312072Y20976495D01*
X36002020Y21035641D01*
X35765838Y21050500D01*
X35608162Y21050500D01*
X35371980Y21035641D01*
X35061928Y20976495D01*
X34761734Y20878956D01*
X34758148Y20877269D01*
X34758144Y20877267D01*
X34479717Y20746250D01*
X34479710Y20746246D01*
X34476131Y20744562D01*
X34209625Y20575432D01*
X33966418Y20374233D01*
X33750346Y20144140D01*
X33564816Y19888779D01*
X33562909Y19885310D01*
X33562907Y19885307D01*
X33479347Y19733312D01*
X33412753Y19612179D01*
X33411300Y19608510D01*
X33411298Y19608505D01*
X33346730Y19445424D01*
X33296557Y19318702D01*
X33218060Y19012975D01*
X33178500Y18699821D01*
X33178500Y18384179D01*
X31956493Y18384179D01*
X31968198Y18472489D01*
X31968198Y18472494D01*
X31968898Y18477774D01*
X31960249Y18708158D01*
X31912907Y18933791D01*
X31828224Y19148221D01*
X31708623Y19345317D01*
X31621755Y19445424D01*
X31561023Y19515412D01*
X31561021Y19515414D01*
X31557523Y19519445D01*
X31515970Y19553516D01*
X31383373Y19662240D01*
X31383367Y19662244D01*
X31379245Y19665624D01*
X31374609Y19668263D01*
X31374606Y19668265D01*
X31183529Y19777032D01*
X31178886Y19779675D01*
X30962175Y19858337D01*
X30956926Y19859286D01*
X30956923Y19859287D01*
X30739392Y19898623D01*
X30739385Y19898624D01*
X30735308Y19899361D01*
X30717586Y19900197D01*
X30712644Y19900430D01*
X30712637Y19900430D01*
X30711156Y19900500D01*
X30549110Y19900500D01*
X30482191Y19894822D01*
X30382591Y19886371D01*
X30382587Y19886370D01*
X30377280Y19885920D01*
X30372125Y19884582D01*
X30372119Y19884581D01*
X30159297Y19829343D01*
X30159293Y19829342D01*
X30154128Y19828001D01*
X30149262Y19825809D01*
X30149259Y19825808D01*
X30040980Y19777032D01*
X29943925Y19733312D01*
X29752681Y19604559D01*
X29585865Y19445424D01*
X29448246Y19260458D01*
X29343760Y19054949D01*
X29342178Y19049855D01*
X29342177Y19049852D01*
X29280115Y18849980D01*
X29275393Y18834773D01*
X29274692Y18829484D01*
X29259304Y18713377D01*
X29245102Y18606226D01*
X6752654Y18606226D01*
X6752654Y19962000D01*
X6772656Y20030121D01*
X6826312Y20076614D01*
X6878654Y20088000D01*
X23893000Y20088000D01*
X23893000Y50205472D01*
X23913002Y50273593D01*
X23966658Y50320086D01*
X24036932Y50330190D01*
X24101512Y50300696D01*
X24108095Y50294567D01*
X42813595Y31589067D01*
X42847621Y31526755D01*
X42850500Y31499972D01*
X42850500Y16677960D01*
X42849067Y16659010D01*
X42846876Y16644611D01*
X42846876Y16644605D01*
X42845776Y16637376D01*
X42846369Y16630084D01*
X42846369Y16630081D01*
X42850085Y16584401D01*
X42850500Y16574186D01*
X42850500Y16566059D01*
X42853811Y16537660D01*
X42854238Y16533340D01*
X42860191Y16460158D01*
X42862447Y16453196D01*
X42863643Y16447208D01*
X42865051Y16441251D01*
X42865899Y16433977D01*
X42868397Y16427095D01*
X42868398Y16427091D01*
X42890945Y16364977D01*
X42892355Y16360873D01*
X42914987Y16291009D01*
X42918787Y16284746D01*
X42921325Y16279204D01*
X42924067Y16273728D01*
X42926566Y16266843D01*
X42930581Y16260719D01*
X42966815Y16205452D01*
X42969130Y16201784D01*
X43007227Y16139003D01*
X43010941Y16134798D01*
X43010943Y16134795D01*
X43014667Y16130579D01*
X43014638Y16130553D01*
X43017238Y16127622D01*
X43020042Y16124268D01*
X43024054Y16118149D01*
X43080586Y16064596D01*
X43083028Y16062218D01*
X47996728Y11148518D01*
X48030754Y11086206D01*
X48025689Y11015391D01*
X47983142Y10958555D01*
X47951863Y10941441D01*
X47848295Y10902615D01*
X47731739Y10815261D01*
X47644385Y10698705D01*
X47593255Y10562316D01*
X47586500Y10500134D01*
X47586500Y8803866D01*
X47593255Y8741684D01*
X47644385Y8605295D01*
X47731739Y8488739D01*
X47848295Y8401385D01*
X47984684Y8350255D01*
X48046866Y8343500D01*
X49743134Y8343500D01*
X49805316Y8350255D01*
X49941705Y8401385D01*
X50058261Y8488739D01*
X50145615Y8605295D01*
X50196745Y8741684D01*
X50203500Y8803866D01*
X50203500Y10500134D01*
X50196745Y10562316D01*
X50145615Y10698705D01*
X50058261Y10815261D01*
X49941705Y10902615D01*
X49805316Y10953745D01*
X49746531Y10960131D01*
X49746513Y10960133D01*
X49746512Y10960133D01*
X49744278Y10960376D01*
X49744277Y10960376D01*
X49743134Y10960500D01*
X49743163Y10960769D01*
X49677745Y10983890D01*
X49634223Y11039982D01*
X49625500Y11086047D01*
X49625500Y11293216D01*
X49626933Y11312167D01*
X49629123Y11326560D01*
X49629123Y11326562D01*
X49630223Y11333792D01*
X49625915Y11386759D01*
X49625500Y11396973D01*
X49625500Y11405109D01*
X49622190Y11433500D01*
X49621757Y11437875D01*
X49616403Y11503712D01*
X49616402Y11503715D01*
X49615809Y11511011D01*
X49613553Y11517975D01*
X49612355Y11523970D01*
X49610949Y11529920D01*
X49610101Y11537191D01*
X49585057Y11606186D01*
X49583634Y11610332D01*
X49563269Y11673196D01*
X49563268Y11673198D01*
X49561013Y11680159D01*
X49557217Y11686414D01*
X49554682Y11691951D01*
X49551932Y11697442D01*
X49549434Y11704325D01*
X49509185Y11765716D01*
X49506870Y11769384D01*
X49468773Y11832165D01*
X49465057Y11836372D01*
X49465054Y11836376D01*
X49461332Y11840589D01*
X49461362Y11840615D01*
X49458764Y11843543D01*
X49455960Y11846897D01*
X49451946Y11853019D01*
X49395394Y11906591D01*
X49392953Y11908968D01*
X47839921Y13462000D01*
X51533526Y13462000D01*
X51553391Y13209597D01*
X51554545Y13204790D01*
X51554546Y13204784D01*
X51587809Y13066233D01*
X51612495Y12963409D01*
X51709384Y12729498D01*
X51841672Y12513624D01*
X52006102Y12321102D01*
X52198624Y12156672D01*
X52414498Y12024384D01*
X52419068Y12022491D01*
X52419072Y12022489D01*
X52643836Y11929389D01*
X52648409Y11927495D01*
X52725580Y11908968D01*
X52889784Y11869546D01*
X52889790Y11869545D01*
X52894597Y11868391D01*
X53147000Y11848526D01*
X53399403Y11868391D01*
X53404210Y11869545D01*
X53404216Y11869546D01*
X53487424Y11889523D01*
X53542769Y11902810D01*
X53613675Y11899263D01*
X53661276Y11869386D01*
X55265620Y10265042D01*
X55299646Y10202730D01*
X55294581Y10131915D01*
X55290720Y10122698D01*
X55283042Y10106232D01*
X55280716Y10101243D01*
X55221457Y9880087D01*
X55201502Y9652000D01*
X55221457Y9423913D01*
X55280716Y9202757D01*
X55283039Y9197776D01*
X55283039Y9197775D01*
X55375151Y9000238D01*
X55375154Y9000233D01*
X55377477Y8995251D01*
X55508802Y8807700D01*
X55670700Y8645802D01*
X55675208Y8642645D01*
X55675211Y8642643D01*
X55716542Y8613703D01*
X55858251Y8514477D01*
X55863233Y8512154D01*
X55863238Y8512151D01*
X56060775Y8420039D01*
X56065757Y8417716D01*
X56071065Y8416294D01*
X56071067Y8416293D01*
X56281598Y8359881D01*
X56281600Y8359881D01*
X56286913Y8358457D01*
X56515000Y8338502D01*
X56743087Y8358457D01*
X56748400Y8359881D01*
X56748402Y8359881D01*
X56958933Y8416293D01*
X56958935Y8416294D01*
X56964243Y8417716D01*
X56969225Y8420039D01*
X57166762Y8512151D01*
X57166767Y8512154D01*
X57171749Y8514477D01*
X57313458Y8613703D01*
X57354789Y8642643D01*
X57354792Y8642645D01*
X57359300Y8645802D01*
X57517364Y8803866D01*
X67398500Y8803866D01*
X67405255Y8741684D01*
X67456385Y8605295D01*
X67543739Y8488739D01*
X67660295Y8401385D01*
X67796684Y8350255D01*
X67858866Y8343500D01*
X69555134Y8343500D01*
X69617316Y8350255D01*
X69753705Y8401385D01*
X69870261Y8488739D01*
X69957615Y8605295D01*
X70008745Y8741684D01*
X70015500Y8803866D01*
X70015500Y10500134D01*
X70008745Y10562316D01*
X69957615Y10698705D01*
X69870261Y10815261D01*
X69753705Y10902615D01*
X69617316Y10953745D01*
X69555134Y10960500D01*
X67858866Y10960500D01*
X67796684Y10953745D01*
X67660295Y10902615D01*
X67543739Y10815261D01*
X67456385Y10698705D01*
X67405255Y10562316D01*
X67398500Y10500134D01*
X67398500Y8803866D01*
X57517364Y8803866D01*
X57521198Y8807700D01*
X57652523Y8995251D01*
X57654846Y9000233D01*
X57654849Y9000238D01*
X57746961Y9197775D01*
X57746961Y9197776D01*
X57749284Y9202757D01*
X57808543Y9423913D01*
X57828498Y9652000D01*
X57808543Y9880087D01*
X57749284Y10101243D01*
X57746958Y10106232D01*
X57654849Y10303762D01*
X57654846Y10303767D01*
X57652523Y10308749D01*
X57521198Y10496300D01*
X57359300Y10658198D01*
X57354792Y10661355D01*
X57354789Y10661357D01*
X57276611Y10716098D01*
X57171749Y10789523D01*
X57166767Y10791846D01*
X57166762Y10791849D01*
X56969225Y10883961D01*
X56969224Y10883961D01*
X56964243Y10886284D01*
X56958935Y10887706D01*
X56958933Y10887707D01*
X56850431Y10916780D01*
X56773930Y10937279D01*
X56717447Y10969890D01*
X54739614Y12947724D01*
X54705588Y13010036D01*
X54706190Y13066233D01*
X54739454Y13204784D01*
X54739455Y13204790D01*
X54740609Y13209597D01*
X54760474Y13462000D01*
X71533526Y13462000D01*
X71553391Y13209597D01*
X71554545Y13204790D01*
X71554546Y13204784D01*
X71587809Y13066233D01*
X71612495Y12963409D01*
X71709384Y12729498D01*
X71841672Y12513624D01*
X72006102Y12321102D01*
X72198624Y12156672D01*
X72414498Y12024384D01*
X72419068Y12022491D01*
X72419072Y12022489D01*
X72643836Y11929389D01*
X72648409Y11927495D01*
X72725580Y11908968D01*
X72889784Y11869546D01*
X72889790Y11869545D01*
X72894597Y11868391D01*
X73147000Y11848526D01*
X73399403Y11868391D01*
X73404210Y11869545D01*
X73404216Y11869546D01*
X73487424Y11889523D01*
X73542769Y11902810D01*
X73613675Y11899263D01*
X73661276Y11869386D01*
X75137407Y10393255D01*
X75171433Y10330943D01*
X75166368Y10260128D01*
X75162512Y10250922D01*
X75092716Y10101243D01*
X75033457Y9880087D01*
X75013502Y9652000D01*
X75033457Y9423913D01*
X75092716Y9202757D01*
X75095039Y9197776D01*
X75095039Y9197775D01*
X75187151Y9000238D01*
X75187154Y9000233D01*
X75189477Y8995251D01*
X75320802Y8807700D01*
X75482700Y8645802D01*
X75487208Y8642645D01*
X75487211Y8642643D01*
X75528542Y8613703D01*
X75670251Y8514477D01*
X75675233Y8512154D01*
X75675238Y8512151D01*
X75872775Y8420039D01*
X75877757Y8417716D01*
X75883065Y8416294D01*
X75883067Y8416293D01*
X76093598Y8359881D01*
X76093600Y8359881D01*
X76098913Y8358457D01*
X76327000Y8338502D01*
X76555087Y8358457D01*
X76560400Y8359881D01*
X76560402Y8359881D01*
X76770933Y8416293D01*
X76770935Y8416294D01*
X76776243Y8417716D01*
X76781225Y8420039D01*
X76978762Y8512151D01*
X76978767Y8512154D01*
X76983749Y8514477D01*
X77125458Y8613703D01*
X77166789Y8642643D01*
X77166792Y8642645D01*
X77171300Y8645802D01*
X77329364Y8803866D01*
X87464500Y8803866D01*
X87471255Y8741684D01*
X87522385Y8605295D01*
X87609739Y8488739D01*
X87726295Y8401385D01*
X87862684Y8350255D01*
X87924866Y8343500D01*
X89621134Y8343500D01*
X89683316Y8350255D01*
X89819705Y8401385D01*
X89936261Y8488739D01*
X90023615Y8605295D01*
X90074745Y8741684D01*
X90081500Y8803866D01*
X90081500Y10500134D01*
X90074745Y10562316D01*
X90023615Y10698705D01*
X89936261Y10815261D01*
X89819705Y10902615D01*
X89683316Y10953745D01*
X89621134Y10960500D01*
X87924866Y10960500D01*
X87862684Y10953745D01*
X87726295Y10902615D01*
X87609739Y10815261D01*
X87522385Y10698705D01*
X87471255Y10562316D01*
X87464500Y10500134D01*
X87464500Y8803866D01*
X77329364Y8803866D01*
X77333198Y8807700D01*
X77464523Y8995251D01*
X77466846Y9000233D01*
X77466849Y9000238D01*
X77558961Y9197775D01*
X77558961Y9197776D01*
X77561284Y9202757D01*
X77620543Y9423913D01*
X77640498Y9652000D01*
X77620543Y9880087D01*
X77561284Y10101243D01*
X77558958Y10106232D01*
X77466849Y10303762D01*
X77466846Y10303767D01*
X77464523Y10308749D01*
X77333198Y10496300D01*
X77171300Y10658198D01*
X77166792Y10661355D01*
X77166789Y10661357D01*
X77088611Y10716098D01*
X76983749Y10789523D01*
X76978767Y10791846D01*
X76978762Y10791849D01*
X76842863Y10855219D01*
X76807018Y10880319D01*
X74739614Y12947724D01*
X74705588Y13010036D01*
X74706190Y13066233D01*
X74739454Y13204784D01*
X74739455Y13204790D01*
X74740609Y13209597D01*
X74760474Y13462000D01*
X91533526Y13462000D01*
X91553391Y13209597D01*
X91554545Y13204790D01*
X91554546Y13204784D01*
X91587809Y13066233D01*
X91612495Y12963409D01*
X91709384Y12729498D01*
X91841672Y12513624D01*
X92006102Y12321102D01*
X92198624Y12156672D01*
X92414498Y12024384D01*
X92419068Y12022491D01*
X92419072Y12022489D01*
X92643836Y11929389D01*
X92648409Y11927495D01*
X92725580Y11908968D01*
X92889784Y11869546D01*
X92889790Y11869545D01*
X92894597Y11868391D01*
X93147000Y11848526D01*
X93399403Y11868391D01*
X93404210Y11869545D01*
X93404216Y11869546D01*
X93487424Y11889523D01*
X93542769Y11902810D01*
X93613675Y11899263D01*
X93661276Y11869386D01*
X95182418Y10348244D01*
X95216444Y10285932D01*
X95211379Y10215117D01*
X95207523Y10205911D01*
X95158716Y10101243D01*
X95099457Y9880087D01*
X95079502Y9652000D01*
X95099457Y9423913D01*
X95158716Y9202757D01*
X95161039Y9197776D01*
X95161039Y9197775D01*
X95253151Y9000238D01*
X95253154Y9000233D01*
X95255477Y8995251D01*
X95386802Y8807700D01*
X95548700Y8645802D01*
X95553208Y8642645D01*
X95553211Y8642643D01*
X95594542Y8613703D01*
X95736251Y8514477D01*
X95741233Y8512154D01*
X95741238Y8512151D01*
X95938775Y8420039D01*
X95943757Y8417716D01*
X95949065Y8416294D01*
X95949067Y8416293D01*
X96159598Y8359881D01*
X96159600Y8359881D01*
X96164913Y8358457D01*
X96393000Y8338502D01*
X96621087Y8358457D01*
X96626400Y8359881D01*
X96626402Y8359881D01*
X96836933Y8416293D01*
X96836935Y8416294D01*
X96842243Y8417716D01*
X96847225Y8420039D01*
X97044762Y8512151D01*
X97044767Y8512154D01*
X97049749Y8514477D01*
X97191458Y8613703D01*
X97232789Y8642643D01*
X97232792Y8642645D01*
X97237300Y8645802D01*
X97395364Y8803866D01*
X107530500Y8803866D01*
X107537255Y8741684D01*
X107588385Y8605295D01*
X107675739Y8488739D01*
X107792295Y8401385D01*
X107928684Y8350255D01*
X107990866Y8343500D01*
X109687134Y8343500D01*
X109749316Y8350255D01*
X109885705Y8401385D01*
X110002261Y8488739D01*
X110089615Y8605295D01*
X110140745Y8741684D01*
X110147500Y8803866D01*
X110147500Y10500134D01*
X110140745Y10562316D01*
X110089615Y10698705D01*
X110002261Y10815261D01*
X109885705Y10902615D01*
X109749316Y10953745D01*
X109687134Y10960500D01*
X107990866Y10960500D01*
X107928684Y10953745D01*
X107792295Y10902615D01*
X107675739Y10815261D01*
X107588385Y10698705D01*
X107537255Y10562316D01*
X107530500Y10500134D01*
X107530500Y8803866D01*
X97395364Y8803866D01*
X97399198Y8807700D01*
X97530523Y8995251D01*
X97532846Y9000233D01*
X97532849Y9000238D01*
X97624961Y9197775D01*
X97624961Y9197776D01*
X97627284Y9202757D01*
X97686543Y9423913D01*
X97706498Y9652000D01*
X97686543Y9880087D01*
X97627284Y10101243D01*
X97624958Y10106232D01*
X97532849Y10303762D01*
X97532846Y10303767D01*
X97530523Y10308749D01*
X97399198Y10496300D01*
X97237300Y10658198D01*
X97232792Y10661355D01*
X97232789Y10661357D01*
X97154611Y10716098D01*
X97049749Y10789523D01*
X97044767Y10791846D01*
X97044762Y10791849D01*
X96847223Y10883962D01*
X96847221Y10883963D01*
X96842243Y10886284D01*
X96836935Y10887706D01*
X96836933Y10887707D01*
X96818586Y10892623D01*
X96762103Y10925234D01*
X94739614Y12947724D01*
X94705588Y13010036D01*
X94706190Y13066233D01*
X94739454Y13204784D01*
X94739455Y13204790D01*
X94740609Y13209597D01*
X94760474Y13462000D01*
X111533526Y13462000D01*
X111553391Y13209597D01*
X111554545Y13204790D01*
X111554546Y13204784D01*
X111587809Y13066233D01*
X111612495Y12963409D01*
X111709384Y12729498D01*
X111841672Y12513624D01*
X112006102Y12321102D01*
X112198624Y12156672D01*
X112414498Y12024384D01*
X112419068Y12022491D01*
X112419072Y12022489D01*
X112643836Y11929389D01*
X112648409Y11927495D01*
X112725580Y11908968D01*
X112889784Y11869546D01*
X112889790Y11869545D01*
X112894597Y11868391D01*
X113147000Y11848526D01*
X113399403Y11868391D01*
X113404210Y11869545D01*
X113404216Y11869546D01*
X113487424Y11889523D01*
X113542769Y11902810D01*
X113613675Y11899263D01*
X113661276Y11869386D01*
X115227429Y10303233D01*
X115261455Y10240921D01*
X115256390Y10170106D01*
X115252529Y10160889D01*
X115224716Y10101243D01*
X115165457Y9880087D01*
X115145502Y9652000D01*
X115165457Y9423913D01*
X115224716Y9202757D01*
X115227039Y9197776D01*
X115227039Y9197775D01*
X115319151Y9000238D01*
X115319154Y9000233D01*
X115321477Y8995251D01*
X115452802Y8807700D01*
X115614700Y8645802D01*
X115619208Y8642645D01*
X115619211Y8642643D01*
X115660542Y8613703D01*
X115802251Y8514477D01*
X115807233Y8512154D01*
X115807238Y8512151D01*
X116004775Y8420039D01*
X116009757Y8417716D01*
X116015065Y8416294D01*
X116015067Y8416293D01*
X116225598Y8359881D01*
X116225600Y8359881D01*
X116230913Y8358457D01*
X116459000Y8338502D01*
X116687087Y8358457D01*
X116692400Y8359881D01*
X116692402Y8359881D01*
X116902933Y8416293D01*
X116902935Y8416294D01*
X116908243Y8417716D01*
X116913225Y8420039D01*
X117110762Y8512151D01*
X117110767Y8512154D01*
X117115749Y8514477D01*
X117257458Y8613703D01*
X117298789Y8642643D01*
X117298792Y8642645D01*
X117303300Y8645802D01*
X117465198Y8807700D01*
X117596523Y8995251D01*
X117598846Y9000233D01*
X117598849Y9000238D01*
X117690961Y9197775D01*
X117690961Y9197776D01*
X117693284Y9202757D01*
X117752543Y9423913D01*
X117772498Y9652000D01*
X117752543Y9880087D01*
X117693284Y10101243D01*
X117690958Y10106232D01*
X117598849Y10303762D01*
X117598846Y10303767D01*
X117596523Y10308749D01*
X117465198Y10496300D01*
X117303300Y10658198D01*
X117298792Y10661355D01*
X117298789Y10661357D01*
X117220611Y10716098D01*
X117115749Y10789523D01*
X117110767Y10791846D01*
X117110762Y10791849D01*
X116913225Y10883961D01*
X116913224Y10883961D01*
X116908243Y10886284D01*
X116902935Y10887706D01*
X116902933Y10887707D01*
X116844460Y10903375D01*
X116794429Y10916780D01*
X116737946Y10949392D01*
X114739614Y12947724D01*
X114705588Y13010036D01*
X114706190Y13066233D01*
X114739454Y13204784D01*
X114739455Y13204790D01*
X114740609Y13209597D01*
X114760474Y13462000D01*
X114740609Y13714403D01*
X114725870Y13775799D01*
X114685666Y13943260D01*
X114681505Y13960591D01*
X114679611Y13965164D01*
X114586511Y14189928D01*
X114586509Y14189932D01*
X114584616Y14194502D01*
X114452328Y14410376D01*
X114287898Y14602898D01*
X114095376Y14767328D01*
X113879502Y14899616D01*
X113874932Y14901509D01*
X113874928Y14901511D01*
X113650164Y14994611D01*
X113650162Y14994612D01*
X113645591Y14996505D01*
X113510347Y15028974D01*
X113404216Y15054454D01*
X113404210Y15054455D01*
X113399403Y15055609D01*
X113147000Y15075474D01*
X112894597Y15055609D01*
X112889790Y15054455D01*
X112889784Y15054454D01*
X112783653Y15028974D01*
X112648409Y14996505D01*
X112643838Y14994612D01*
X112643836Y14994611D01*
X112419072Y14901511D01*
X112419068Y14901509D01*
X112414498Y14899616D01*
X112198624Y14767328D01*
X112006102Y14602898D01*
X111841672Y14410376D01*
X111709384Y14194502D01*
X111707491Y14189932D01*
X111707489Y14189928D01*
X111614389Y13965164D01*
X111612495Y13960591D01*
X111608334Y13943260D01*
X111568131Y13775799D01*
X111553391Y13714403D01*
X111533526Y13462000D01*
X94760474Y13462000D01*
X94740609Y13714403D01*
X94725870Y13775799D01*
X94685666Y13943260D01*
X94681505Y13960591D01*
X94679611Y13965164D01*
X94586511Y14189928D01*
X94586509Y14189932D01*
X94584616Y14194502D01*
X94452328Y14410376D01*
X94287898Y14602898D01*
X94095376Y14767328D01*
X93879502Y14899616D01*
X93874932Y14901509D01*
X93874928Y14901511D01*
X93650164Y14994611D01*
X93650162Y14994612D01*
X93645591Y14996505D01*
X93510347Y15028974D01*
X93404216Y15054454D01*
X93404210Y15054455D01*
X93399403Y15055609D01*
X93147000Y15075474D01*
X92894597Y15055609D01*
X92889790Y15054455D01*
X92889784Y15054454D01*
X92783653Y15028974D01*
X92648409Y14996505D01*
X92643838Y14994612D01*
X92643836Y14994611D01*
X92419072Y14901511D01*
X92419068Y14901509D01*
X92414498Y14899616D01*
X92198624Y14767328D01*
X92006102Y14602898D01*
X91841672Y14410376D01*
X91709384Y14194502D01*
X91707491Y14189932D01*
X91707489Y14189928D01*
X91614389Y13965164D01*
X91612495Y13960591D01*
X91608334Y13943260D01*
X91568131Y13775799D01*
X91553391Y13714403D01*
X91533526Y13462000D01*
X74760474Y13462000D01*
X74740609Y13714403D01*
X74725870Y13775799D01*
X74685666Y13943260D01*
X74681505Y13960591D01*
X74679611Y13965164D01*
X74586511Y14189928D01*
X74586509Y14189932D01*
X74584616Y14194502D01*
X74452328Y14410376D01*
X74287898Y14602898D01*
X74095376Y14767328D01*
X73879502Y14899616D01*
X73874932Y14901509D01*
X73874928Y14901511D01*
X73650164Y14994611D01*
X73650162Y14994612D01*
X73645591Y14996505D01*
X73510347Y15028974D01*
X73404216Y15054454D01*
X73404210Y15054455D01*
X73399403Y15055609D01*
X73147000Y15075474D01*
X72894597Y15055609D01*
X72889790Y15054455D01*
X72889784Y15054454D01*
X72783653Y15028974D01*
X72648409Y14996505D01*
X72643838Y14994612D01*
X72643836Y14994611D01*
X72419072Y14901511D01*
X72419068Y14901509D01*
X72414498Y14899616D01*
X72198624Y14767328D01*
X72006102Y14602898D01*
X71841672Y14410376D01*
X71709384Y14194502D01*
X71707491Y14189932D01*
X71707489Y14189928D01*
X71614389Y13965164D01*
X71612495Y13960591D01*
X71608334Y13943260D01*
X71568131Y13775799D01*
X71553391Y13714403D01*
X71533526Y13462000D01*
X54760474Y13462000D01*
X54740609Y13714403D01*
X54725870Y13775799D01*
X54685666Y13943260D01*
X54681505Y13960591D01*
X54679611Y13965164D01*
X54586511Y14189928D01*
X54586509Y14189932D01*
X54584616Y14194502D01*
X54452328Y14410376D01*
X54287898Y14602898D01*
X54095376Y14767328D01*
X53879502Y14899616D01*
X53874932Y14901509D01*
X53874928Y14901511D01*
X53650164Y14994611D01*
X53650162Y14994612D01*
X53645591Y14996505D01*
X53510347Y15028974D01*
X53404216Y15054454D01*
X53404210Y15054455D01*
X53399403Y15055609D01*
X53147000Y15075474D01*
X52894597Y15055609D01*
X52889790Y15054455D01*
X52889784Y15054454D01*
X52783653Y15028974D01*
X52648409Y14996505D01*
X52643838Y14994612D01*
X52643836Y14994611D01*
X52419072Y14901511D01*
X52419068Y14901509D01*
X52414498Y14899616D01*
X52198624Y14767328D01*
X52006102Y14602898D01*
X51841672Y14410376D01*
X51709384Y14194502D01*
X51707491Y14189932D01*
X51707489Y14189928D01*
X51614389Y13965164D01*
X51612495Y13960591D01*
X51608334Y13943260D01*
X51568131Y13775799D01*
X51553391Y13714403D01*
X51533526Y13462000D01*
X47839921Y13462000D01*
X45299922Y16002000D01*
X57883526Y16002000D01*
X57903391Y15749597D01*
X57904545Y15744790D01*
X57904546Y15744784D01*
X57934842Y15618591D01*
X57962495Y15503409D01*
X57964388Y15498838D01*
X57964389Y15498836D01*
X58038810Y15319169D01*
X58059384Y15269498D01*
X58191672Y15053624D01*
X58356102Y14861102D01*
X58548624Y14696672D01*
X58764498Y14564384D01*
X58769068Y14562491D01*
X58769072Y14562489D01*
X58951679Y14486851D01*
X58998409Y14467495D01*
X59083032Y14447179D01*
X59239784Y14409546D01*
X59239790Y14409545D01*
X59244597Y14408391D01*
X59497000Y14388526D01*
X59749403Y14408391D01*
X59754210Y14409545D01*
X59754216Y14409546D01*
X59910968Y14447179D01*
X59995591Y14467495D01*
X60042321Y14486851D01*
X60224928Y14562489D01*
X60224932Y14562491D01*
X60229502Y14564384D01*
X60445376Y14696672D01*
X60637898Y14861102D01*
X60802328Y15053624D01*
X60934616Y15269498D01*
X60955191Y15319169D01*
X61029611Y15498836D01*
X61029612Y15498838D01*
X61031505Y15503409D01*
X61059158Y15618591D01*
X61089454Y15744784D01*
X61089455Y15744790D01*
X61090609Y15749597D01*
X61110474Y16002000D01*
X61090609Y16254403D01*
X61087623Y16266843D01*
X61032660Y16495779D01*
X61031505Y16500591D01*
X61029611Y16505164D01*
X60936511Y16729928D01*
X60936509Y16729932D01*
X60934616Y16734502D01*
X60802328Y16950376D01*
X60799121Y16954131D01*
X60799118Y16954135D01*
X60777596Y16979333D01*
X60748565Y17044122D01*
X60759170Y17114322D01*
X60806044Y17167645D01*
X60862753Y17186713D01*
X60907650Y17190522D01*
X60991409Y17197629D01*
X60991413Y17197630D01*
X60996720Y17198080D01*
X61001875Y17199418D01*
X61001881Y17199419D01*
X61214703Y17254657D01*
X61214707Y17254658D01*
X61219872Y17255999D01*
X61224738Y17258191D01*
X61224741Y17258192D01*
X61425202Y17348493D01*
X61430075Y17350688D01*
X61621319Y17479441D01*
X61634272Y17491797D01*
X61784278Y17634897D01*
X61788135Y17638576D01*
X61925754Y17823542D01*
X62030240Y18029051D01*
X62043274Y18071025D01*
X62097024Y18244129D01*
X62098607Y18249227D01*
X62099308Y18254516D01*
X62128198Y18472489D01*
X62128198Y18472494D01*
X62128898Y18477774D01*
X62124076Y18606226D01*
X69245102Y18606226D01*
X69253751Y18375842D01*
X69301093Y18150209D01*
X69385776Y17935779D01*
X69505377Y17738683D01*
X69508874Y17734653D01*
X69612984Y17614677D01*
X69656477Y17564555D01*
X69660608Y17561168D01*
X69830627Y17421760D01*
X69830633Y17421756D01*
X69834755Y17418376D01*
X69839391Y17415737D01*
X69839394Y17415735D01*
X69948422Y17353673D01*
X70035114Y17304325D01*
X70251825Y17225663D01*
X70257074Y17224714D01*
X70257077Y17224713D01*
X70474608Y17185377D01*
X70474615Y17185376D01*
X70478692Y17184639D01*
X70496414Y17183803D01*
X70501356Y17183570D01*
X70501363Y17183570D01*
X70502844Y17183500D01*
X70664890Y17183500D01*
X70731809Y17189178D01*
X70831409Y17197629D01*
X70831413Y17197630D01*
X70836720Y17198080D01*
X70841875Y17199418D01*
X70841881Y17199419D01*
X71054703Y17254657D01*
X71054707Y17254658D01*
X71059872Y17255999D01*
X71064738Y17258191D01*
X71064741Y17258192D01*
X71265202Y17348493D01*
X71270075Y17350688D01*
X71461319Y17479441D01*
X71474272Y17491797D01*
X71624278Y17634897D01*
X71628135Y17638576D01*
X71765754Y17823542D01*
X71870240Y18029051D01*
X71883274Y18071025D01*
X71937024Y18244129D01*
X71938607Y18249227D01*
X71939308Y18254516D01*
X71956493Y18384179D01*
X73178500Y18384179D01*
X73218060Y18071025D01*
X73296557Y17765298D01*
X73298010Y17761629D01*
X73298010Y17761628D01*
X73408279Y17483122D01*
X73412753Y17471821D01*
X73414659Y17468353D01*
X73414660Y17468352D01*
X73548603Y17224713D01*
X73564816Y17195221D01*
X73750346Y16939860D01*
X73929577Y16748999D01*
X73947486Y16729928D01*
X73966418Y16709767D01*
X73969469Y16707243D01*
X73969470Y16707242D01*
X74088022Y16609167D01*
X74209625Y16508568D01*
X74476131Y16339438D01*
X74479710Y16337754D01*
X74479717Y16337750D01*
X74758144Y16206733D01*
X74758148Y16206731D01*
X74761734Y16205044D01*
X75061928Y16107505D01*
X75371980Y16048359D01*
X75608162Y16033500D01*
X75765838Y16033500D01*
X76002020Y16048359D01*
X76312072Y16107505D01*
X76612266Y16205044D01*
X76615852Y16206731D01*
X76615856Y16206733D01*
X76894283Y16337750D01*
X76894290Y16337754D01*
X76897869Y16339438D01*
X77164375Y16508568D01*
X77285978Y16609167D01*
X77404530Y16707242D01*
X77404531Y16707243D01*
X77407582Y16709767D01*
X77426515Y16729928D01*
X77444423Y16748999D01*
X77623654Y16939860D01*
X77809184Y17195221D01*
X77825398Y17224713D01*
X77959340Y17468352D01*
X77959341Y17468353D01*
X77961247Y17471821D01*
X77965722Y17483122D01*
X78075990Y17761628D01*
X78075990Y17761629D01*
X78077443Y17765298D01*
X78155940Y18071025D01*
X78195500Y18384179D01*
X78195500Y18699821D01*
X78155940Y19012975D01*
X78077443Y19318702D01*
X78027270Y19445424D01*
X77962702Y19608505D01*
X77962700Y19608510D01*
X77961247Y19612179D01*
X77894653Y19733312D01*
X77811093Y19885307D01*
X77811091Y19885310D01*
X77809184Y19888779D01*
X77623654Y20144140D01*
X77407582Y20374233D01*
X77164375Y20575432D01*
X76897869Y20744562D01*
X76894290Y20746246D01*
X76894283Y20746250D01*
X76615856Y20877267D01*
X76615852Y20877269D01*
X76612266Y20878956D01*
X76312072Y20976495D01*
X76002020Y21035641D01*
X75765838Y21050500D01*
X75608162Y21050500D01*
X75371980Y21035641D01*
X75061928Y20976495D01*
X74761734Y20878956D01*
X74758148Y20877269D01*
X74758144Y20877267D01*
X74479717Y20746250D01*
X74479710Y20746246D01*
X74476131Y20744562D01*
X74209625Y20575432D01*
X73966418Y20374233D01*
X73750346Y20144140D01*
X73564816Y19888779D01*
X73562909Y19885310D01*
X73562907Y19885307D01*
X73479347Y19733312D01*
X73412753Y19612179D01*
X73411300Y19608510D01*
X73411298Y19608505D01*
X73346730Y19445424D01*
X73296557Y19318702D01*
X73218060Y19012975D01*
X73178500Y18699821D01*
X73178500Y18384179D01*
X71956493Y18384179D01*
X71968198Y18472489D01*
X71968198Y18472494D01*
X71968898Y18477774D01*
X71960249Y18708158D01*
X71912907Y18933791D01*
X71828224Y19148221D01*
X71708623Y19345317D01*
X71621755Y19445424D01*
X71561023Y19515412D01*
X71561021Y19515414D01*
X71557523Y19519445D01*
X71515970Y19553516D01*
X71383373Y19662240D01*
X71383367Y19662244D01*
X71379245Y19665624D01*
X71374609Y19668263D01*
X71374606Y19668265D01*
X71183529Y19777032D01*
X71178886Y19779675D01*
X70962175Y19858337D01*
X70956926Y19859286D01*
X70956923Y19859287D01*
X70739392Y19898623D01*
X70739385Y19898624D01*
X70735308Y19899361D01*
X70717586Y19900197D01*
X70712644Y19900430D01*
X70712637Y19900430D01*
X70711156Y19900500D01*
X70549110Y19900500D01*
X70482191Y19894822D01*
X70382591Y19886371D01*
X70382587Y19886370D01*
X70377280Y19885920D01*
X70372125Y19884582D01*
X70372119Y19884581D01*
X70159297Y19829343D01*
X70159293Y19829342D01*
X70154128Y19828001D01*
X70149262Y19825809D01*
X70149259Y19825808D01*
X70040980Y19777032D01*
X69943925Y19733312D01*
X69752681Y19604559D01*
X69585865Y19445424D01*
X69448246Y19260458D01*
X69343760Y19054949D01*
X69342178Y19049855D01*
X69342177Y19049852D01*
X69280115Y18849980D01*
X69275393Y18834773D01*
X69274692Y18829484D01*
X69259304Y18713377D01*
X69245102Y18606226D01*
X62124076Y18606226D01*
X62120249Y18708158D01*
X62072907Y18933791D01*
X61988224Y19148221D01*
X61868623Y19345317D01*
X61781755Y19445424D01*
X61721023Y19515412D01*
X61721021Y19515414D01*
X61717523Y19519445D01*
X61675970Y19553516D01*
X61543373Y19662240D01*
X61543367Y19662244D01*
X61539245Y19665624D01*
X61534609Y19668263D01*
X61534606Y19668265D01*
X61343529Y19777032D01*
X61338886Y19779675D01*
X61122175Y19858337D01*
X61116926Y19859286D01*
X61116923Y19859287D01*
X60899392Y19898623D01*
X60899385Y19898624D01*
X60895308Y19899361D01*
X60877586Y19900197D01*
X60872644Y19900430D01*
X60872637Y19900430D01*
X60871156Y19900500D01*
X60709110Y19900500D01*
X60642191Y19894822D01*
X60542591Y19886371D01*
X60542587Y19886370D01*
X60537280Y19885920D01*
X60417153Y19854741D01*
X60346194Y19856988D01*
X60287712Y19897242D01*
X60260278Y19962724D01*
X60259500Y19976700D01*
X60259500Y28869866D01*
X67398500Y28869866D01*
X67405255Y28807684D01*
X67456385Y28671295D01*
X67543739Y28554739D01*
X67660295Y28467385D01*
X67796684Y28416255D01*
X67858866Y28409500D01*
X69555134Y28409500D01*
X69617316Y28416255D01*
X69753705Y28467385D01*
X69870261Y28554739D01*
X69957615Y28671295D01*
X70008745Y28807684D01*
X70015500Y28869866D01*
X70015500Y30566134D01*
X70008745Y30628316D01*
X69957615Y30764705D01*
X69870261Y30881261D01*
X69753705Y30968615D01*
X69617316Y31019745D01*
X69555134Y31026500D01*
X67858866Y31026500D01*
X67796684Y31019745D01*
X67660295Y30968615D01*
X67543739Y30881261D01*
X67456385Y30764705D01*
X67405255Y30628316D01*
X67398500Y30566134D01*
X67398500Y28869866D01*
X60259500Y28869866D01*
X60259500Y33462000D01*
X71533526Y33462000D01*
X71553391Y33209597D01*
X71612495Y32963409D01*
X71709384Y32729498D01*
X71841672Y32513624D01*
X72006102Y32321102D01*
X72198624Y32156672D01*
X72414498Y32024384D01*
X72419068Y32022491D01*
X72419072Y32022489D01*
X72616017Y31940912D01*
X72648409Y31927495D01*
X72695611Y31916163D01*
X72889784Y31869546D01*
X72889790Y31869545D01*
X72894597Y31868391D01*
X73069331Y31854639D01*
X73135672Y31829353D01*
X73148540Y31818122D01*
X74990874Y29975788D01*
X75024900Y29913476D01*
X75027300Y29875711D01*
X75013502Y29718000D01*
X75033457Y29489913D01*
X75092716Y29268757D01*
X75095039Y29263776D01*
X75095039Y29263775D01*
X75187151Y29066238D01*
X75187154Y29066233D01*
X75189477Y29061251D01*
X75192634Y29056743D01*
X75305250Y28895911D01*
X75320802Y28873700D01*
X75482700Y28711802D01*
X75487208Y28708645D01*
X75487211Y28708643D01*
X75565389Y28653902D01*
X75670251Y28580477D01*
X75675233Y28578154D01*
X75675238Y28578151D01*
X75863766Y28490240D01*
X75877757Y28483716D01*
X75883065Y28482294D01*
X75883067Y28482293D01*
X76093598Y28425881D01*
X76093600Y28425881D01*
X76098913Y28424457D01*
X76327000Y28404502D01*
X76555087Y28424457D01*
X76560400Y28425881D01*
X76560402Y28425881D01*
X76770933Y28482293D01*
X76770935Y28482294D01*
X76776243Y28483716D01*
X76790234Y28490240D01*
X76978762Y28578151D01*
X76978767Y28578154D01*
X76983749Y28580477D01*
X77088611Y28653902D01*
X77166789Y28708643D01*
X77166792Y28708645D01*
X77171300Y28711802D01*
X77333198Y28873700D01*
X77348751Y28895911D01*
X77461366Y29056743D01*
X77464523Y29061251D01*
X77466846Y29066233D01*
X77466849Y29066238D01*
X77558961Y29263775D01*
X77558961Y29263776D01*
X77561284Y29268757D01*
X77620543Y29489913D01*
X77640498Y29718000D01*
X77620543Y29946087D01*
X77612585Y29975788D01*
X77562707Y30161933D01*
X77562706Y30161935D01*
X77561284Y30167243D01*
X77521484Y30252596D01*
X77466849Y30369762D01*
X77466846Y30369767D01*
X77464523Y30374749D01*
X77333198Y30562300D01*
X77171300Y30724198D01*
X77166792Y30727355D01*
X77166789Y30727357D01*
X77062084Y30800672D01*
X76983749Y30855523D01*
X76978767Y30857846D01*
X76978762Y30857849D01*
X76781225Y30949961D01*
X76781224Y30949961D01*
X76776243Y30952284D01*
X76770935Y30953706D01*
X76770933Y30953707D01*
X76560402Y31010119D01*
X76560400Y31010119D01*
X76555087Y31011543D01*
X76327000Y31031498D01*
X76321525Y31031019D01*
X76169288Y31017700D01*
X76099683Y31031689D01*
X76069211Y31054126D01*
X74582365Y32540972D01*
X74548339Y32603284D01*
X74553404Y32674099D01*
X74564025Y32695896D01*
X74584616Y32729498D01*
X74681505Y32963409D01*
X74740609Y33209597D01*
X74760474Y33462000D01*
X74740609Y33714403D01*
X74681505Y33960591D01*
X74584616Y34194502D01*
X74452328Y34410376D01*
X74287898Y34602898D01*
X74095376Y34767328D01*
X73879502Y34899616D01*
X73874932Y34901509D01*
X73874928Y34901511D01*
X73650164Y34994611D01*
X73650162Y34994612D01*
X73645591Y34996505D01*
X73560968Y35016821D01*
X73404216Y35054454D01*
X73404210Y35054455D01*
X73399403Y35055609D01*
X73147000Y35075474D01*
X72894597Y35055609D01*
X72889790Y35054455D01*
X72889784Y35054454D01*
X72733032Y35016821D01*
X72648409Y34996505D01*
X72643838Y34994612D01*
X72643836Y34994611D01*
X72419072Y34901511D01*
X72419068Y34901509D01*
X72414498Y34899616D01*
X72198624Y34767328D01*
X72006102Y34602898D01*
X71841672Y34410376D01*
X71709384Y34194502D01*
X71612495Y33960591D01*
X71553391Y33714403D01*
X71533526Y33462000D01*
X60259500Y33462000D01*
X60259500Y34512203D01*
X60279502Y34580324D01*
X60319665Y34619636D01*
X60360301Y34644538D01*
X60445376Y34696672D01*
X60637898Y34861102D01*
X60802328Y35053624D01*
X60934616Y35269498D01*
X61031505Y35503409D01*
X61090609Y35749597D01*
X61110474Y36002000D01*
X61090609Y36254403D01*
X61070600Y36337750D01*
X61032660Y36495779D01*
X61031505Y36500591D01*
X61029611Y36505164D01*
X60936511Y36729928D01*
X60936509Y36729932D01*
X60934616Y36734502D01*
X60802328Y36950376D01*
X60799121Y36954131D01*
X60799118Y36954135D01*
X60777596Y36979333D01*
X60748565Y37044122D01*
X60759170Y37114322D01*
X60806044Y37167645D01*
X60862753Y37186713D01*
X60907650Y37190522D01*
X60991409Y37197629D01*
X60991413Y37197630D01*
X60996720Y37198080D01*
X61001875Y37199418D01*
X61001881Y37199419D01*
X61214703Y37254657D01*
X61214707Y37254658D01*
X61219872Y37255999D01*
X61224738Y37258191D01*
X61224741Y37258192D01*
X61425202Y37348493D01*
X61430075Y37350688D01*
X61621319Y37479441D01*
X61634272Y37491797D01*
X61784278Y37634897D01*
X61788135Y37638576D01*
X61925754Y37823542D01*
X62030240Y38029051D01*
X62043274Y38071025D01*
X62097024Y38244129D01*
X62098607Y38249227D01*
X62099308Y38254516D01*
X62128198Y38472489D01*
X62128198Y38472494D01*
X62128898Y38477774D01*
X62124076Y38606226D01*
X69245102Y38606226D01*
X69253751Y38375842D01*
X69301093Y38150209D01*
X69385776Y37935779D01*
X69505377Y37738683D01*
X69508874Y37734653D01*
X69612984Y37614677D01*
X69656477Y37564555D01*
X69660608Y37561168D01*
X69830627Y37421760D01*
X69830633Y37421756D01*
X69834755Y37418376D01*
X69839391Y37415737D01*
X69839394Y37415735D01*
X69948422Y37353673D01*
X70035114Y37304325D01*
X70251825Y37225663D01*
X70257074Y37224714D01*
X70257077Y37224713D01*
X70474608Y37185377D01*
X70474615Y37185376D01*
X70478692Y37184639D01*
X70496414Y37183803D01*
X70501356Y37183570D01*
X70501363Y37183570D01*
X70502844Y37183500D01*
X70664890Y37183500D01*
X70731809Y37189178D01*
X70831409Y37197629D01*
X70831413Y37197630D01*
X70836720Y37198080D01*
X70841875Y37199418D01*
X70841881Y37199419D01*
X71054703Y37254657D01*
X71054707Y37254658D01*
X71059872Y37255999D01*
X71064738Y37258191D01*
X71064741Y37258192D01*
X71265202Y37348493D01*
X71270075Y37350688D01*
X71461319Y37479441D01*
X71474272Y37491797D01*
X71624278Y37634897D01*
X71628135Y37638576D01*
X71765754Y37823542D01*
X71870240Y38029051D01*
X71883274Y38071025D01*
X71937024Y38244129D01*
X71938607Y38249227D01*
X71939308Y38254516D01*
X71956493Y38384179D01*
X73178500Y38384179D01*
X73218060Y38071025D01*
X73296557Y37765298D01*
X73298010Y37761629D01*
X73298010Y37761628D01*
X73408279Y37483122D01*
X73412753Y37471821D01*
X73414659Y37468353D01*
X73414660Y37468352D01*
X73548603Y37224713D01*
X73564816Y37195221D01*
X73750346Y36939860D01*
X73929577Y36748999D01*
X73947486Y36729928D01*
X73966418Y36709767D01*
X74209625Y36508568D01*
X74476131Y36339438D01*
X74479710Y36337754D01*
X74479717Y36337750D01*
X74758144Y36206733D01*
X74758148Y36206731D01*
X74761734Y36205044D01*
X75061928Y36107505D01*
X75371980Y36048359D01*
X75608162Y36033500D01*
X75765838Y36033500D01*
X76002020Y36048359D01*
X76312072Y36107505D01*
X76612266Y36205044D01*
X76615852Y36206731D01*
X76615856Y36206733D01*
X76894283Y36337750D01*
X76894290Y36337754D01*
X76897869Y36339438D01*
X77164375Y36508568D01*
X77407582Y36709767D01*
X77426515Y36729928D01*
X77444423Y36748999D01*
X77623654Y36939860D01*
X77809184Y37195221D01*
X77825398Y37224713D01*
X77959340Y37468352D01*
X77959341Y37468353D01*
X77961247Y37471821D01*
X77965722Y37483122D01*
X78075990Y37761628D01*
X78075990Y37761629D01*
X78077443Y37765298D01*
X78155940Y38071025D01*
X78195500Y38384179D01*
X78195500Y38699821D01*
X78155940Y39012975D01*
X78077443Y39318702D01*
X78027270Y39445424D01*
X77962702Y39608505D01*
X77962700Y39608510D01*
X77961247Y39612179D01*
X77894653Y39733312D01*
X77811093Y39885307D01*
X77811091Y39885310D01*
X77809184Y39888779D01*
X77623654Y40144140D01*
X77407582Y40374233D01*
X77164375Y40575432D01*
X76897869Y40744562D01*
X76894290Y40746246D01*
X76894283Y40746250D01*
X76615856Y40877267D01*
X76615852Y40877269D01*
X76612266Y40878956D01*
X76312072Y40976495D01*
X76002020Y41035641D01*
X75765838Y41050500D01*
X75608162Y41050500D01*
X75371980Y41035641D01*
X75061928Y40976495D01*
X74761734Y40878956D01*
X74758148Y40877269D01*
X74758144Y40877267D01*
X74479717Y40746250D01*
X74479710Y40746246D01*
X74476131Y40744562D01*
X74209625Y40575432D01*
X73966418Y40374233D01*
X73750346Y40144140D01*
X73564816Y39888779D01*
X73562909Y39885310D01*
X73562907Y39885307D01*
X73479347Y39733312D01*
X73412753Y39612179D01*
X73411300Y39608510D01*
X73411298Y39608505D01*
X73346730Y39445424D01*
X73296557Y39318702D01*
X73218060Y39012975D01*
X73178500Y38699821D01*
X73178500Y38384179D01*
X71956493Y38384179D01*
X71968198Y38472489D01*
X71968198Y38472494D01*
X71968898Y38477774D01*
X71960249Y38708158D01*
X71912907Y38933791D01*
X71828224Y39148221D01*
X71708623Y39345317D01*
X71621755Y39445424D01*
X71561023Y39515412D01*
X71561021Y39515414D01*
X71557523Y39519445D01*
X71515970Y39553516D01*
X71383373Y39662240D01*
X71383367Y39662244D01*
X71379245Y39665624D01*
X71374609Y39668263D01*
X71374606Y39668265D01*
X71183529Y39777032D01*
X71178886Y39779675D01*
X70962175Y39858337D01*
X70956926Y39859286D01*
X70956923Y39859287D01*
X70739392Y39898623D01*
X70739385Y39898624D01*
X70735308Y39899361D01*
X70717586Y39900197D01*
X70712644Y39900430D01*
X70712637Y39900430D01*
X70711156Y39900500D01*
X70549110Y39900500D01*
X70482191Y39894822D01*
X70382591Y39886371D01*
X70382587Y39886370D01*
X70377280Y39885920D01*
X70372125Y39884582D01*
X70372119Y39884581D01*
X70159297Y39829343D01*
X70159293Y39829342D01*
X70154128Y39828001D01*
X70149262Y39825809D01*
X70149259Y39825808D01*
X70040980Y39777032D01*
X69943925Y39733312D01*
X69752681Y39604559D01*
X69585865Y39445424D01*
X69448246Y39260458D01*
X69343760Y39054949D01*
X69342178Y39049855D01*
X69342177Y39049852D01*
X69280115Y38849980D01*
X69275393Y38834773D01*
X69274692Y38829484D01*
X69259304Y38713377D01*
X69245102Y38606226D01*
X62124076Y38606226D01*
X62120249Y38708158D01*
X62072907Y38933791D01*
X61988224Y39148221D01*
X61868623Y39345317D01*
X61781755Y39445424D01*
X61721023Y39515412D01*
X61721021Y39515414D01*
X61717523Y39519445D01*
X61675970Y39553516D01*
X61543373Y39662240D01*
X61543367Y39662244D01*
X61539245Y39665624D01*
X61534609Y39668263D01*
X61534606Y39668265D01*
X61343529Y39777032D01*
X61338886Y39779675D01*
X61122175Y39858337D01*
X61116926Y39859286D01*
X61116923Y39859287D01*
X60899392Y39898623D01*
X60899385Y39898624D01*
X60895308Y39899361D01*
X60877586Y39900197D01*
X60872644Y39900430D01*
X60872637Y39900430D01*
X60871156Y39900500D01*
X60709110Y39900500D01*
X60642191Y39894822D01*
X60542591Y39886371D01*
X60542587Y39886370D01*
X60537280Y39885920D01*
X60417153Y39854741D01*
X60346194Y39856988D01*
X60287712Y39897242D01*
X60260278Y39962724D01*
X60259500Y39976700D01*
X60259500Y42883972D01*
X60279502Y42952093D01*
X60296405Y42973067D01*
X61891933Y44568595D01*
X61954245Y44602621D01*
X61981028Y44605500D01*
X76295624Y44605500D01*
X76314574Y44604067D01*
X76328973Y44601876D01*
X76328979Y44601876D01*
X76336208Y44600776D01*
X76343500Y44601369D01*
X76343503Y44601369D01*
X76389183Y44605085D01*
X76399398Y44605500D01*
X76407525Y44605500D01*
X76411161Y44605924D01*
X76411163Y44605924D01*
X76414615Y44606327D01*
X76435924Y44608811D01*
X76440244Y44609238D01*
X76513426Y44615191D01*
X76520388Y44617447D01*
X76526376Y44618643D01*
X76532333Y44620051D01*
X76539607Y44620899D01*
X76546489Y44623397D01*
X76546493Y44623398D01*
X76608607Y44645945D01*
X76612711Y44647355D01*
X76682575Y44669987D01*
X76688838Y44673787D01*
X76694380Y44676325D01*
X76699856Y44679067D01*
X76706741Y44681566D01*
X76768132Y44721815D01*
X76771800Y44724130D01*
X76834581Y44762227D01*
X76838786Y44765941D01*
X76838789Y44765943D01*
X76843005Y44769667D01*
X76843031Y44769638D01*
X76845962Y44772238D01*
X76849316Y44775042D01*
X76855435Y44779054D01*
X76908989Y44835587D01*
X76911366Y44838028D01*
X78519405Y46446067D01*
X78581717Y46480093D01*
X78652532Y46475028D01*
X78709368Y46432481D01*
X78734179Y46365961D01*
X78734500Y46356972D01*
X78734500Y37491797D01*
X78714498Y37423676D01*
X78674335Y37384364D01*
X78548624Y37307328D01*
X78356102Y37142898D01*
X78191672Y36950376D01*
X78059384Y36734502D01*
X78057491Y36729932D01*
X78057489Y36729928D01*
X77964389Y36505164D01*
X77962495Y36500591D01*
X77961340Y36495779D01*
X77923401Y36337750D01*
X77903391Y36254403D01*
X77883526Y36002000D01*
X77903391Y35749597D01*
X77962495Y35503409D01*
X78059384Y35269498D01*
X78191672Y35053624D01*
X78356102Y34861102D01*
X78548624Y34696672D01*
X78633699Y34644538D01*
X78674335Y34619636D01*
X78721966Y34566988D01*
X78734500Y34512203D01*
X78734500Y17491797D01*
X78714498Y17423676D01*
X78674335Y17384364D01*
X78548624Y17307328D01*
X78356102Y17142898D01*
X78191672Y16950376D01*
X78059384Y16734502D01*
X78057491Y16729932D01*
X78057489Y16729928D01*
X77964389Y16505164D01*
X77962495Y16500591D01*
X77961340Y16495779D01*
X77906378Y16266843D01*
X77903391Y16254403D01*
X77883526Y16002000D01*
X77903391Y15749597D01*
X77904545Y15744790D01*
X77904546Y15744784D01*
X77934842Y15618591D01*
X77962495Y15503409D01*
X77964388Y15498838D01*
X77964389Y15498836D01*
X78038810Y15319169D01*
X78059384Y15269498D01*
X78191672Y15053624D01*
X78356102Y14861102D01*
X78548624Y14696672D01*
X78764498Y14564384D01*
X78769068Y14562491D01*
X78769072Y14562489D01*
X78951679Y14486851D01*
X78998409Y14467495D01*
X79083032Y14447179D01*
X79239784Y14409546D01*
X79239790Y14409545D01*
X79244597Y14408391D01*
X79497000Y14388526D01*
X79749403Y14408391D01*
X79754210Y14409545D01*
X79754216Y14409546D01*
X79910968Y14447179D01*
X79995591Y14467495D01*
X80042321Y14486851D01*
X80224928Y14562489D01*
X80224932Y14562491D01*
X80229502Y14564384D01*
X80445376Y14696672D01*
X80637898Y14861102D01*
X80802328Y15053624D01*
X80934616Y15269498D01*
X80955191Y15319169D01*
X81029611Y15498836D01*
X81029612Y15498838D01*
X81031505Y15503409D01*
X81059158Y15618591D01*
X81089454Y15744784D01*
X81089455Y15744790D01*
X81090609Y15749597D01*
X81110474Y16002000D01*
X97883526Y16002000D01*
X97903391Y15749597D01*
X97904545Y15744790D01*
X97904546Y15744784D01*
X97934842Y15618591D01*
X97962495Y15503409D01*
X97964388Y15498838D01*
X97964389Y15498836D01*
X98038810Y15319169D01*
X98059384Y15269498D01*
X98191672Y15053624D01*
X98356102Y14861102D01*
X98548624Y14696672D01*
X98764498Y14564384D01*
X98769068Y14562491D01*
X98769072Y14562489D01*
X98951679Y14486851D01*
X98998409Y14467495D01*
X99083032Y14447179D01*
X99239784Y14409546D01*
X99239790Y14409545D01*
X99244597Y14408391D01*
X99497000Y14388526D01*
X99749403Y14408391D01*
X99754210Y14409545D01*
X99754216Y14409546D01*
X99910968Y14447179D01*
X99995591Y14467495D01*
X100042321Y14486851D01*
X100224928Y14562489D01*
X100224932Y14562491D01*
X100229502Y14564384D01*
X100445376Y14696672D01*
X100637898Y14861102D01*
X100802328Y15053624D01*
X100934616Y15269498D01*
X100955191Y15319169D01*
X101029611Y15498836D01*
X101029612Y15498838D01*
X101031505Y15503409D01*
X101059158Y15618591D01*
X101089454Y15744784D01*
X101089455Y15744790D01*
X101090609Y15749597D01*
X101110474Y16002000D01*
X117883526Y16002000D01*
X117903391Y15749597D01*
X117904545Y15744790D01*
X117904546Y15744784D01*
X117934842Y15618591D01*
X117962495Y15503409D01*
X117964388Y15498838D01*
X117964389Y15498836D01*
X118038810Y15319169D01*
X118059384Y15269498D01*
X118191672Y15053624D01*
X118356102Y14861102D01*
X118548624Y14696672D01*
X118764498Y14564384D01*
X118769068Y14562491D01*
X118769072Y14562489D01*
X118951679Y14486851D01*
X118998409Y14467495D01*
X119083032Y14447179D01*
X119239784Y14409546D01*
X119239790Y14409545D01*
X119244597Y14408391D01*
X119497000Y14388526D01*
X119749403Y14408391D01*
X119754210Y14409545D01*
X119754216Y14409546D01*
X119910968Y14447179D01*
X119995591Y14467495D01*
X120042321Y14486851D01*
X120224928Y14562489D01*
X120224932Y14562491D01*
X120229502Y14564384D01*
X120445376Y14696672D01*
X120637898Y14861102D01*
X120802328Y15053624D01*
X120934616Y15269498D01*
X120955191Y15319169D01*
X121029611Y15498836D01*
X121029612Y15498838D01*
X121031505Y15503409D01*
X121059158Y15618591D01*
X121089454Y15744784D01*
X121089455Y15744790D01*
X121090609Y15749597D01*
X121110474Y16002000D01*
X121090609Y16254403D01*
X121087623Y16266843D01*
X121032660Y16495779D01*
X121031505Y16500591D01*
X121029611Y16505164D01*
X120936511Y16729928D01*
X120936509Y16729932D01*
X120934616Y16734502D01*
X120802328Y16950376D01*
X120799121Y16954131D01*
X120799118Y16954135D01*
X120777596Y16979333D01*
X120748565Y17044122D01*
X120759170Y17114322D01*
X120806044Y17167645D01*
X120862753Y17186713D01*
X120907650Y17190522D01*
X120991409Y17197629D01*
X120991413Y17197630D01*
X120996720Y17198080D01*
X121001875Y17199418D01*
X121001881Y17199419D01*
X121214703Y17254657D01*
X121214707Y17254658D01*
X121219872Y17255999D01*
X121224738Y17258191D01*
X121224741Y17258192D01*
X121425202Y17348493D01*
X121430075Y17350688D01*
X121621319Y17479441D01*
X121634272Y17491797D01*
X121784278Y17634897D01*
X121788135Y17638576D01*
X121925754Y17823542D01*
X122030240Y18029051D01*
X122043274Y18071025D01*
X122097024Y18244129D01*
X122098607Y18249227D01*
X122099308Y18254516D01*
X122128198Y18472489D01*
X122128198Y18472494D01*
X122128898Y18477774D01*
X122120249Y18708158D01*
X122072907Y18933791D01*
X121988224Y19148221D01*
X121868623Y19345317D01*
X121781755Y19445424D01*
X121721023Y19515412D01*
X121721021Y19515414D01*
X121717523Y19519445D01*
X121675970Y19553516D01*
X121543373Y19662240D01*
X121543367Y19662244D01*
X121539245Y19665624D01*
X121534609Y19668263D01*
X121534606Y19668265D01*
X121343529Y19777032D01*
X121338886Y19779675D01*
X121122175Y19858337D01*
X121116926Y19859286D01*
X121116923Y19859287D01*
X120899392Y19898623D01*
X120899385Y19898624D01*
X120895308Y19899361D01*
X120877586Y19900197D01*
X120872644Y19900430D01*
X120872637Y19900430D01*
X120871156Y19900500D01*
X120709110Y19900500D01*
X120642191Y19894822D01*
X120542591Y19886371D01*
X120542587Y19886370D01*
X120537280Y19885920D01*
X120417153Y19854741D01*
X120346194Y19856988D01*
X120287712Y19897242D01*
X120260278Y19962724D01*
X120259500Y19976700D01*
X120259500Y34512203D01*
X120279502Y34580324D01*
X120319665Y34619636D01*
X120360301Y34644538D01*
X120445376Y34696672D01*
X120637898Y34861102D01*
X120802328Y35053624D01*
X120934616Y35269498D01*
X121031505Y35503409D01*
X121090609Y35749597D01*
X121110474Y36002000D01*
X121090609Y36254403D01*
X121070600Y36337750D01*
X121032660Y36495779D01*
X121031505Y36500591D01*
X121029611Y36505164D01*
X120936511Y36729928D01*
X120936509Y36729932D01*
X120934616Y36734502D01*
X120802328Y36950376D01*
X120799121Y36954131D01*
X120799118Y36954135D01*
X120777596Y36979333D01*
X120748565Y37044122D01*
X120759170Y37114322D01*
X120806044Y37167645D01*
X120862753Y37186713D01*
X120907650Y37190522D01*
X120991409Y37197629D01*
X120991413Y37197630D01*
X120996720Y37198080D01*
X121001875Y37199418D01*
X121001881Y37199419D01*
X121214703Y37254657D01*
X121214707Y37254658D01*
X121219872Y37255999D01*
X121224738Y37258191D01*
X121224741Y37258192D01*
X121425202Y37348493D01*
X121430075Y37350688D01*
X121621319Y37479441D01*
X121634272Y37491797D01*
X121784278Y37634897D01*
X121788135Y37638576D01*
X121925754Y37823542D01*
X122030240Y38029051D01*
X122043274Y38071025D01*
X122097024Y38244129D01*
X122098607Y38249227D01*
X122099308Y38254516D01*
X122128198Y38472489D01*
X122128198Y38472494D01*
X122128898Y38477774D01*
X122120249Y38708158D01*
X122072907Y38933791D01*
X121988224Y39148221D01*
X121868623Y39345317D01*
X121781755Y39445424D01*
X121721023Y39515412D01*
X121721021Y39515414D01*
X121717523Y39519445D01*
X121675970Y39553516D01*
X121543373Y39662240D01*
X121543367Y39662244D01*
X121539245Y39665624D01*
X121534609Y39668263D01*
X121534606Y39668265D01*
X121343529Y39777032D01*
X121338886Y39779675D01*
X121122175Y39858337D01*
X121116926Y39859286D01*
X121116923Y39859287D01*
X120899392Y39898623D01*
X120899385Y39898624D01*
X120895308Y39899361D01*
X120877586Y39900197D01*
X120872644Y39900430D01*
X120872637Y39900430D01*
X120871156Y39900500D01*
X120709110Y39900500D01*
X120642191Y39894822D01*
X120542591Y39886371D01*
X120542587Y39886370D01*
X120537280Y39885920D01*
X120532125Y39884582D01*
X120532119Y39884581D01*
X120319297Y39829343D01*
X120319293Y39829342D01*
X120314128Y39828001D01*
X120309262Y39825809D01*
X120309259Y39825808D01*
X120200980Y39777032D01*
X120103925Y39733312D01*
X119912681Y39604559D01*
X119745865Y39445424D01*
X119608246Y39260458D01*
X119503760Y39054949D01*
X119502178Y39049855D01*
X119502177Y39049852D01*
X119440115Y38849980D01*
X119435393Y38834773D01*
X119434692Y38829484D01*
X119419304Y38713377D01*
X119405102Y38606226D01*
X119413751Y38375842D01*
X119461093Y38150209D01*
X119545776Y37935779D01*
X119624739Y37805653D01*
X119642977Y37737041D01*
X119621226Y37669459D01*
X119566390Y37624364D01*
X119507139Y37614677D01*
X119501939Y37615086D01*
X119501930Y37615086D01*
X119497000Y37615474D01*
X119244597Y37595609D01*
X119239790Y37594455D01*
X119239784Y37594454D01*
X119083032Y37556821D01*
X118998409Y37536505D01*
X118993838Y37534612D01*
X118993836Y37534611D01*
X118769072Y37441511D01*
X118769068Y37441509D01*
X118764498Y37439616D01*
X118548624Y37307328D01*
X118356102Y37142898D01*
X118191672Y36950376D01*
X118059384Y36734502D01*
X118057491Y36729932D01*
X118057489Y36729928D01*
X117964389Y36505164D01*
X117962495Y36500591D01*
X117961340Y36495779D01*
X117923401Y36337750D01*
X117903391Y36254403D01*
X117883526Y36002000D01*
X117903391Y35749597D01*
X117962495Y35503409D01*
X118059384Y35269498D01*
X118191672Y35053624D01*
X118356102Y34861102D01*
X118548624Y34696672D01*
X118633699Y34644538D01*
X118674335Y34619636D01*
X118721966Y34566988D01*
X118734500Y34512203D01*
X118734500Y17491797D01*
X118714498Y17423676D01*
X118674335Y17384364D01*
X118548624Y17307328D01*
X118356102Y17142898D01*
X118191672Y16950376D01*
X118059384Y16734502D01*
X118057491Y16729932D01*
X118057489Y16729928D01*
X117964389Y16505164D01*
X117962495Y16500591D01*
X117961340Y16495779D01*
X117906378Y16266843D01*
X117903391Y16254403D01*
X117883526Y16002000D01*
X101110474Y16002000D01*
X101090609Y16254403D01*
X101087623Y16266843D01*
X101032660Y16495779D01*
X101031505Y16500591D01*
X101029611Y16505164D01*
X100936511Y16729928D01*
X100936509Y16729932D01*
X100934616Y16734502D01*
X100802328Y16950376D01*
X100799121Y16954131D01*
X100799118Y16954135D01*
X100777596Y16979333D01*
X100748565Y17044122D01*
X100759170Y17114322D01*
X100806044Y17167645D01*
X100862753Y17186713D01*
X100907650Y17190522D01*
X100991409Y17197629D01*
X100991413Y17197630D01*
X100996720Y17198080D01*
X101001875Y17199418D01*
X101001881Y17199419D01*
X101214703Y17254657D01*
X101214707Y17254658D01*
X101219872Y17255999D01*
X101224738Y17258191D01*
X101224741Y17258192D01*
X101425202Y17348493D01*
X101430075Y17350688D01*
X101621319Y17479441D01*
X101634272Y17491797D01*
X101784278Y17634897D01*
X101788135Y17638576D01*
X101925754Y17823542D01*
X102030240Y18029051D01*
X102043274Y18071025D01*
X102097024Y18244129D01*
X102098607Y18249227D01*
X102099308Y18254516D01*
X102128198Y18472489D01*
X102128198Y18472494D01*
X102128898Y18477774D01*
X102124076Y18606226D01*
X109245102Y18606226D01*
X109253751Y18375842D01*
X109301093Y18150209D01*
X109385776Y17935779D01*
X109505377Y17738683D01*
X109508874Y17734653D01*
X109612984Y17614677D01*
X109656477Y17564555D01*
X109660608Y17561168D01*
X109830627Y17421760D01*
X109830633Y17421756D01*
X109834755Y17418376D01*
X109839391Y17415737D01*
X109839394Y17415735D01*
X109948422Y17353673D01*
X110035114Y17304325D01*
X110251825Y17225663D01*
X110257074Y17224714D01*
X110257077Y17224713D01*
X110474608Y17185377D01*
X110474615Y17185376D01*
X110478692Y17184639D01*
X110496414Y17183803D01*
X110501356Y17183570D01*
X110501363Y17183570D01*
X110502844Y17183500D01*
X110664890Y17183500D01*
X110731809Y17189178D01*
X110831409Y17197629D01*
X110831413Y17197630D01*
X110836720Y17198080D01*
X110841875Y17199418D01*
X110841881Y17199419D01*
X111054703Y17254657D01*
X111054707Y17254658D01*
X111059872Y17255999D01*
X111064738Y17258191D01*
X111064741Y17258192D01*
X111265202Y17348493D01*
X111270075Y17350688D01*
X111461319Y17479441D01*
X111474272Y17491797D01*
X111624278Y17634897D01*
X111628135Y17638576D01*
X111765754Y17823542D01*
X111870240Y18029051D01*
X111883274Y18071025D01*
X111937024Y18244129D01*
X111938607Y18249227D01*
X111939308Y18254516D01*
X111956493Y18384179D01*
X113178500Y18384179D01*
X113218060Y18071025D01*
X113296557Y17765298D01*
X113298010Y17761629D01*
X113298010Y17761628D01*
X113408279Y17483122D01*
X113412753Y17471821D01*
X113414659Y17468353D01*
X113414660Y17468352D01*
X113548603Y17224713D01*
X113564816Y17195221D01*
X113750346Y16939860D01*
X113929577Y16748999D01*
X113947486Y16729928D01*
X113966418Y16709767D01*
X113969469Y16707243D01*
X113969470Y16707242D01*
X114088022Y16609167D01*
X114209625Y16508568D01*
X114476131Y16339438D01*
X114479710Y16337754D01*
X114479717Y16337750D01*
X114758144Y16206733D01*
X114758148Y16206731D01*
X114761734Y16205044D01*
X115061928Y16107505D01*
X115371980Y16048359D01*
X115608162Y16033500D01*
X115765838Y16033500D01*
X116002020Y16048359D01*
X116312072Y16107505D01*
X116612266Y16205044D01*
X116615852Y16206731D01*
X116615856Y16206733D01*
X116894283Y16337750D01*
X116894290Y16337754D01*
X116897869Y16339438D01*
X117164375Y16508568D01*
X117285978Y16609167D01*
X117404530Y16707242D01*
X117404531Y16707243D01*
X117407582Y16709767D01*
X117426515Y16729928D01*
X117444423Y16748999D01*
X117623654Y16939860D01*
X117809184Y17195221D01*
X117825398Y17224713D01*
X117959340Y17468352D01*
X117959341Y17468353D01*
X117961247Y17471821D01*
X117965722Y17483122D01*
X118075990Y17761628D01*
X118075990Y17761629D01*
X118077443Y17765298D01*
X118155940Y18071025D01*
X118195500Y18384179D01*
X118195500Y18699821D01*
X118155940Y19012975D01*
X118077443Y19318702D01*
X118027270Y19445424D01*
X117962702Y19608505D01*
X117962700Y19608510D01*
X117961247Y19612179D01*
X117894653Y19733312D01*
X117811093Y19885307D01*
X117811091Y19885310D01*
X117809184Y19888779D01*
X117623654Y20144140D01*
X117407582Y20374233D01*
X117164375Y20575432D01*
X116897869Y20744562D01*
X116894290Y20746246D01*
X116894283Y20746250D01*
X116615856Y20877267D01*
X116615852Y20877269D01*
X116612266Y20878956D01*
X116312072Y20976495D01*
X116002020Y21035641D01*
X115765838Y21050500D01*
X115608162Y21050500D01*
X115371980Y21035641D01*
X115061928Y20976495D01*
X114761734Y20878956D01*
X114758148Y20877269D01*
X114758144Y20877267D01*
X114479717Y20746250D01*
X114479710Y20746246D01*
X114476131Y20744562D01*
X114209625Y20575432D01*
X113966418Y20374233D01*
X113750346Y20144140D01*
X113564816Y19888779D01*
X113562909Y19885310D01*
X113562907Y19885307D01*
X113479347Y19733312D01*
X113412753Y19612179D01*
X113411300Y19608510D01*
X113411298Y19608505D01*
X113346730Y19445424D01*
X113296557Y19318702D01*
X113218060Y19012975D01*
X113178500Y18699821D01*
X113178500Y18384179D01*
X111956493Y18384179D01*
X111968198Y18472489D01*
X111968198Y18472494D01*
X111968898Y18477774D01*
X111960249Y18708158D01*
X111912907Y18933791D01*
X111828224Y19148221D01*
X111708623Y19345317D01*
X111621755Y19445424D01*
X111561023Y19515412D01*
X111561021Y19515414D01*
X111557523Y19519445D01*
X111515970Y19553516D01*
X111383373Y19662240D01*
X111383367Y19662244D01*
X111379245Y19665624D01*
X111374609Y19668263D01*
X111374606Y19668265D01*
X111183529Y19777032D01*
X111178886Y19779675D01*
X110962175Y19858337D01*
X110956926Y19859286D01*
X110956923Y19859287D01*
X110739392Y19898623D01*
X110739385Y19898624D01*
X110735308Y19899361D01*
X110717586Y19900197D01*
X110712644Y19900430D01*
X110712637Y19900430D01*
X110711156Y19900500D01*
X110549110Y19900500D01*
X110482191Y19894822D01*
X110382591Y19886371D01*
X110382587Y19886370D01*
X110377280Y19885920D01*
X110372125Y19884582D01*
X110372119Y19884581D01*
X110159297Y19829343D01*
X110159293Y19829342D01*
X110154128Y19828001D01*
X110149262Y19825809D01*
X110149259Y19825808D01*
X110040980Y19777032D01*
X109943925Y19733312D01*
X109752681Y19604559D01*
X109585865Y19445424D01*
X109448246Y19260458D01*
X109343760Y19054949D01*
X109342178Y19049855D01*
X109342177Y19049852D01*
X109280115Y18849980D01*
X109275393Y18834773D01*
X109274692Y18829484D01*
X109259304Y18713377D01*
X109245102Y18606226D01*
X102124076Y18606226D01*
X102120249Y18708158D01*
X102072907Y18933791D01*
X101988224Y19148221D01*
X101868623Y19345317D01*
X101781755Y19445424D01*
X101721023Y19515412D01*
X101721021Y19515414D01*
X101717523Y19519445D01*
X101675970Y19553516D01*
X101543373Y19662240D01*
X101543367Y19662244D01*
X101539245Y19665624D01*
X101534609Y19668263D01*
X101534606Y19668265D01*
X101343529Y19777032D01*
X101338886Y19779675D01*
X101122175Y19858337D01*
X101116926Y19859286D01*
X101116923Y19859287D01*
X100899392Y19898623D01*
X100899385Y19898624D01*
X100895308Y19899361D01*
X100877586Y19900197D01*
X100872644Y19900430D01*
X100872637Y19900430D01*
X100871156Y19900500D01*
X100709110Y19900500D01*
X100642191Y19894822D01*
X100542591Y19886371D01*
X100542587Y19886370D01*
X100537280Y19885920D01*
X100417153Y19854741D01*
X100346194Y19856988D01*
X100287712Y19897242D01*
X100260278Y19962724D01*
X100259500Y19976700D01*
X100259500Y28950237D01*
X107530500Y28950237D01*
X107537255Y28888055D01*
X107588385Y28751666D01*
X107675739Y28635110D01*
X107792295Y28547756D01*
X107928684Y28496626D01*
X107990866Y28489871D01*
X109687134Y28489871D01*
X109749316Y28496626D01*
X109885705Y28547756D01*
X110002261Y28635110D01*
X110089615Y28751666D01*
X110140745Y28888055D01*
X110147500Y28950237D01*
X110147500Y30646505D01*
X110140745Y30708687D01*
X110089615Y30845076D01*
X110002261Y30961632D01*
X109885705Y31048986D01*
X109749316Y31100116D01*
X109687134Y31106871D01*
X107990866Y31106871D01*
X107928684Y31100116D01*
X107792295Y31048986D01*
X107675739Y30961632D01*
X107588385Y30845076D01*
X107537255Y30708687D01*
X107530500Y30646505D01*
X107530500Y28950237D01*
X100259500Y28950237D01*
X100259500Y33462000D01*
X111533526Y33462000D01*
X111553391Y33209597D01*
X111612495Y32963409D01*
X111709384Y32729498D01*
X111841672Y32513624D01*
X112006102Y32321102D01*
X112198624Y32156672D01*
X112414498Y32024384D01*
X112419068Y32022491D01*
X112419072Y32022489D01*
X112616017Y31940912D01*
X112648409Y31927495D01*
X112695611Y31916163D01*
X112889784Y31869546D01*
X112889790Y31869545D01*
X112894597Y31868391D01*
X113147000Y31848526D01*
X113259212Y31857358D01*
X113328690Y31842762D01*
X113358192Y31820841D01*
X115122874Y30056159D01*
X115156900Y29993847D01*
X115159300Y29956082D01*
X115148048Y29827475D01*
X115145502Y29798371D01*
X115165457Y29570284D01*
X115166881Y29564971D01*
X115166881Y29564969D01*
X115219720Y29367775D01*
X115224716Y29349128D01*
X115227039Y29344147D01*
X115227039Y29344146D01*
X115319151Y29146609D01*
X115319154Y29146604D01*
X115321477Y29141622D01*
X115324634Y29137114D01*
X115436549Y28977283D01*
X115452802Y28954071D01*
X115614700Y28792173D01*
X115619208Y28789016D01*
X115619211Y28789014D01*
X115626796Y28783703D01*
X115802251Y28660848D01*
X115807233Y28658525D01*
X115807238Y28658522D01*
X115967838Y28583634D01*
X116009757Y28564087D01*
X116015065Y28562665D01*
X116015067Y28562664D01*
X116225598Y28506252D01*
X116225600Y28506252D01*
X116230913Y28504828D01*
X116459000Y28484873D01*
X116687087Y28504828D01*
X116692400Y28506252D01*
X116692402Y28506252D01*
X116902933Y28562664D01*
X116902935Y28562665D01*
X116908243Y28564087D01*
X116950162Y28583634D01*
X117110762Y28658522D01*
X117110767Y28658525D01*
X117115749Y28660848D01*
X117291204Y28783703D01*
X117298789Y28789014D01*
X117298792Y28789016D01*
X117303300Y28792173D01*
X117465198Y28954071D01*
X117481452Y28977283D01*
X117593366Y29137114D01*
X117596523Y29141622D01*
X117598846Y29146604D01*
X117598849Y29146609D01*
X117690961Y29344146D01*
X117690961Y29344147D01*
X117693284Y29349128D01*
X117698281Y29367775D01*
X117751119Y29564969D01*
X117751119Y29564971D01*
X117752543Y29570284D01*
X117772498Y29798371D01*
X117752543Y30026458D01*
X117745656Y30052162D01*
X117694707Y30242304D01*
X117694706Y30242306D01*
X117693284Y30247614D01*
X117636326Y30369762D01*
X117598849Y30450133D01*
X117598846Y30450138D01*
X117596523Y30455120D01*
X117516411Y30569531D01*
X117468357Y30638160D01*
X117468355Y30638163D01*
X117465198Y30642671D01*
X117303300Y30804569D01*
X117298792Y30807726D01*
X117298789Y30807728D01*
X117186088Y30886642D01*
X117115749Y30935894D01*
X117110767Y30938217D01*
X117110762Y30938220D01*
X116913225Y31030332D01*
X116913224Y31030332D01*
X116908243Y31032655D01*
X116902935Y31034077D01*
X116902933Y31034078D01*
X116692402Y31090490D01*
X116692400Y31090490D01*
X116687087Y31091914D01*
X116459000Y31111869D01*
X116453525Y31111390D01*
X116301289Y31098071D01*
X116231684Y31112060D01*
X116201212Y31134497D01*
X114650473Y32685236D01*
X114616447Y32747548D01*
X114623159Y32822549D01*
X114679611Y32958836D01*
X114679612Y32958838D01*
X114681505Y32963409D01*
X114740609Y33209597D01*
X114760474Y33462000D01*
X114740609Y33714403D01*
X114681505Y33960591D01*
X114584616Y34194502D01*
X114452328Y34410376D01*
X114287898Y34602898D01*
X114095376Y34767328D01*
X113879502Y34899616D01*
X113874932Y34901509D01*
X113874928Y34901511D01*
X113650164Y34994611D01*
X113650162Y34994612D01*
X113645591Y34996505D01*
X113560968Y35016821D01*
X113404216Y35054454D01*
X113404210Y35054455D01*
X113399403Y35055609D01*
X113147000Y35075474D01*
X112894597Y35055609D01*
X112889790Y35054455D01*
X112889784Y35054454D01*
X112733032Y35016821D01*
X112648409Y34996505D01*
X112643838Y34994612D01*
X112643836Y34994611D01*
X112419072Y34901511D01*
X112419068Y34901509D01*
X112414498Y34899616D01*
X112198624Y34767328D01*
X112006102Y34602898D01*
X111841672Y34410376D01*
X111709384Y34194502D01*
X111612495Y33960591D01*
X111553391Y33714403D01*
X111533526Y33462000D01*
X100259500Y33462000D01*
X100259500Y34512203D01*
X100279502Y34580324D01*
X100319665Y34619636D01*
X100360301Y34644538D01*
X100445376Y34696672D01*
X100637898Y34861102D01*
X100802328Y35053624D01*
X100934616Y35269498D01*
X101031505Y35503409D01*
X101090609Y35749597D01*
X101110474Y36002000D01*
X101090609Y36254403D01*
X101070600Y36337750D01*
X101032660Y36495779D01*
X101031505Y36500591D01*
X101029611Y36505164D01*
X100936511Y36729928D01*
X100936509Y36729932D01*
X100934616Y36734502D01*
X100802328Y36950376D01*
X100799121Y36954131D01*
X100799118Y36954135D01*
X100777596Y36979333D01*
X100748565Y37044122D01*
X100759170Y37114322D01*
X100806044Y37167645D01*
X100862753Y37186713D01*
X100907650Y37190522D01*
X100991409Y37197629D01*
X100991413Y37197630D01*
X100996720Y37198080D01*
X101001875Y37199418D01*
X101001881Y37199419D01*
X101214703Y37254657D01*
X101214707Y37254658D01*
X101219872Y37255999D01*
X101224738Y37258191D01*
X101224741Y37258192D01*
X101425202Y37348493D01*
X101430075Y37350688D01*
X101621319Y37479441D01*
X101634272Y37491797D01*
X101784278Y37634897D01*
X101788135Y37638576D01*
X101925754Y37823542D01*
X102030240Y38029051D01*
X102043274Y38071025D01*
X102097024Y38244129D01*
X102098607Y38249227D01*
X102099308Y38254516D01*
X102128198Y38472489D01*
X102128198Y38472494D01*
X102128898Y38477774D01*
X102124076Y38606226D01*
X109245102Y38606226D01*
X109253751Y38375842D01*
X109301093Y38150209D01*
X109385776Y37935779D01*
X109505377Y37738683D01*
X109508874Y37734653D01*
X109612984Y37614677D01*
X109656477Y37564555D01*
X109660608Y37561168D01*
X109830627Y37421760D01*
X109830633Y37421756D01*
X109834755Y37418376D01*
X109839391Y37415737D01*
X109839394Y37415735D01*
X109948422Y37353673D01*
X110035114Y37304325D01*
X110251825Y37225663D01*
X110257074Y37224714D01*
X110257077Y37224713D01*
X110474608Y37185377D01*
X110474615Y37185376D01*
X110478692Y37184639D01*
X110496414Y37183803D01*
X110501356Y37183570D01*
X110501363Y37183570D01*
X110502844Y37183500D01*
X110664890Y37183500D01*
X110731809Y37189178D01*
X110831409Y37197629D01*
X110831413Y37197630D01*
X110836720Y37198080D01*
X110841875Y37199418D01*
X110841881Y37199419D01*
X111054703Y37254657D01*
X111054707Y37254658D01*
X111059872Y37255999D01*
X111064738Y37258191D01*
X111064741Y37258192D01*
X111265202Y37348493D01*
X111270075Y37350688D01*
X111461319Y37479441D01*
X111474272Y37491797D01*
X111624278Y37634897D01*
X111628135Y37638576D01*
X111765754Y37823542D01*
X111870240Y38029051D01*
X111883274Y38071025D01*
X111937024Y38244129D01*
X111938607Y38249227D01*
X111939308Y38254516D01*
X111956493Y38384179D01*
X113178500Y38384179D01*
X113218060Y38071025D01*
X113296557Y37765298D01*
X113298010Y37761629D01*
X113298010Y37761628D01*
X113408279Y37483122D01*
X113412753Y37471821D01*
X113414659Y37468353D01*
X113414660Y37468352D01*
X113548603Y37224713D01*
X113564816Y37195221D01*
X113750346Y36939860D01*
X113929577Y36748999D01*
X113947486Y36729928D01*
X113966418Y36709767D01*
X114209625Y36508568D01*
X114476131Y36339438D01*
X114479710Y36337754D01*
X114479717Y36337750D01*
X114758144Y36206733D01*
X114758148Y36206731D01*
X114761734Y36205044D01*
X115061928Y36107505D01*
X115371980Y36048359D01*
X115608162Y36033500D01*
X115765838Y36033500D01*
X116002020Y36048359D01*
X116312072Y36107505D01*
X116612266Y36205044D01*
X116615852Y36206731D01*
X116615856Y36206733D01*
X116894283Y36337750D01*
X116894290Y36337754D01*
X116897869Y36339438D01*
X117164375Y36508568D01*
X117407582Y36709767D01*
X117426515Y36729928D01*
X117444423Y36748999D01*
X117623654Y36939860D01*
X117809184Y37195221D01*
X117825398Y37224713D01*
X117959340Y37468352D01*
X117959341Y37468353D01*
X117961247Y37471821D01*
X117965722Y37483122D01*
X118075990Y37761628D01*
X118075990Y37761629D01*
X118077443Y37765298D01*
X118155940Y38071025D01*
X118195500Y38384179D01*
X118195500Y38699821D01*
X118155940Y39012975D01*
X118077443Y39318702D01*
X118027270Y39445424D01*
X117962702Y39608505D01*
X117962700Y39608510D01*
X117961247Y39612179D01*
X117894653Y39733312D01*
X117811093Y39885307D01*
X117811091Y39885310D01*
X117809184Y39888779D01*
X117623654Y40144140D01*
X117407582Y40374233D01*
X117164375Y40575432D01*
X116897869Y40744562D01*
X116894290Y40746246D01*
X116894283Y40746250D01*
X116615856Y40877267D01*
X116615852Y40877269D01*
X116612266Y40878956D01*
X116312072Y40976495D01*
X116002020Y41035641D01*
X115765838Y41050500D01*
X115608162Y41050500D01*
X115371980Y41035641D01*
X115061928Y40976495D01*
X114761734Y40878956D01*
X114758148Y40877269D01*
X114758144Y40877267D01*
X114479717Y40746250D01*
X114479710Y40746246D01*
X114476131Y40744562D01*
X114209625Y40575432D01*
X113966418Y40374233D01*
X113750346Y40144140D01*
X113564816Y39888779D01*
X113562909Y39885310D01*
X113562907Y39885307D01*
X113479347Y39733312D01*
X113412753Y39612179D01*
X113411300Y39608510D01*
X113411298Y39608505D01*
X113346730Y39445424D01*
X113296557Y39318702D01*
X113218060Y39012975D01*
X113178500Y38699821D01*
X113178500Y38384179D01*
X111956493Y38384179D01*
X111968198Y38472489D01*
X111968198Y38472494D01*
X111968898Y38477774D01*
X111960249Y38708158D01*
X111912907Y38933791D01*
X111828224Y39148221D01*
X111708623Y39345317D01*
X111621755Y39445424D01*
X111561023Y39515412D01*
X111561021Y39515414D01*
X111557523Y39519445D01*
X111515970Y39553516D01*
X111383373Y39662240D01*
X111383367Y39662244D01*
X111379245Y39665624D01*
X111374609Y39668263D01*
X111374606Y39668265D01*
X111183529Y39777032D01*
X111178886Y39779675D01*
X110962175Y39858337D01*
X110956926Y39859286D01*
X110956923Y39859287D01*
X110739392Y39898623D01*
X110739385Y39898624D01*
X110735308Y39899361D01*
X110717586Y39900197D01*
X110712644Y39900430D01*
X110712637Y39900430D01*
X110711156Y39900500D01*
X110549110Y39900500D01*
X110482191Y39894822D01*
X110382591Y39886371D01*
X110382587Y39886370D01*
X110377280Y39885920D01*
X110372125Y39884582D01*
X110372119Y39884581D01*
X110159297Y39829343D01*
X110159293Y39829342D01*
X110154128Y39828001D01*
X110149262Y39825809D01*
X110149259Y39825808D01*
X110040980Y39777032D01*
X109943925Y39733312D01*
X109752681Y39604559D01*
X109585865Y39445424D01*
X109448246Y39260458D01*
X109343760Y39054949D01*
X109342178Y39049855D01*
X109342177Y39049852D01*
X109280115Y38849980D01*
X109275393Y38834773D01*
X109274692Y38829484D01*
X109259304Y38713377D01*
X109245102Y38606226D01*
X102124076Y38606226D01*
X102120249Y38708158D01*
X102072907Y38933791D01*
X101988224Y39148221D01*
X101868623Y39345317D01*
X101781755Y39445424D01*
X101721023Y39515412D01*
X101721021Y39515414D01*
X101717523Y39519445D01*
X101675970Y39553516D01*
X101543373Y39662240D01*
X101543367Y39662244D01*
X101539245Y39665624D01*
X101534609Y39668263D01*
X101534606Y39668265D01*
X101343529Y39777032D01*
X101338886Y39779675D01*
X101122175Y39858337D01*
X101116926Y39859286D01*
X101116923Y39859287D01*
X100899392Y39898623D01*
X100899385Y39898624D01*
X100895308Y39899361D01*
X100877586Y39900197D01*
X100872644Y39900430D01*
X100872637Y39900430D01*
X100871156Y39900500D01*
X100709110Y39900500D01*
X100642191Y39894822D01*
X100542591Y39886371D01*
X100542587Y39886370D01*
X100537280Y39885920D01*
X100532125Y39884582D01*
X100532119Y39884581D01*
X100319297Y39829343D01*
X100319293Y39829342D01*
X100314128Y39828001D01*
X100309262Y39825809D01*
X100309259Y39825808D01*
X100200980Y39777032D01*
X100103925Y39733312D01*
X99912681Y39604559D01*
X99745865Y39445424D01*
X99608246Y39260458D01*
X99503760Y39054949D01*
X99502178Y39049855D01*
X99502177Y39049852D01*
X99440115Y38849980D01*
X99435393Y38834773D01*
X99434692Y38829484D01*
X99419304Y38713377D01*
X99405102Y38606226D01*
X99413751Y38375842D01*
X99461093Y38150209D01*
X99545776Y37935779D01*
X99624739Y37805653D01*
X99642977Y37737041D01*
X99621226Y37669459D01*
X99566390Y37624364D01*
X99507139Y37614677D01*
X99501939Y37615086D01*
X99501930Y37615086D01*
X99497000Y37615474D01*
X99244597Y37595609D01*
X99239790Y37594455D01*
X99239784Y37594454D01*
X99083032Y37556821D01*
X98998409Y37536505D01*
X98993838Y37534612D01*
X98993836Y37534611D01*
X98769072Y37441511D01*
X98769068Y37441509D01*
X98764498Y37439616D01*
X98548624Y37307328D01*
X98356102Y37142898D01*
X98191672Y36950376D01*
X98059384Y36734502D01*
X98057491Y36729932D01*
X98057489Y36729928D01*
X97964389Y36505164D01*
X97962495Y36500591D01*
X97961340Y36495779D01*
X97923401Y36337750D01*
X97903391Y36254403D01*
X97883526Y36002000D01*
X97903391Y35749597D01*
X97962495Y35503409D01*
X98059384Y35269498D01*
X98191672Y35053624D01*
X98356102Y34861102D01*
X98548624Y34696672D01*
X98633699Y34644538D01*
X98674335Y34619636D01*
X98721966Y34566988D01*
X98734500Y34512203D01*
X98734500Y17491797D01*
X98714498Y17423676D01*
X98674335Y17384364D01*
X98548624Y17307328D01*
X98356102Y17142898D01*
X98191672Y16950376D01*
X98059384Y16734502D01*
X98057491Y16729932D01*
X98057489Y16729928D01*
X97964389Y16505164D01*
X97962495Y16500591D01*
X97961340Y16495779D01*
X97906378Y16266843D01*
X97903391Y16254403D01*
X97883526Y16002000D01*
X81110474Y16002000D01*
X81090609Y16254403D01*
X81087623Y16266843D01*
X81032660Y16495779D01*
X81031505Y16500591D01*
X81029611Y16505164D01*
X80936511Y16729928D01*
X80936509Y16729932D01*
X80934616Y16734502D01*
X80802328Y16950376D01*
X80799121Y16954131D01*
X80799118Y16954135D01*
X80777596Y16979333D01*
X80748565Y17044122D01*
X80759170Y17114322D01*
X80806044Y17167645D01*
X80862753Y17186713D01*
X80907650Y17190522D01*
X80991409Y17197629D01*
X80991413Y17197630D01*
X80996720Y17198080D01*
X81001875Y17199418D01*
X81001881Y17199419D01*
X81214703Y17254657D01*
X81214707Y17254658D01*
X81219872Y17255999D01*
X81224738Y17258191D01*
X81224741Y17258192D01*
X81425202Y17348493D01*
X81430075Y17350688D01*
X81621319Y17479441D01*
X81634272Y17491797D01*
X81784278Y17634897D01*
X81788135Y17638576D01*
X81925754Y17823542D01*
X82030240Y18029051D01*
X82043274Y18071025D01*
X82097024Y18244129D01*
X82098607Y18249227D01*
X82099308Y18254516D01*
X82128198Y18472489D01*
X82128198Y18472494D01*
X82128898Y18477774D01*
X82124076Y18606226D01*
X89245102Y18606226D01*
X89253751Y18375842D01*
X89301093Y18150209D01*
X89385776Y17935779D01*
X89505377Y17738683D01*
X89508874Y17734653D01*
X89612984Y17614677D01*
X89656477Y17564555D01*
X89660608Y17561168D01*
X89830627Y17421760D01*
X89830633Y17421756D01*
X89834755Y17418376D01*
X89839391Y17415737D01*
X89839394Y17415735D01*
X89948422Y17353673D01*
X90035114Y17304325D01*
X90251825Y17225663D01*
X90257074Y17224714D01*
X90257077Y17224713D01*
X90474608Y17185377D01*
X90474615Y17185376D01*
X90478692Y17184639D01*
X90496414Y17183803D01*
X90501356Y17183570D01*
X90501363Y17183570D01*
X90502844Y17183500D01*
X90664890Y17183500D01*
X90731809Y17189178D01*
X90831409Y17197629D01*
X90831413Y17197630D01*
X90836720Y17198080D01*
X90841875Y17199418D01*
X90841881Y17199419D01*
X91054703Y17254657D01*
X91054707Y17254658D01*
X91059872Y17255999D01*
X91064738Y17258191D01*
X91064741Y17258192D01*
X91265202Y17348493D01*
X91270075Y17350688D01*
X91461319Y17479441D01*
X91474272Y17491797D01*
X91624278Y17634897D01*
X91628135Y17638576D01*
X91765754Y17823542D01*
X91870240Y18029051D01*
X91883274Y18071025D01*
X91937024Y18244129D01*
X91938607Y18249227D01*
X91939308Y18254516D01*
X91956493Y18384179D01*
X93178500Y18384179D01*
X93218060Y18071025D01*
X93296557Y17765298D01*
X93298010Y17761629D01*
X93298010Y17761628D01*
X93408279Y17483122D01*
X93412753Y17471821D01*
X93414659Y17468353D01*
X93414660Y17468352D01*
X93548603Y17224713D01*
X93564816Y17195221D01*
X93750346Y16939860D01*
X93929577Y16748999D01*
X93947486Y16729928D01*
X93966418Y16709767D01*
X93969469Y16707243D01*
X93969470Y16707242D01*
X94088022Y16609167D01*
X94209625Y16508568D01*
X94476131Y16339438D01*
X94479710Y16337754D01*
X94479717Y16337750D01*
X94758144Y16206733D01*
X94758148Y16206731D01*
X94761734Y16205044D01*
X95061928Y16107505D01*
X95371980Y16048359D01*
X95608162Y16033500D01*
X95765838Y16033500D01*
X96002020Y16048359D01*
X96312072Y16107505D01*
X96612266Y16205044D01*
X96615852Y16206731D01*
X96615856Y16206733D01*
X96894283Y16337750D01*
X96894290Y16337754D01*
X96897869Y16339438D01*
X97164375Y16508568D01*
X97285978Y16609167D01*
X97404530Y16707242D01*
X97404531Y16707243D01*
X97407582Y16709767D01*
X97426515Y16729928D01*
X97444423Y16748999D01*
X97623654Y16939860D01*
X97809184Y17195221D01*
X97825398Y17224713D01*
X97959340Y17468352D01*
X97959341Y17468353D01*
X97961247Y17471821D01*
X97965722Y17483122D01*
X98075990Y17761628D01*
X98075990Y17761629D01*
X98077443Y17765298D01*
X98155940Y18071025D01*
X98195500Y18384179D01*
X98195500Y18699821D01*
X98155940Y19012975D01*
X98077443Y19318702D01*
X98027270Y19445424D01*
X97962702Y19608505D01*
X97962700Y19608510D01*
X97961247Y19612179D01*
X97894653Y19733312D01*
X97811093Y19885307D01*
X97811091Y19885310D01*
X97809184Y19888779D01*
X97623654Y20144140D01*
X97407582Y20374233D01*
X97164375Y20575432D01*
X96897869Y20744562D01*
X96894290Y20746246D01*
X96894283Y20746250D01*
X96615856Y20877267D01*
X96615852Y20877269D01*
X96612266Y20878956D01*
X96312072Y20976495D01*
X96002020Y21035641D01*
X95765838Y21050500D01*
X95608162Y21050500D01*
X95371980Y21035641D01*
X95061928Y20976495D01*
X94761734Y20878956D01*
X94758148Y20877269D01*
X94758144Y20877267D01*
X94479717Y20746250D01*
X94479710Y20746246D01*
X94476131Y20744562D01*
X94209625Y20575432D01*
X93966418Y20374233D01*
X93750346Y20144140D01*
X93564816Y19888779D01*
X93562909Y19885310D01*
X93562907Y19885307D01*
X93479347Y19733312D01*
X93412753Y19612179D01*
X93411300Y19608510D01*
X93411298Y19608505D01*
X93346730Y19445424D01*
X93296557Y19318702D01*
X93218060Y19012975D01*
X93178500Y18699821D01*
X93178500Y18384179D01*
X91956493Y18384179D01*
X91968198Y18472489D01*
X91968198Y18472494D01*
X91968898Y18477774D01*
X91960249Y18708158D01*
X91912907Y18933791D01*
X91828224Y19148221D01*
X91708623Y19345317D01*
X91621755Y19445424D01*
X91561023Y19515412D01*
X91561021Y19515414D01*
X91557523Y19519445D01*
X91515970Y19553516D01*
X91383373Y19662240D01*
X91383367Y19662244D01*
X91379245Y19665624D01*
X91374609Y19668263D01*
X91374606Y19668265D01*
X91183529Y19777032D01*
X91178886Y19779675D01*
X90962175Y19858337D01*
X90956926Y19859286D01*
X90956923Y19859287D01*
X90739392Y19898623D01*
X90739385Y19898624D01*
X90735308Y19899361D01*
X90717586Y19900197D01*
X90712644Y19900430D01*
X90712637Y19900430D01*
X90711156Y19900500D01*
X90549110Y19900500D01*
X90482191Y19894822D01*
X90382591Y19886371D01*
X90382587Y19886370D01*
X90377280Y19885920D01*
X90372125Y19884582D01*
X90372119Y19884581D01*
X90159297Y19829343D01*
X90159293Y19829342D01*
X90154128Y19828001D01*
X90149262Y19825809D01*
X90149259Y19825808D01*
X90040980Y19777032D01*
X89943925Y19733312D01*
X89752681Y19604559D01*
X89585865Y19445424D01*
X89448246Y19260458D01*
X89343760Y19054949D01*
X89342178Y19049855D01*
X89342177Y19049852D01*
X89280115Y18849980D01*
X89275393Y18834773D01*
X89274692Y18829484D01*
X89259304Y18713377D01*
X89245102Y18606226D01*
X82124076Y18606226D01*
X82120249Y18708158D01*
X82072907Y18933791D01*
X81988224Y19148221D01*
X81868623Y19345317D01*
X81781755Y19445424D01*
X81721023Y19515412D01*
X81721021Y19515414D01*
X81717523Y19519445D01*
X81675970Y19553516D01*
X81543373Y19662240D01*
X81543367Y19662244D01*
X81539245Y19665624D01*
X81534609Y19668263D01*
X81534606Y19668265D01*
X81343529Y19777032D01*
X81338886Y19779675D01*
X81122175Y19858337D01*
X81116926Y19859286D01*
X81116923Y19859287D01*
X80899392Y19898623D01*
X80899385Y19898624D01*
X80895308Y19899361D01*
X80877586Y19900197D01*
X80872644Y19900430D01*
X80872637Y19900430D01*
X80871156Y19900500D01*
X80709110Y19900500D01*
X80642191Y19894822D01*
X80542591Y19886371D01*
X80542587Y19886370D01*
X80537280Y19885920D01*
X80417153Y19854741D01*
X80346194Y19856988D01*
X80287712Y19897242D01*
X80260278Y19962724D01*
X80259500Y19976700D01*
X80259500Y28869866D01*
X87464500Y28869866D01*
X87471255Y28807684D01*
X87522385Y28671295D01*
X87609739Y28554739D01*
X87726295Y28467385D01*
X87862684Y28416255D01*
X87924866Y28409500D01*
X89621134Y28409500D01*
X89683316Y28416255D01*
X89819705Y28467385D01*
X89936261Y28554739D01*
X90023615Y28671295D01*
X90074745Y28807684D01*
X90081500Y28869866D01*
X90081500Y30566134D01*
X90074745Y30628316D01*
X90023615Y30764705D01*
X89936261Y30881261D01*
X89819705Y30968615D01*
X89683316Y31019745D01*
X89621134Y31026500D01*
X87924866Y31026500D01*
X87862684Y31019745D01*
X87726295Y30968615D01*
X87609739Y30881261D01*
X87522385Y30764705D01*
X87471255Y30628316D01*
X87464500Y30566134D01*
X87464500Y28869866D01*
X80259500Y28869866D01*
X80259500Y33462000D01*
X91533526Y33462000D01*
X91553391Y33209597D01*
X91612495Y32963409D01*
X91709384Y32729498D01*
X91841672Y32513624D01*
X92006102Y32321102D01*
X92198624Y32156672D01*
X92414498Y32024384D01*
X92419068Y32022491D01*
X92419072Y32022489D01*
X92616017Y31940912D01*
X92648409Y31927495D01*
X92695611Y31916163D01*
X92889784Y31869546D01*
X92889790Y31869545D01*
X92894597Y31868391D01*
X93147000Y31848526D01*
X93399403Y31868391D01*
X93404210Y31869545D01*
X93404216Y31869546D01*
X93506801Y31894175D01*
X93542769Y31902810D01*
X93613675Y31899263D01*
X93661276Y31869386D01*
X95161429Y30369233D01*
X95195455Y30306921D01*
X95190390Y30236106D01*
X95186529Y30226889D01*
X95158716Y30167243D01*
X95157292Y30161928D01*
X95108467Y29979711D01*
X95099457Y29946087D01*
X95079502Y29718000D01*
X95099457Y29489913D01*
X95158716Y29268757D01*
X95161039Y29263776D01*
X95161039Y29263775D01*
X95253151Y29066238D01*
X95253154Y29066233D01*
X95255477Y29061251D01*
X95258634Y29056743D01*
X95371250Y28895911D01*
X95386802Y28873700D01*
X95548700Y28711802D01*
X95553208Y28708645D01*
X95553211Y28708643D01*
X95631389Y28653902D01*
X95736251Y28580477D01*
X95741233Y28578154D01*
X95741238Y28578151D01*
X95929766Y28490240D01*
X95943757Y28483716D01*
X95949065Y28482294D01*
X95949067Y28482293D01*
X96159598Y28425881D01*
X96159600Y28425881D01*
X96164913Y28424457D01*
X96393000Y28404502D01*
X96621087Y28424457D01*
X96626400Y28425881D01*
X96626402Y28425881D01*
X96836933Y28482293D01*
X96836935Y28482294D01*
X96842243Y28483716D01*
X96856234Y28490240D01*
X97044762Y28578151D01*
X97044767Y28578154D01*
X97049749Y28580477D01*
X97154611Y28653902D01*
X97232789Y28708643D01*
X97232792Y28708645D01*
X97237300Y28711802D01*
X97399198Y28873700D01*
X97414751Y28895911D01*
X97527366Y29056743D01*
X97530523Y29061251D01*
X97532846Y29066233D01*
X97532849Y29066238D01*
X97624961Y29263775D01*
X97624961Y29263776D01*
X97627284Y29268757D01*
X97686543Y29489913D01*
X97706498Y29718000D01*
X97686543Y29946087D01*
X97678585Y29975788D01*
X97628707Y30161933D01*
X97628706Y30161935D01*
X97627284Y30167243D01*
X97587484Y30252596D01*
X97532849Y30369762D01*
X97532846Y30369767D01*
X97530523Y30374749D01*
X97399198Y30562300D01*
X97237300Y30724198D01*
X97232792Y30727355D01*
X97232789Y30727357D01*
X97128084Y30800672D01*
X97049749Y30855523D01*
X97044767Y30857846D01*
X97044762Y30857849D01*
X96939409Y30906975D01*
X96842243Y30952284D01*
X96806547Y30961849D01*
X96768083Y30972155D01*
X96728428Y30982781D01*
X96671944Y31015393D01*
X94739614Y32947724D01*
X94705588Y33010036D01*
X94706190Y33066233D01*
X94739454Y33204784D01*
X94739455Y33204790D01*
X94740609Y33209597D01*
X94760474Y33462000D01*
X94740609Y33714403D01*
X94681505Y33960591D01*
X94584616Y34194502D01*
X94452328Y34410376D01*
X94287898Y34602898D01*
X94095376Y34767328D01*
X93879502Y34899616D01*
X93874932Y34901509D01*
X93874928Y34901511D01*
X93650164Y34994611D01*
X93650162Y34994612D01*
X93645591Y34996505D01*
X93560968Y35016821D01*
X93404216Y35054454D01*
X93404210Y35054455D01*
X93399403Y35055609D01*
X93147000Y35075474D01*
X92894597Y35055609D01*
X92889790Y35054455D01*
X92889784Y35054454D01*
X92733032Y35016821D01*
X92648409Y34996505D01*
X92643838Y34994612D01*
X92643836Y34994611D01*
X92419072Y34901511D01*
X92419068Y34901509D01*
X92414498Y34899616D01*
X92198624Y34767328D01*
X92006102Y34602898D01*
X91841672Y34410376D01*
X91709384Y34194502D01*
X91612495Y33960591D01*
X91553391Y33714403D01*
X91533526Y33462000D01*
X80259500Y33462000D01*
X80259500Y34512203D01*
X80279502Y34580324D01*
X80319665Y34619636D01*
X80360301Y34644538D01*
X80445376Y34696672D01*
X80637898Y34861102D01*
X80802328Y35053624D01*
X80934616Y35269498D01*
X81031505Y35503409D01*
X81090609Y35749597D01*
X81110474Y36002000D01*
X81090609Y36254403D01*
X81070600Y36337750D01*
X81032660Y36495779D01*
X81031505Y36500591D01*
X81029611Y36505164D01*
X80936511Y36729928D01*
X80936509Y36729932D01*
X80934616Y36734502D01*
X80802328Y36950376D01*
X80799121Y36954131D01*
X80799118Y36954135D01*
X80777596Y36979333D01*
X80748565Y37044122D01*
X80759170Y37114322D01*
X80806044Y37167645D01*
X80862753Y37186713D01*
X80907650Y37190522D01*
X80991409Y37197629D01*
X80991413Y37197630D01*
X80996720Y37198080D01*
X81001875Y37199418D01*
X81001881Y37199419D01*
X81214703Y37254657D01*
X81214707Y37254658D01*
X81219872Y37255999D01*
X81224738Y37258191D01*
X81224741Y37258192D01*
X81425202Y37348493D01*
X81430075Y37350688D01*
X81621319Y37479441D01*
X81634272Y37491797D01*
X81784278Y37634897D01*
X81788135Y37638576D01*
X81925754Y37823542D01*
X82030240Y38029051D01*
X82043274Y38071025D01*
X82097024Y38244129D01*
X82098607Y38249227D01*
X82099308Y38254516D01*
X82128198Y38472489D01*
X82128198Y38472494D01*
X82128898Y38477774D01*
X82124076Y38606226D01*
X89245102Y38606226D01*
X89253751Y38375842D01*
X89301093Y38150209D01*
X89385776Y37935779D01*
X89505377Y37738683D01*
X89508874Y37734653D01*
X89612984Y37614677D01*
X89656477Y37564555D01*
X89660608Y37561168D01*
X89830627Y37421760D01*
X89830633Y37421756D01*
X89834755Y37418376D01*
X89839391Y37415737D01*
X89839394Y37415735D01*
X89948422Y37353673D01*
X90035114Y37304325D01*
X90251825Y37225663D01*
X90257074Y37224714D01*
X90257077Y37224713D01*
X90474608Y37185377D01*
X90474615Y37185376D01*
X90478692Y37184639D01*
X90496414Y37183803D01*
X90501356Y37183570D01*
X90501363Y37183570D01*
X90502844Y37183500D01*
X90664890Y37183500D01*
X90731809Y37189178D01*
X90831409Y37197629D01*
X90831413Y37197630D01*
X90836720Y37198080D01*
X90841875Y37199418D01*
X90841881Y37199419D01*
X91054703Y37254657D01*
X91054707Y37254658D01*
X91059872Y37255999D01*
X91064738Y37258191D01*
X91064741Y37258192D01*
X91265202Y37348493D01*
X91270075Y37350688D01*
X91461319Y37479441D01*
X91474272Y37491797D01*
X91624278Y37634897D01*
X91628135Y37638576D01*
X91765754Y37823542D01*
X91870240Y38029051D01*
X91883274Y38071025D01*
X91937024Y38244129D01*
X91938607Y38249227D01*
X91939308Y38254516D01*
X91956493Y38384179D01*
X93178500Y38384179D01*
X93218060Y38071025D01*
X93296557Y37765298D01*
X93298010Y37761629D01*
X93298010Y37761628D01*
X93408279Y37483122D01*
X93412753Y37471821D01*
X93414659Y37468353D01*
X93414660Y37468352D01*
X93548603Y37224713D01*
X93564816Y37195221D01*
X93750346Y36939860D01*
X93929577Y36748999D01*
X93947486Y36729928D01*
X93966418Y36709767D01*
X94209625Y36508568D01*
X94476131Y36339438D01*
X94479710Y36337754D01*
X94479717Y36337750D01*
X94758144Y36206733D01*
X94758148Y36206731D01*
X94761734Y36205044D01*
X95061928Y36107505D01*
X95371980Y36048359D01*
X95608162Y36033500D01*
X95765838Y36033500D01*
X96002020Y36048359D01*
X96312072Y36107505D01*
X96612266Y36205044D01*
X96615852Y36206731D01*
X96615856Y36206733D01*
X96894283Y36337750D01*
X96894290Y36337754D01*
X96897869Y36339438D01*
X97164375Y36508568D01*
X97407582Y36709767D01*
X97426515Y36729928D01*
X97444423Y36748999D01*
X97623654Y36939860D01*
X97809184Y37195221D01*
X97825398Y37224713D01*
X97959340Y37468352D01*
X97959341Y37468353D01*
X97961247Y37471821D01*
X97965722Y37483122D01*
X98075990Y37761628D01*
X98075990Y37761629D01*
X98077443Y37765298D01*
X98155940Y38071025D01*
X98195500Y38384179D01*
X98195500Y38699821D01*
X98155940Y39012975D01*
X98077443Y39318702D01*
X98027270Y39445424D01*
X97962702Y39608505D01*
X97962700Y39608510D01*
X97961247Y39612179D01*
X97894653Y39733312D01*
X97811093Y39885307D01*
X97811091Y39885310D01*
X97809184Y39888779D01*
X97623654Y40144140D01*
X97407582Y40374233D01*
X97164375Y40575432D01*
X96897869Y40744562D01*
X96894290Y40746246D01*
X96894283Y40746250D01*
X96615856Y40877267D01*
X96615852Y40877269D01*
X96612266Y40878956D01*
X96312072Y40976495D01*
X96002020Y41035641D01*
X95765838Y41050500D01*
X95608162Y41050500D01*
X95371980Y41035641D01*
X95061928Y40976495D01*
X94761734Y40878956D01*
X94758148Y40877269D01*
X94758144Y40877267D01*
X94479717Y40746250D01*
X94479710Y40746246D01*
X94476131Y40744562D01*
X94209625Y40575432D01*
X93966418Y40374233D01*
X93750346Y40144140D01*
X93564816Y39888779D01*
X93562909Y39885310D01*
X93562907Y39885307D01*
X93479347Y39733312D01*
X93412753Y39612179D01*
X93411300Y39608510D01*
X93411298Y39608505D01*
X93346730Y39445424D01*
X93296557Y39318702D01*
X93218060Y39012975D01*
X93178500Y38699821D01*
X93178500Y38384179D01*
X91956493Y38384179D01*
X91968198Y38472489D01*
X91968198Y38472494D01*
X91968898Y38477774D01*
X91960249Y38708158D01*
X91912907Y38933791D01*
X91828224Y39148221D01*
X91708623Y39345317D01*
X91621755Y39445424D01*
X91561023Y39515412D01*
X91561021Y39515414D01*
X91557523Y39519445D01*
X91515970Y39553516D01*
X91383373Y39662240D01*
X91383367Y39662244D01*
X91379245Y39665624D01*
X91374609Y39668263D01*
X91374606Y39668265D01*
X91183529Y39777032D01*
X91178886Y39779675D01*
X90962175Y39858337D01*
X90956926Y39859286D01*
X90956923Y39859287D01*
X90739392Y39898623D01*
X90739385Y39898624D01*
X90735308Y39899361D01*
X90717586Y39900197D01*
X90712644Y39900430D01*
X90712637Y39900430D01*
X90711156Y39900500D01*
X90549110Y39900500D01*
X90482191Y39894822D01*
X90382591Y39886371D01*
X90382587Y39886370D01*
X90377280Y39885920D01*
X90372125Y39884582D01*
X90372119Y39884581D01*
X90159297Y39829343D01*
X90159293Y39829342D01*
X90154128Y39828001D01*
X90149262Y39825809D01*
X90149259Y39825808D01*
X90040980Y39777032D01*
X89943925Y39733312D01*
X89752681Y39604559D01*
X89585865Y39445424D01*
X89448246Y39260458D01*
X89343760Y39054949D01*
X89342178Y39049855D01*
X89342177Y39049852D01*
X89280115Y38849980D01*
X89275393Y38834773D01*
X89274692Y38829484D01*
X89259304Y38713377D01*
X89245102Y38606226D01*
X82124076Y38606226D01*
X82120249Y38708158D01*
X82072907Y38933791D01*
X81988224Y39148221D01*
X81868623Y39345317D01*
X81781755Y39445424D01*
X81721023Y39515412D01*
X81721021Y39515414D01*
X81717523Y39519445D01*
X81675970Y39553516D01*
X81543373Y39662240D01*
X81543367Y39662244D01*
X81539245Y39665624D01*
X81534609Y39668263D01*
X81534606Y39668265D01*
X81343529Y39777032D01*
X81338886Y39779675D01*
X81122175Y39858337D01*
X81116926Y39859286D01*
X81116923Y39859287D01*
X80899392Y39898623D01*
X80899385Y39898624D01*
X80895308Y39899361D01*
X80877586Y39900197D01*
X80872644Y39900430D01*
X80872637Y39900430D01*
X80871156Y39900500D01*
X80709110Y39900500D01*
X80642191Y39894822D01*
X80542591Y39886371D01*
X80542587Y39886370D01*
X80537280Y39885920D01*
X80417153Y39854741D01*
X80346194Y39856988D01*
X80287712Y39897242D01*
X80260278Y39962724D01*
X80259500Y39976700D01*
X80259500Y46133972D01*
X80279502Y46202093D01*
X80296405Y46223067D01*
X82755204Y48681866D01*
X87464500Y48681866D01*
X87471255Y48619684D01*
X87522385Y48483295D01*
X87609739Y48366739D01*
X87726295Y48279385D01*
X87862684Y48228255D01*
X87924866Y48221500D01*
X89621134Y48221500D01*
X89683316Y48228255D01*
X89819705Y48279385D01*
X89936261Y48366739D01*
X90023615Y48483295D01*
X90074745Y48619684D01*
X90081500Y48681866D01*
X90081500Y50378134D01*
X90074745Y50440316D01*
X90023615Y50576705D01*
X89936261Y50693261D01*
X89819705Y50780615D01*
X89683316Y50831745D01*
X89621134Y50838500D01*
X87924866Y50838500D01*
X87862684Y50831745D01*
X87726295Y50780615D01*
X87609739Y50693261D01*
X87522385Y50576705D01*
X87471255Y50440316D01*
X87464500Y50378134D01*
X87464500Y48681866D01*
X82755204Y48681866D01*
X89275933Y55202595D01*
X89338245Y55236621D01*
X89365028Y55239500D01*
X92601994Y55239500D01*
X92670115Y55219498D01*
X92716608Y55165842D01*
X92726712Y55095568D01*
X92697218Y55030988D01*
X92647721Y54998166D01*
X92648409Y54996505D01*
X92419072Y54901511D01*
X92419068Y54901509D01*
X92414498Y54899616D01*
X92198624Y54767328D01*
X92006102Y54602898D01*
X91841672Y54410376D01*
X91709384Y54194502D01*
X91612495Y53960591D01*
X91553391Y53714403D01*
X91533526Y53462000D01*
X91553391Y53209597D01*
X91612495Y52963409D01*
X91709384Y52729498D01*
X91841672Y52513624D01*
X92006102Y52321102D01*
X92198624Y52156672D01*
X92414498Y52024384D01*
X92419068Y52022491D01*
X92419072Y52022489D01*
X92643836Y51929389D01*
X92648409Y51927495D01*
X92733032Y51907179D01*
X92889784Y51869546D01*
X92889790Y51869545D01*
X92894597Y51868391D01*
X93147000Y51848526D01*
X93399403Y51868391D01*
X93404210Y51869545D01*
X93404216Y51869546D01*
X93475498Y51886660D01*
X93542769Y51902810D01*
X93613675Y51899263D01*
X93661276Y51869386D01*
X95221215Y50309447D01*
X95255241Y50247135D01*
X95250176Y50176320D01*
X95246315Y50167103D01*
X95186529Y50038889D01*
X95158716Y49979243D01*
X95099457Y49758087D01*
X95079502Y49530000D01*
X95099457Y49301913D01*
X95158716Y49080757D01*
X95161039Y49075776D01*
X95161039Y49075775D01*
X95253151Y48878238D01*
X95253154Y48878233D01*
X95255477Y48873251D01*
X95320120Y48780932D01*
X95347123Y48742368D01*
X95386802Y48685700D01*
X95548700Y48523802D01*
X95553208Y48520645D01*
X95553211Y48520643D01*
X95563731Y48513277D01*
X95736251Y48392477D01*
X95741233Y48390154D01*
X95741238Y48390151D01*
X95938775Y48298039D01*
X95943757Y48295716D01*
X95949065Y48294294D01*
X95949067Y48294293D01*
X96159598Y48237881D01*
X96159600Y48237881D01*
X96164913Y48236457D01*
X96393000Y48216502D01*
X96621087Y48236457D01*
X96626400Y48237881D01*
X96626402Y48237881D01*
X96836933Y48294293D01*
X96836935Y48294294D01*
X96842243Y48295716D01*
X96847225Y48298039D01*
X97044762Y48390151D01*
X97044767Y48390154D01*
X97049749Y48392477D01*
X97222269Y48513277D01*
X97232789Y48520643D01*
X97232792Y48520645D01*
X97237300Y48523802D01*
X97399198Y48685700D01*
X97438878Y48742368D01*
X97465880Y48780932D01*
X97530523Y48873251D01*
X97532846Y48878233D01*
X97532849Y48878238D01*
X97624961Y49075775D01*
X97624961Y49075776D01*
X97627284Y49080757D01*
X97686543Y49301913D01*
X97706498Y49530000D01*
X97686543Y49758087D01*
X97627284Y49979243D01*
X97562152Y50118921D01*
X97532849Y50181762D01*
X97532846Y50181767D01*
X97530523Y50186749D01*
X97399198Y50374300D01*
X97237300Y50536198D01*
X97232792Y50539355D01*
X97232789Y50539357D01*
X97129124Y50611944D01*
X97049749Y50667523D01*
X97018294Y50682190D01*
X96982877Y50709418D01*
X96981946Y50708435D01*
X96925396Y50762005D01*
X96922954Y50764383D01*
X94739614Y52947724D01*
X94705588Y53010036D01*
X94706190Y53066233D01*
X94739454Y53204784D01*
X94739455Y53204790D01*
X94740609Y53209597D01*
X94760474Y53462000D01*
X94740609Y53714403D01*
X94681505Y53960591D01*
X94584616Y54194502D01*
X94452328Y54410376D01*
X94287898Y54602898D01*
X94095376Y54767328D01*
X93879502Y54899616D01*
X93874932Y54901509D01*
X93874928Y54901511D01*
X93645591Y54996505D01*
X93646325Y54998276D01*
X93594457Y55033749D01*
X93566826Y55099148D01*
X93578939Y55169103D01*
X93626949Y55221406D01*
X93692006Y55239500D01*
X98007203Y55239500D01*
X98075324Y55219498D01*
X98114636Y55179335D01*
X98191672Y55053624D01*
X98356102Y54861102D01*
X98548624Y54696672D01*
X98764498Y54564384D01*
X98769068Y54562491D01*
X98769072Y54562489D01*
X98890474Y54512203D01*
X98998409Y54467495D01*
X99083032Y54447179D01*
X99239784Y54409546D01*
X99239790Y54409545D01*
X99244597Y54408391D01*
X99497000Y54388526D01*
X99749403Y54408391D01*
X99754210Y54409545D01*
X99754216Y54409546D01*
X99910968Y54447179D01*
X99995591Y54467495D01*
X100103526Y54512203D01*
X100224928Y54562489D01*
X100224932Y54562491D01*
X100229502Y54564384D01*
X100445376Y54696672D01*
X100637898Y54861102D01*
X100802328Y55053624D01*
X100934616Y55269498D01*
X101031505Y55503409D01*
X101090609Y55749597D01*
X101110474Y56002000D01*
X101090609Y56254403D01*
X101070600Y56337750D01*
X101032660Y56495779D01*
X101031505Y56500591D01*
X101029611Y56505164D01*
X100936511Y56729928D01*
X100936509Y56729932D01*
X100934616Y56734502D01*
X100802328Y56950376D01*
X100799121Y56954131D01*
X100799118Y56954135D01*
X100777596Y56979333D01*
X100748565Y57044122D01*
X100759170Y57114322D01*
X100806044Y57167645D01*
X100862753Y57186713D01*
X100907650Y57190522D01*
X100991409Y57197629D01*
X100991413Y57197630D01*
X100996720Y57198080D01*
X101001875Y57199418D01*
X101001881Y57199419D01*
X101214703Y57254657D01*
X101214707Y57254658D01*
X101219872Y57255999D01*
X101224738Y57258191D01*
X101224741Y57258192D01*
X101425202Y57348493D01*
X101430075Y57350688D01*
X101621319Y57479441D01*
X101788135Y57638576D01*
X101925754Y57823542D01*
X102030240Y58029051D01*
X102043274Y58071025D01*
X102097024Y58244129D01*
X102098607Y58249227D01*
X102099308Y58254516D01*
X102128198Y58472489D01*
X102128198Y58472494D01*
X102128898Y58477774D01*
X102120249Y58708158D01*
X102072907Y58933791D01*
X101988224Y59148221D01*
X101868623Y59345317D01*
X101778791Y59448840D01*
X101721023Y59515412D01*
X101721021Y59515414D01*
X101717523Y59519445D01*
X101675970Y59553516D01*
X101543373Y59662240D01*
X101543367Y59662244D01*
X101539245Y59665624D01*
X101534609Y59668263D01*
X101534606Y59668265D01*
X101343529Y59777032D01*
X101338886Y59779675D01*
X101122175Y59858337D01*
X101116926Y59859286D01*
X101116923Y59859287D01*
X100899392Y59898623D01*
X100899385Y59898624D01*
X100895308Y59899361D01*
X100877586Y59900197D01*
X100872644Y59900430D01*
X100872637Y59900430D01*
X100871156Y59900500D01*
X100709110Y59900500D01*
X100642191Y59894822D01*
X100542591Y59886371D01*
X100542587Y59886370D01*
X100537280Y59885920D01*
X100532125Y59884582D01*
X100532119Y59884581D01*
X100319297Y59829343D01*
X100319293Y59829342D01*
X100314128Y59828001D01*
X100309262Y59825809D01*
X100309259Y59825808D01*
X100200980Y59777032D01*
X100103925Y59733312D01*
X99912681Y59604559D01*
X99745865Y59445424D01*
X99608246Y59260458D01*
X99503760Y59054949D01*
X99502178Y59049855D01*
X99502177Y59049852D01*
X99454292Y58895636D01*
X99435393Y58834773D01*
X99434692Y58829484D01*
X99419304Y58713377D01*
X99405102Y58606226D01*
X99413751Y58375842D01*
X99461093Y58150209D01*
X99545776Y57935779D01*
X99624739Y57805653D01*
X99642977Y57737041D01*
X99621226Y57669459D01*
X99566390Y57624364D01*
X99507139Y57614677D01*
X99501939Y57615086D01*
X99501930Y57615086D01*
X99497000Y57615474D01*
X99244597Y57595609D01*
X99239790Y57594455D01*
X99239784Y57594454D01*
X99083032Y57556821D01*
X98998409Y57536505D01*
X98993838Y57534612D01*
X98993836Y57534611D01*
X98769072Y57441511D01*
X98769068Y57441509D01*
X98764498Y57439616D01*
X98548624Y57307328D01*
X98356102Y57142898D01*
X98191672Y56950376D01*
X98165969Y56908432D01*
X98114636Y56824665D01*
X98061988Y56777034D01*
X98007203Y56764500D01*
X97743536Y56764500D01*
X97675415Y56784502D01*
X97628922Y56838158D01*
X97618818Y56908432D01*
X97641600Y56964561D01*
X97809184Y57195221D01*
X97825398Y57224713D01*
X97959340Y57468352D01*
X97959341Y57468353D01*
X97961247Y57471821D01*
X97965722Y57483122D01*
X98075990Y57761628D01*
X98075990Y57761629D01*
X98077443Y57765298D01*
X98155940Y58071025D01*
X98195500Y58384179D01*
X98195500Y58699821D01*
X98155940Y59012975D01*
X98077443Y59318702D01*
X98025918Y59448840D01*
X97962702Y59608505D01*
X97962700Y59608510D01*
X97961247Y59612179D01*
X97894653Y59733312D01*
X97811093Y59885307D01*
X97811091Y59885310D01*
X97809184Y59888779D01*
X97651728Y60105500D01*
X97625982Y60140936D01*
X97625981Y60140938D01*
X97623654Y60144140D01*
X97407582Y60374233D01*
X97164375Y60575432D01*
X96897869Y60744562D01*
X96894290Y60746246D01*
X96894283Y60746250D01*
X96615856Y60877267D01*
X96615852Y60877269D01*
X96612266Y60878956D01*
X96589498Y60886354D01*
X96401820Y60947334D01*
X96312072Y60976495D01*
X96002020Y61035641D01*
X95765838Y61050500D01*
X95608162Y61050500D01*
X95371980Y61035641D01*
X95061928Y60976495D01*
X94972180Y60947334D01*
X94784503Y60886354D01*
X94761734Y60878956D01*
X94758148Y60877269D01*
X94758144Y60877267D01*
X94479717Y60746250D01*
X94479710Y60746246D01*
X94476131Y60744562D01*
X94209625Y60575432D01*
X93966418Y60374233D01*
X93750346Y60144140D01*
X93748019Y60140938D01*
X93748018Y60140936D01*
X93722272Y60105500D01*
X93564816Y59888779D01*
X93562909Y59885310D01*
X93562907Y59885307D01*
X93479347Y59733312D01*
X93412753Y59612179D01*
X93411300Y59608510D01*
X93411298Y59608505D01*
X93348082Y59448840D01*
X93296557Y59318702D01*
X93218060Y59012975D01*
X93178500Y58699821D01*
X93178500Y58384179D01*
X93218060Y58071025D01*
X93296557Y57765298D01*
X93298010Y57761629D01*
X93298010Y57761628D01*
X93408279Y57483122D01*
X93412753Y57471821D01*
X93414659Y57468353D01*
X93414660Y57468352D01*
X93548603Y57224713D01*
X93564816Y57195221D01*
X93732400Y56964561D01*
X93756259Y56897693D01*
X93740178Y56828542D01*
X93689264Y56779061D01*
X93630464Y56764500D01*
X89064376Y56764500D01*
X89045426Y56765933D01*
X89031027Y56768124D01*
X89031021Y56768124D01*
X89023792Y56769224D01*
X89016500Y56768631D01*
X89016497Y56768631D01*
X88970817Y56764915D01*
X88960602Y56764500D01*
X88952475Y56764500D01*
X88948839Y56764076D01*
X88948837Y56764076D01*
X88945385Y56763673D01*
X88924076Y56761189D01*
X88919756Y56760762D01*
X88846574Y56754809D01*
X88839612Y56752553D01*
X88833624Y56751357D01*
X88827667Y56749949D01*
X88820393Y56749101D01*
X88813511Y56746603D01*
X88813507Y56746602D01*
X88751393Y56724055D01*
X88747289Y56722645D01*
X88677425Y56700013D01*
X88671162Y56696213D01*
X88665620Y56693675D01*
X88660144Y56690933D01*
X88653259Y56688434D01*
X88647135Y56684419D01*
X88591868Y56648185D01*
X88588200Y56645870D01*
X88525419Y56607773D01*
X88521214Y56604059D01*
X88521211Y56604057D01*
X88516995Y56600333D01*
X88516969Y56600362D01*
X88514038Y56597762D01*
X88510684Y56594958D01*
X88504565Y56590946D01*
X88499533Y56585634D01*
X88451012Y56534414D01*
X88448634Y56531972D01*
X80474595Y48557933D01*
X80412283Y48523907D01*
X80341468Y48528972D01*
X80284632Y48571519D01*
X80259821Y48638039D01*
X80259500Y48647028D01*
X80259500Y54512203D01*
X80279502Y54580324D01*
X80319665Y54619636D01*
X80360301Y54644538D01*
X80445376Y54696672D01*
X80637898Y54861102D01*
X80802328Y55053624D01*
X80934616Y55269498D01*
X81031505Y55503409D01*
X81090609Y55749597D01*
X81110474Y56002000D01*
X81090609Y56254403D01*
X81070600Y56337750D01*
X81032660Y56495779D01*
X81031505Y56500591D01*
X81029611Y56505164D01*
X80936511Y56729928D01*
X80936509Y56729932D01*
X80934616Y56734502D01*
X80802328Y56950376D01*
X80799121Y56954131D01*
X80799118Y56954135D01*
X80777596Y56979333D01*
X80748565Y57044122D01*
X80759170Y57114322D01*
X80806044Y57167645D01*
X80862753Y57186713D01*
X80907650Y57190522D01*
X80991409Y57197629D01*
X80991413Y57197630D01*
X80996720Y57198080D01*
X81001875Y57199418D01*
X81001881Y57199419D01*
X81214703Y57254657D01*
X81214707Y57254658D01*
X81219872Y57255999D01*
X81224738Y57258191D01*
X81224741Y57258192D01*
X81425202Y57348493D01*
X81430075Y57350688D01*
X81621319Y57479441D01*
X81788135Y57638576D01*
X81925754Y57823542D01*
X82030240Y58029051D01*
X82043274Y58071025D01*
X82097024Y58244129D01*
X82098607Y58249227D01*
X82099308Y58254516D01*
X82128198Y58472489D01*
X82128198Y58472494D01*
X82128898Y58477774D01*
X82124076Y58606226D01*
X89245102Y58606226D01*
X89253751Y58375842D01*
X89301093Y58150209D01*
X89385776Y57935779D01*
X89505377Y57738683D01*
X89508874Y57734653D01*
X89612984Y57614677D01*
X89656477Y57564555D01*
X89660608Y57561168D01*
X89830627Y57421760D01*
X89830633Y57421756D01*
X89834755Y57418376D01*
X89839391Y57415737D01*
X89839394Y57415735D01*
X89948422Y57353673D01*
X90035114Y57304325D01*
X90251825Y57225663D01*
X90257074Y57224714D01*
X90257077Y57224713D01*
X90474608Y57185377D01*
X90474615Y57185376D01*
X90478692Y57184639D01*
X90496414Y57183803D01*
X90501356Y57183570D01*
X90501363Y57183570D01*
X90502844Y57183500D01*
X90664890Y57183500D01*
X90731809Y57189178D01*
X90831409Y57197629D01*
X90831413Y57197630D01*
X90836720Y57198080D01*
X90841875Y57199418D01*
X90841881Y57199419D01*
X91054703Y57254657D01*
X91054707Y57254658D01*
X91059872Y57255999D01*
X91064738Y57258191D01*
X91064741Y57258192D01*
X91265202Y57348493D01*
X91270075Y57350688D01*
X91461319Y57479441D01*
X91628135Y57638576D01*
X91765754Y57823542D01*
X91870240Y58029051D01*
X91883274Y58071025D01*
X91937024Y58244129D01*
X91938607Y58249227D01*
X91939308Y58254516D01*
X91968198Y58472489D01*
X91968198Y58472494D01*
X91968898Y58477774D01*
X91960249Y58708158D01*
X91912907Y58933791D01*
X91828224Y59148221D01*
X91708623Y59345317D01*
X91618791Y59448840D01*
X91561023Y59515412D01*
X91561021Y59515414D01*
X91557523Y59519445D01*
X91515970Y59553516D01*
X91383373Y59662240D01*
X91383367Y59662244D01*
X91379245Y59665624D01*
X91374609Y59668263D01*
X91374606Y59668265D01*
X91183529Y59777032D01*
X91178886Y59779675D01*
X90962175Y59858337D01*
X90956926Y59859286D01*
X90956923Y59859287D01*
X90739392Y59898623D01*
X90739385Y59898624D01*
X90735308Y59899361D01*
X90717586Y59900197D01*
X90712644Y59900430D01*
X90712637Y59900430D01*
X90711156Y59900500D01*
X90549110Y59900500D01*
X90482191Y59894822D01*
X90382591Y59886371D01*
X90382587Y59886370D01*
X90377280Y59885920D01*
X90372125Y59884582D01*
X90372119Y59884581D01*
X90159297Y59829343D01*
X90159293Y59829342D01*
X90154128Y59828001D01*
X90149262Y59825809D01*
X90149259Y59825808D01*
X90040980Y59777032D01*
X89943925Y59733312D01*
X89752681Y59604559D01*
X89585865Y59445424D01*
X89448246Y59260458D01*
X89343760Y59054949D01*
X89342178Y59049855D01*
X89342177Y59049852D01*
X89294292Y58895636D01*
X89275393Y58834773D01*
X89274692Y58829484D01*
X89259304Y58713377D01*
X89245102Y58606226D01*
X82124076Y58606226D01*
X82120249Y58708158D01*
X82072907Y58933791D01*
X81988224Y59148221D01*
X81868623Y59345317D01*
X81778791Y59448840D01*
X81721023Y59515412D01*
X81721021Y59515414D01*
X81717523Y59519445D01*
X81675970Y59553516D01*
X81543373Y59662240D01*
X81543367Y59662244D01*
X81539245Y59665624D01*
X81534609Y59668263D01*
X81534606Y59668265D01*
X81343529Y59777032D01*
X81338886Y59779675D01*
X81122175Y59858337D01*
X81116926Y59859286D01*
X81116923Y59859287D01*
X80899392Y59898623D01*
X80899385Y59898624D01*
X80895308Y59899361D01*
X80877586Y59900197D01*
X80872644Y59900430D01*
X80872637Y59900430D01*
X80871156Y59900500D01*
X80709110Y59900500D01*
X80642191Y59894822D01*
X80542591Y59886371D01*
X80542587Y59886370D01*
X80537280Y59885920D01*
X80532125Y59884582D01*
X80532119Y59884581D01*
X80319297Y59829343D01*
X80319293Y59829342D01*
X80314128Y59828001D01*
X80309262Y59825809D01*
X80309259Y59825808D01*
X80200980Y59777032D01*
X80103925Y59733312D01*
X79912681Y59604559D01*
X79745865Y59445424D01*
X79608246Y59260458D01*
X79503760Y59054949D01*
X79502178Y59049855D01*
X79502177Y59049852D01*
X79454292Y58895636D01*
X79435393Y58834773D01*
X79434692Y58829484D01*
X79419304Y58713377D01*
X79405102Y58606226D01*
X79413751Y58375842D01*
X79461093Y58150209D01*
X79545776Y57935779D01*
X79624739Y57805653D01*
X79642977Y57737041D01*
X79621226Y57669459D01*
X79566390Y57624364D01*
X79507139Y57614677D01*
X79501939Y57615086D01*
X79501930Y57615086D01*
X79497000Y57615474D01*
X79244597Y57595609D01*
X79239790Y57594455D01*
X79239784Y57594454D01*
X79083032Y57556821D01*
X78998409Y57536505D01*
X78993838Y57534612D01*
X78993836Y57534611D01*
X78769072Y57441511D01*
X78769068Y57441509D01*
X78764498Y57439616D01*
X78548624Y57307328D01*
X78356102Y57142898D01*
X78191672Y56950376D01*
X78059384Y56734502D01*
X78057491Y56729932D01*
X78057489Y56729928D01*
X77964389Y56505164D01*
X77962495Y56500591D01*
X77961340Y56495779D01*
X77923401Y56337750D01*
X77903391Y56254403D01*
X77883526Y56002000D01*
X77903391Y55749597D01*
X77962495Y55503409D01*
X78059384Y55269498D01*
X78191672Y55053624D01*
X78356102Y54861102D01*
X78548624Y54696672D01*
X78633699Y54644538D01*
X78674335Y54619636D01*
X78721966Y54566988D01*
X78734500Y54512203D01*
X78734500Y48870027D01*
X78714498Y48801906D01*
X78697595Y48780932D01*
X76542347Y46625685D01*
X76542344Y46625682D01*
X76084066Y46167405D01*
X76021754Y46133379D01*
X75994971Y46130500D01*
X61680376Y46130500D01*
X61661426Y46131933D01*
X61647027Y46134124D01*
X61647021Y46134124D01*
X61639792Y46135224D01*
X61632500Y46134631D01*
X61632497Y46134631D01*
X61586817Y46130915D01*
X61576602Y46130500D01*
X61568475Y46130500D01*
X61564839Y46130076D01*
X61564837Y46130076D01*
X61561385Y46129673D01*
X61540076Y46127189D01*
X61535756Y46126762D01*
X61462574Y46120809D01*
X61455612Y46118553D01*
X61449624Y46117357D01*
X61443667Y46115949D01*
X61436393Y46115101D01*
X61429511Y46112603D01*
X61429507Y46112602D01*
X61367393Y46090055D01*
X61363289Y46088645D01*
X61293425Y46066013D01*
X61287162Y46062213D01*
X61281620Y46059675D01*
X61276144Y46056933D01*
X61269259Y46054434D01*
X61263135Y46050419D01*
X61207868Y46014185D01*
X61204200Y46011870D01*
X61141419Y45973773D01*
X61137214Y45970059D01*
X61137211Y45970057D01*
X61132995Y45966333D01*
X61132969Y45966362D01*
X61130038Y45963762D01*
X61126684Y45960958D01*
X61120565Y45956946D01*
X61115533Y45951634D01*
X61067012Y45900414D01*
X61064634Y45897972D01*
X59005472Y43838810D01*
X58991059Y43826423D01*
X58973436Y43813454D01*
X58968692Y43807871D01*
X58968693Y43807871D01*
X58939021Y43772945D01*
X58932091Y43765429D01*
X58926347Y43759685D01*
X58924073Y43756811D01*
X58924067Y43756804D01*
X58908628Y43737289D01*
X58905837Y43733885D01*
X58863055Y43683528D01*
X58863052Y43683524D01*
X58858316Y43677949D01*
X58854988Y43671432D01*
X58851611Y43666368D01*
X58848384Y43661144D01*
X58843840Y43655400D01*
X58840741Y43648769D01*
X58812768Y43588918D01*
X58810837Y43584967D01*
X58777457Y43519596D01*
X58775716Y43512481D01*
X58773579Y43506735D01*
X58771655Y43500952D01*
X58768556Y43494321D01*
X58767066Y43487157D01*
X58753608Y43422453D01*
X58752639Y43418171D01*
X58735196Y43346888D01*
X58734500Y43335670D01*
X58734461Y43335672D01*
X58734228Y43331771D01*
X58733839Y43327412D01*
X58732348Y43320244D01*
X58732546Y43312927D01*
X58734454Y43242423D01*
X58734500Y43239014D01*
X58734500Y37491797D01*
X58714498Y37423676D01*
X58674335Y37384364D01*
X58548624Y37307328D01*
X58356102Y37142898D01*
X58191672Y36950376D01*
X58059384Y36734502D01*
X58057491Y36729932D01*
X58057489Y36729928D01*
X57964389Y36505164D01*
X57962495Y36500591D01*
X57961340Y36495779D01*
X57923401Y36337750D01*
X57903391Y36254403D01*
X57883526Y36002000D01*
X57903391Y35749597D01*
X57962495Y35503409D01*
X58059384Y35269498D01*
X58191672Y35053624D01*
X58356102Y34861102D01*
X58548624Y34696672D01*
X58633699Y34644538D01*
X58674335Y34619636D01*
X58721966Y34566988D01*
X58734500Y34512203D01*
X58734500Y17491797D01*
X58714498Y17423676D01*
X58674335Y17384364D01*
X58548624Y17307328D01*
X58356102Y17142898D01*
X58191672Y16950376D01*
X58059384Y16734502D01*
X58057491Y16729932D01*
X58057489Y16729928D01*
X57964389Y16505164D01*
X57962495Y16500591D01*
X57961340Y16495779D01*
X57906378Y16266843D01*
X57903391Y16254403D01*
X57883526Y16002000D01*
X45299922Y16002000D01*
X44412405Y16889517D01*
X44378379Y16951829D01*
X44375500Y16978612D01*
X44375500Y18606226D01*
X49245102Y18606226D01*
X49253751Y18375842D01*
X49301093Y18150209D01*
X49385776Y17935779D01*
X49505377Y17738683D01*
X49508874Y17734653D01*
X49612984Y17614677D01*
X49656477Y17564555D01*
X49660608Y17561168D01*
X49830627Y17421760D01*
X49830633Y17421756D01*
X49834755Y17418376D01*
X49839391Y17415737D01*
X49839394Y17415735D01*
X49948422Y17353673D01*
X50035114Y17304325D01*
X50251825Y17225663D01*
X50257074Y17224714D01*
X50257077Y17224713D01*
X50474608Y17185377D01*
X50474615Y17185376D01*
X50478692Y17184639D01*
X50496414Y17183803D01*
X50501356Y17183570D01*
X50501363Y17183570D01*
X50502844Y17183500D01*
X50664890Y17183500D01*
X50731809Y17189178D01*
X50831409Y17197629D01*
X50831413Y17197630D01*
X50836720Y17198080D01*
X50841875Y17199418D01*
X50841881Y17199419D01*
X51054703Y17254657D01*
X51054707Y17254658D01*
X51059872Y17255999D01*
X51064738Y17258191D01*
X51064741Y17258192D01*
X51265202Y17348493D01*
X51270075Y17350688D01*
X51461319Y17479441D01*
X51474272Y17491797D01*
X51624278Y17634897D01*
X51628135Y17638576D01*
X51765754Y17823542D01*
X51870240Y18029051D01*
X51883274Y18071025D01*
X51937024Y18244129D01*
X51938607Y18249227D01*
X51939308Y18254516D01*
X51956493Y18384179D01*
X53178500Y18384179D01*
X53218060Y18071025D01*
X53296557Y17765298D01*
X53298010Y17761629D01*
X53298010Y17761628D01*
X53408279Y17483122D01*
X53412753Y17471821D01*
X53414659Y17468353D01*
X53414660Y17468352D01*
X53548603Y17224713D01*
X53564816Y17195221D01*
X53750346Y16939860D01*
X53929577Y16748999D01*
X53947486Y16729928D01*
X53966418Y16709767D01*
X53969469Y16707243D01*
X53969470Y16707242D01*
X54088022Y16609167D01*
X54209625Y16508568D01*
X54476131Y16339438D01*
X54479710Y16337754D01*
X54479717Y16337750D01*
X54758144Y16206733D01*
X54758148Y16206731D01*
X54761734Y16205044D01*
X55061928Y16107505D01*
X55371980Y16048359D01*
X55608162Y16033500D01*
X55765838Y16033500D01*
X56002020Y16048359D01*
X56312072Y16107505D01*
X56612266Y16205044D01*
X56615852Y16206731D01*
X56615856Y16206733D01*
X56894283Y16337750D01*
X56894290Y16337754D01*
X56897869Y16339438D01*
X57164375Y16508568D01*
X57285978Y16609167D01*
X57404530Y16707242D01*
X57404531Y16707243D01*
X57407582Y16709767D01*
X57426515Y16729928D01*
X57444423Y16748999D01*
X57623654Y16939860D01*
X57809184Y17195221D01*
X57825398Y17224713D01*
X57959340Y17468352D01*
X57959341Y17468353D01*
X57961247Y17471821D01*
X57965722Y17483122D01*
X58075990Y17761628D01*
X58075990Y17761629D01*
X58077443Y17765298D01*
X58155940Y18071025D01*
X58195500Y18384179D01*
X58195500Y18699821D01*
X58155940Y19012975D01*
X58077443Y19318702D01*
X58027270Y19445424D01*
X57962702Y19608505D01*
X57962700Y19608510D01*
X57961247Y19612179D01*
X57894653Y19733312D01*
X57811093Y19885307D01*
X57811091Y19885310D01*
X57809184Y19888779D01*
X57623654Y20144140D01*
X57407582Y20374233D01*
X57164375Y20575432D01*
X56897869Y20744562D01*
X56894290Y20746246D01*
X56894283Y20746250D01*
X56615856Y20877267D01*
X56615852Y20877269D01*
X56612266Y20878956D01*
X56312072Y20976495D01*
X56002020Y21035641D01*
X55765838Y21050500D01*
X55608162Y21050500D01*
X55371980Y21035641D01*
X55061928Y20976495D01*
X54761734Y20878956D01*
X54758148Y20877269D01*
X54758144Y20877267D01*
X54479717Y20746250D01*
X54479710Y20746246D01*
X54476131Y20744562D01*
X54209625Y20575432D01*
X53966418Y20374233D01*
X53750346Y20144140D01*
X53564816Y19888779D01*
X53562909Y19885310D01*
X53562907Y19885307D01*
X53479347Y19733312D01*
X53412753Y19612179D01*
X53411300Y19608510D01*
X53411298Y19608505D01*
X53346730Y19445424D01*
X53296557Y19318702D01*
X53218060Y19012975D01*
X53178500Y18699821D01*
X53178500Y18384179D01*
X51956493Y18384179D01*
X51968198Y18472489D01*
X51968198Y18472494D01*
X51968898Y18477774D01*
X51960249Y18708158D01*
X51912907Y18933791D01*
X51828224Y19148221D01*
X51708623Y19345317D01*
X51621755Y19445424D01*
X51561023Y19515412D01*
X51561021Y19515414D01*
X51557523Y19519445D01*
X51515970Y19553516D01*
X51383373Y19662240D01*
X51383367Y19662244D01*
X51379245Y19665624D01*
X51374609Y19668263D01*
X51374606Y19668265D01*
X51183529Y19777032D01*
X51178886Y19779675D01*
X50962175Y19858337D01*
X50956926Y19859286D01*
X50956923Y19859287D01*
X50739392Y19898623D01*
X50739385Y19898624D01*
X50735308Y19899361D01*
X50717586Y19900197D01*
X50712644Y19900430D01*
X50712637Y19900430D01*
X50711156Y19900500D01*
X50549110Y19900500D01*
X50482191Y19894822D01*
X50382591Y19886371D01*
X50382587Y19886370D01*
X50377280Y19885920D01*
X50372125Y19884582D01*
X50372119Y19884581D01*
X50159297Y19829343D01*
X50159293Y19829342D01*
X50154128Y19828001D01*
X50149262Y19825809D01*
X50149259Y19825808D01*
X50040980Y19777032D01*
X49943925Y19733312D01*
X49752681Y19604559D01*
X49585865Y19445424D01*
X49448246Y19260458D01*
X49343760Y19054949D01*
X49342178Y19049855D01*
X49342177Y19049852D01*
X49280115Y18849980D01*
X49275393Y18834773D01*
X49274692Y18829484D01*
X49259304Y18713377D01*
X49245102Y18606226D01*
X44375500Y18606226D01*
X44375500Y31800632D01*
X44376933Y31819583D01*
X44377125Y31820841D01*
X44380223Y31841208D01*
X44379597Y31848914D01*
X44375915Y31894175D01*
X44375500Y31904389D01*
X44375500Y31912525D01*
X44373755Y31927495D01*
X44372190Y31940912D01*
X44371757Y31945291D01*
X44366403Y32011128D01*
X44366402Y32011131D01*
X44365809Y32018427D01*
X44363554Y32025389D01*
X44362354Y32031393D01*
X44360948Y32037340D01*
X44360101Y32044607D01*
X44335053Y32113613D01*
X44333625Y32117773D01*
X44313268Y32180613D01*
X44313266Y32180618D01*
X44311012Y32187575D01*
X44307218Y32193827D01*
X44304666Y32199402D01*
X44301930Y32204865D01*
X44299434Y32211741D01*
X44259181Y32273137D01*
X44256834Y32276856D01*
X44218772Y32339581D01*
X44211332Y32348006D01*
X44211360Y32348031D01*
X44208766Y32350956D01*
X44205961Y32354310D01*
X44201946Y32360435D01*
X44145413Y32413989D01*
X44142972Y32416366D01*
X23929905Y52629433D01*
X23895879Y52691745D01*
X23893000Y52718528D01*
X23893000Y53218158D01*
X23913002Y53286279D01*
X23966658Y53332772D01*
X24036932Y53342876D01*
X24101512Y53313382D01*
X24108095Y53307253D01*
X47326281Y30089067D01*
X47360307Y30026755D01*
X47363186Y29999972D01*
X47363186Y28973866D01*
X47369941Y28911684D01*
X47421071Y28775295D01*
X47508425Y28658739D01*
X47624981Y28571385D01*
X47761370Y28520255D01*
X47823552Y28513500D01*
X49519820Y28513500D01*
X49582002Y28520255D01*
X49718391Y28571385D01*
X49834947Y28658739D01*
X49922301Y28775295D01*
X49973431Y28911684D01*
X49980186Y28973866D01*
X49980186Y30670134D01*
X49973431Y30732316D01*
X49922301Y30868705D01*
X49834947Y30985261D01*
X49718391Y31072615D01*
X49582002Y31123745D01*
X49519820Y31130500D01*
X48493713Y31130500D01*
X48425592Y31150502D01*
X48404618Y31167405D01*
X46110023Y33462000D01*
X51533526Y33462000D01*
X51553391Y33209597D01*
X51612495Y32963409D01*
X51709384Y32729498D01*
X51841672Y32513624D01*
X52006102Y32321102D01*
X52198624Y32156672D01*
X52414498Y32024384D01*
X52419068Y32022491D01*
X52419072Y32022489D01*
X52616017Y31940912D01*
X52648409Y31927495D01*
X52695611Y31916163D01*
X52889784Y31869546D01*
X52889790Y31869545D01*
X52894597Y31868391D01*
X53062478Y31855178D01*
X53143885Y31848771D01*
X53210226Y31823485D01*
X53223094Y31812254D01*
X54955560Y30079788D01*
X54989586Y30017476D01*
X54991986Y29979711D01*
X54978188Y29822000D01*
X54998143Y29593913D01*
X54999567Y29588600D01*
X54999567Y29588598D01*
X55024542Y29495393D01*
X55057402Y29372757D01*
X55059725Y29367776D01*
X55059725Y29367775D01*
X55151837Y29170238D01*
X55151840Y29170233D01*
X55154163Y29165251D01*
X55285488Y28977700D01*
X55447386Y28815802D01*
X55451894Y28812645D01*
X55451897Y28812643D01*
X55485643Y28789014D01*
X55634937Y28684477D01*
X55639919Y28682154D01*
X55639924Y28682151D01*
X55752345Y28629729D01*
X55842443Y28587716D01*
X55847751Y28586294D01*
X55847753Y28586293D01*
X56058284Y28529881D01*
X56058286Y28529881D01*
X56063599Y28528457D01*
X56291686Y28508502D01*
X56519773Y28528457D01*
X56525086Y28529881D01*
X56525088Y28529881D01*
X56735619Y28586293D01*
X56735621Y28586294D01*
X56740929Y28587716D01*
X56831027Y28629729D01*
X56943448Y28682151D01*
X56943453Y28682154D01*
X56948435Y28684477D01*
X57097729Y28789014D01*
X57131475Y28812643D01*
X57131478Y28812645D01*
X57135986Y28815802D01*
X57297884Y28977700D01*
X57429209Y29165251D01*
X57431532Y29170233D01*
X57431535Y29170238D01*
X57523647Y29367775D01*
X57523647Y29367776D01*
X57525970Y29372757D01*
X57558831Y29495393D01*
X57583805Y29588598D01*
X57583805Y29588600D01*
X57585229Y29593913D01*
X57605184Y29822000D01*
X57585229Y30050087D01*
X57533724Y30242304D01*
X57527393Y30265933D01*
X57527392Y30265935D01*
X57525970Y30271243D01*
X57442553Y30450133D01*
X57431535Y30473762D01*
X57431532Y30473767D01*
X57429209Y30478749D01*
X57317588Y30638160D01*
X57301043Y30661789D01*
X57301041Y30661792D01*
X57297884Y30666300D01*
X57135986Y30828198D01*
X57131478Y30831355D01*
X57131475Y30831357D01*
X56986689Y30932737D01*
X56948435Y30959523D01*
X56943453Y30961846D01*
X56943448Y30961849D01*
X56745911Y31053961D01*
X56745910Y31053961D01*
X56740929Y31056284D01*
X56735621Y31057706D01*
X56735619Y31057707D01*
X56525088Y31114119D01*
X56525086Y31114119D01*
X56519773Y31115543D01*
X56291686Y31135498D01*
X56286211Y31135019D01*
X56133975Y31121700D01*
X56064370Y31135689D01*
X56033898Y31158126D01*
X54607849Y32584175D01*
X54573823Y32646487D01*
X54578888Y32717302D01*
X54583315Y32727376D01*
X54584616Y32729498D01*
X54681505Y32963409D01*
X54740609Y33209597D01*
X54760474Y33462000D01*
X54740609Y33714403D01*
X54681505Y33960591D01*
X54584616Y34194502D01*
X54452328Y34410376D01*
X54287898Y34602898D01*
X54095376Y34767328D01*
X53879502Y34899616D01*
X53874932Y34901509D01*
X53874928Y34901511D01*
X53650164Y34994611D01*
X53650162Y34994612D01*
X53645591Y34996505D01*
X53560968Y35016821D01*
X53404216Y35054454D01*
X53404210Y35054455D01*
X53399403Y35055609D01*
X53147000Y35075474D01*
X52894597Y35055609D01*
X52889790Y35054455D01*
X52889784Y35054454D01*
X52733032Y35016821D01*
X52648409Y34996505D01*
X52643838Y34994612D01*
X52643836Y34994611D01*
X52419072Y34901511D01*
X52419068Y34901509D01*
X52414498Y34899616D01*
X52198624Y34767328D01*
X52006102Y34602898D01*
X51841672Y34410376D01*
X51709384Y34194502D01*
X51612495Y33960591D01*
X51553391Y33714403D01*
X51533526Y33462000D01*
X46110023Y33462000D01*
X40965797Y38606226D01*
X49245102Y38606226D01*
X49253751Y38375842D01*
X49301093Y38150209D01*
X49385776Y37935779D01*
X49505377Y37738683D01*
X49508874Y37734653D01*
X49612984Y37614677D01*
X49656477Y37564555D01*
X49660608Y37561168D01*
X49830627Y37421760D01*
X49830633Y37421756D01*
X49834755Y37418376D01*
X49839391Y37415737D01*
X49839394Y37415735D01*
X49948422Y37353673D01*
X50035114Y37304325D01*
X50251825Y37225663D01*
X50257074Y37224714D01*
X50257077Y37224713D01*
X50474608Y37185377D01*
X50474615Y37185376D01*
X50478692Y37184639D01*
X50496414Y37183803D01*
X50501356Y37183570D01*
X50501363Y37183570D01*
X50502844Y37183500D01*
X50664890Y37183500D01*
X50731809Y37189178D01*
X50831409Y37197629D01*
X50831413Y37197630D01*
X50836720Y37198080D01*
X50841875Y37199418D01*
X50841881Y37199419D01*
X51054703Y37254657D01*
X51054707Y37254658D01*
X51059872Y37255999D01*
X51064738Y37258191D01*
X51064741Y37258192D01*
X51265202Y37348493D01*
X51270075Y37350688D01*
X51461319Y37479441D01*
X51474272Y37491797D01*
X51624278Y37634897D01*
X51628135Y37638576D01*
X51765754Y37823542D01*
X51870240Y38029051D01*
X51883274Y38071025D01*
X51937024Y38244129D01*
X51938607Y38249227D01*
X51939308Y38254516D01*
X51956493Y38384179D01*
X53178500Y38384179D01*
X53218060Y38071025D01*
X53296557Y37765298D01*
X53298010Y37761629D01*
X53298010Y37761628D01*
X53408279Y37483122D01*
X53412753Y37471821D01*
X53414659Y37468353D01*
X53414660Y37468352D01*
X53548603Y37224713D01*
X53564816Y37195221D01*
X53750346Y36939860D01*
X53929577Y36748999D01*
X53947486Y36729928D01*
X53966418Y36709767D01*
X54209625Y36508568D01*
X54476131Y36339438D01*
X54479710Y36337754D01*
X54479717Y36337750D01*
X54758144Y36206733D01*
X54758148Y36206731D01*
X54761734Y36205044D01*
X55061928Y36107505D01*
X55371980Y36048359D01*
X55608162Y36033500D01*
X55765838Y36033500D01*
X56002020Y36048359D01*
X56312072Y36107505D01*
X56612266Y36205044D01*
X56615852Y36206731D01*
X56615856Y36206733D01*
X56894283Y36337750D01*
X56894290Y36337754D01*
X56897869Y36339438D01*
X57164375Y36508568D01*
X57407582Y36709767D01*
X57426515Y36729928D01*
X57444423Y36748999D01*
X57623654Y36939860D01*
X57809184Y37195221D01*
X57825398Y37224713D01*
X57959340Y37468352D01*
X57959341Y37468353D01*
X57961247Y37471821D01*
X57965722Y37483122D01*
X58075990Y37761628D01*
X58075990Y37761629D01*
X58077443Y37765298D01*
X58155940Y38071025D01*
X58195500Y38384179D01*
X58195500Y38699821D01*
X58155940Y39012975D01*
X58077443Y39318702D01*
X58027270Y39445424D01*
X57962702Y39608505D01*
X57962700Y39608510D01*
X57961247Y39612179D01*
X57894653Y39733312D01*
X57811093Y39885307D01*
X57811091Y39885310D01*
X57809184Y39888779D01*
X57623654Y40144140D01*
X57407582Y40374233D01*
X57164375Y40575432D01*
X56897869Y40744562D01*
X56894290Y40746246D01*
X56894283Y40746250D01*
X56615856Y40877267D01*
X56615852Y40877269D01*
X56612266Y40878956D01*
X56312072Y40976495D01*
X56002020Y41035641D01*
X55765838Y41050500D01*
X55608162Y41050500D01*
X55371980Y41035641D01*
X55061928Y40976495D01*
X54761734Y40878956D01*
X54758148Y40877269D01*
X54758144Y40877267D01*
X54479717Y40746250D01*
X54479710Y40746246D01*
X54476131Y40744562D01*
X54209625Y40575432D01*
X53966418Y40374233D01*
X53750346Y40144140D01*
X53564816Y39888779D01*
X53562909Y39885310D01*
X53562907Y39885307D01*
X53479347Y39733312D01*
X53412753Y39612179D01*
X53411300Y39608510D01*
X53411298Y39608505D01*
X53346730Y39445424D01*
X53296557Y39318702D01*
X53218060Y39012975D01*
X53178500Y38699821D01*
X53178500Y38384179D01*
X51956493Y38384179D01*
X51968198Y38472489D01*
X51968198Y38472494D01*
X51968898Y38477774D01*
X51960249Y38708158D01*
X51912907Y38933791D01*
X51828224Y39148221D01*
X51708623Y39345317D01*
X51621755Y39445424D01*
X51561023Y39515412D01*
X51561021Y39515414D01*
X51557523Y39519445D01*
X51515970Y39553516D01*
X51383373Y39662240D01*
X51383367Y39662244D01*
X51379245Y39665624D01*
X51374609Y39668263D01*
X51374606Y39668265D01*
X51183529Y39777032D01*
X51178886Y39779675D01*
X50962175Y39858337D01*
X50956926Y39859286D01*
X50956923Y39859287D01*
X50739392Y39898623D01*
X50739385Y39898624D01*
X50735308Y39899361D01*
X50717586Y39900197D01*
X50712644Y39900430D01*
X50712637Y39900430D01*
X50711156Y39900500D01*
X50549110Y39900500D01*
X50482191Y39894822D01*
X50382591Y39886371D01*
X50382587Y39886370D01*
X50377280Y39885920D01*
X50372125Y39884582D01*
X50372119Y39884581D01*
X50159297Y39829343D01*
X50159293Y39829342D01*
X50154128Y39828001D01*
X50149262Y39825809D01*
X50149259Y39825808D01*
X50040980Y39777032D01*
X49943925Y39733312D01*
X49752681Y39604559D01*
X49585865Y39445424D01*
X49448246Y39260458D01*
X49343760Y39054949D01*
X49342178Y39049855D01*
X49342177Y39049852D01*
X49280115Y38849980D01*
X49275393Y38834773D01*
X49274692Y38829484D01*
X49259304Y38713377D01*
X49245102Y38606226D01*
X40965797Y38606226D01*
X31019619Y48552405D01*
X30985593Y48614717D01*
X30990658Y48685532D01*
X31033205Y48742368D01*
X31099725Y48767179D01*
X31108714Y48767500D01*
X67530144Y48767500D01*
X67598265Y48747498D01*
X67644758Y48693842D01*
X67655407Y48655107D01*
X67658401Y48627540D01*
X67658402Y48627536D01*
X67659255Y48619684D01*
X67710385Y48483295D01*
X67797739Y48366739D01*
X67914295Y48279385D01*
X68050684Y48228255D01*
X68112866Y48221500D01*
X69809134Y48221500D01*
X69871316Y48228255D01*
X70007705Y48279385D01*
X70124261Y48366739D01*
X70211615Y48483295D01*
X70262745Y48619684D01*
X70269500Y48681866D01*
X70269500Y50378134D01*
X70262745Y50440316D01*
X70211615Y50576705D01*
X70124261Y50693261D01*
X70007705Y50780615D01*
X69871316Y50831745D01*
X69809134Y50838500D01*
X68112866Y50838500D01*
X68050684Y50831745D01*
X67914295Y50780615D01*
X67797739Y50693261D01*
X67710385Y50576705D01*
X67659255Y50440316D01*
X67658402Y50432464D01*
X67658401Y50432460D01*
X67655407Y50404893D01*
X67628166Y50339331D01*
X67569803Y50298904D01*
X67530144Y50292500D01*
X31069027Y50292500D01*
X31000906Y50312502D01*
X30979932Y50329405D01*
X27847337Y53462000D01*
X71533526Y53462000D01*
X71553391Y53209597D01*
X71612495Y52963409D01*
X71709384Y52729498D01*
X71841672Y52513624D01*
X72006102Y52321102D01*
X72198624Y52156672D01*
X72414498Y52024384D01*
X72419068Y52022491D01*
X72419072Y52022489D01*
X72643836Y51929389D01*
X72648409Y51927495D01*
X72733032Y51907179D01*
X72889784Y51869546D01*
X72889790Y51869545D01*
X72894597Y51868391D01*
X73147000Y51848526D01*
X73399403Y51868391D01*
X73404210Y51869545D01*
X73404216Y51869546D01*
X73475498Y51886660D01*
X73542769Y51902810D01*
X73613675Y51899263D01*
X73661276Y51869386D01*
X75349429Y50181233D01*
X75383455Y50118921D01*
X75378390Y50048106D01*
X75374529Y50038889D01*
X75346716Y49979243D01*
X75287457Y49758087D01*
X75267502Y49530000D01*
X75287457Y49301913D01*
X75346716Y49080757D01*
X75349039Y49075776D01*
X75349039Y49075775D01*
X75441151Y48878238D01*
X75441154Y48878233D01*
X75443477Y48873251D01*
X75508120Y48780932D01*
X75535123Y48742368D01*
X75574802Y48685700D01*
X75736700Y48523802D01*
X75741208Y48520645D01*
X75741211Y48520643D01*
X75751731Y48513277D01*
X75924251Y48392477D01*
X75929233Y48390154D01*
X75929238Y48390151D01*
X76126775Y48298039D01*
X76131757Y48295716D01*
X76137065Y48294294D01*
X76137067Y48294293D01*
X76347598Y48237881D01*
X76347600Y48237881D01*
X76352913Y48236457D01*
X76581000Y48216502D01*
X76809087Y48236457D01*
X76814400Y48237881D01*
X76814402Y48237881D01*
X77024933Y48294293D01*
X77024935Y48294294D01*
X77030243Y48295716D01*
X77035225Y48298039D01*
X77232762Y48390151D01*
X77232767Y48390154D01*
X77237749Y48392477D01*
X77410269Y48513277D01*
X77420789Y48520643D01*
X77420792Y48520645D01*
X77425300Y48523802D01*
X77587198Y48685700D01*
X77626878Y48742368D01*
X77653880Y48780932D01*
X77718523Y48873251D01*
X77720846Y48878233D01*
X77720849Y48878238D01*
X77812961Y49075775D01*
X77812961Y49075776D01*
X77815284Y49080757D01*
X77874543Y49301913D01*
X77894498Y49530000D01*
X77874543Y49758087D01*
X77815284Y49979243D01*
X77750152Y50118921D01*
X77720849Y50181762D01*
X77720846Y50181767D01*
X77718523Y50186749D01*
X77587198Y50374300D01*
X77425300Y50536198D01*
X77420792Y50539355D01*
X77420789Y50539357D01*
X77342611Y50594098D01*
X77237749Y50667523D01*
X77232767Y50669846D01*
X77232762Y50669849D01*
X77035225Y50761961D01*
X77035224Y50761961D01*
X77030243Y50764284D01*
X77024935Y50765706D01*
X77024933Y50765707D01*
X76966460Y50781375D01*
X76916429Y50794780D01*
X76859946Y50827392D01*
X74739614Y52947724D01*
X74705588Y53010036D01*
X74706190Y53066233D01*
X74739454Y53204784D01*
X74739455Y53204790D01*
X74740609Y53209597D01*
X74760474Y53462000D01*
X74740609Y53714403D01*
X74681505Y53960591D01*
X74584616Y54194502D01*
X74452328Y54410376D01*
X74287898Y54602898D01*
X74095376Y54767328D01*
X73879502Y54899616D01*
X73874932Y54901509D01*
X73874928Y54901511D01*
X73650164Y54994611D01*
X73650162Y54994612D01*
X73645591Y54996505D01*
X73501958Y55030988D01*
X73404216Y55054454D01*
X73404210Y55054455D01*
X73399403Y55055609D01*
X73147000Y55075474D01*
X72894597Y55055609D01*
X72889790Y55054455D01*
X72889784Y55054454D01*
X72792042Y55030988D01*
X72648409Y54996505D01*
X72643838Y54994612D01*
X72643836Y54994611D01*
X72419072Y54901511D01*
X72419068Y54901509D01*
X72414498Y54899616D01*
X72198624Y54767328D01*
X72006102Y54602898D01*
X71841672Y54410376D01*
X71709384Y54194502D01*
X71612495Y53960591D01*
X71553391Y53714403D01*
X71533526Y53462000D01*
X27847337Y53462000D01*
X22703112Y58606226D01*
X69245102Y58606226D01*
X69253751Y58375842D01*
X69301093Y58150209D01*
X69385776Y57935779D01*
X69505377Y57738683D01*
X69508874Y57734653D01*
X69612984Y57614677D01*
X69656477Y57564555D01*
X69660608Y57561168D01*
X69830627Y57421760D01*
X69830633Y57421756D01*
X69834755Y57418376D01*
X69839391Y57415737D01*
X69839394Y57415735D01*
X69948422Y57353673D01*
X70035114Y57304325D01*
X70251825Y57225663D01*
X70257074Y57224714D01*
X70257077Y57224713D01*
X70474608Y57185377D01*
X70474615Y57185376D01*
X70478692Y57184639D01*
X70496414Y57183803D01*
X70501356Y57183570D01*
X70501363Y57183570D01*
X70502844Y57183500D01*
X70664890Y57183500D01*
X70731809Y57189178D01*
X70831409Y57197629D01*
X70831413Y57197630D01*
X70836720Y57198080D01*
X70841875Y57199418D01*
X70841881Y57199419D01*
X71054703Y57254657D01*
X71054707Y57254658D01*
X71059872Y57255999D01*
X71064738Y57258191D01*
X71064741Y57258192D01*
X71265202Y57348493D01*
X71270075Y57350688D01*
X71461319Y57479441D01*
X71628135Y57638576D01*
X71765754Y57823542D01*
X71870240Y58029051D01*
X71883274Y58071025D01*
X71937024Y58244129D01*
X71938607Y58249227D01*
X71939308Y58254516D01*
X71956493Y58384179D01*
X73178500Y58384179D01*
X73218060Y58071025D01*
X73296557Y57765298D01*
X73298010Y57761629D01*
X73298010Y57761628D01*
X73408279Y57483122D01*
X73412753Y57471821D01*
X73414659Y57468353D01*
X73414660Y57468352D01*
X73548603Y57224713D01*
X73564816Y57195221D01*
X73750346Y56939860D01*
X73896237Y56784502D01*
X73954344Y56722625D01*
X73966418Y56709767D01*
X73969469Y56707243D01*
X73969470Y56707242D01*
X73985870Y56693675D01*
X74209625Y56508568D01*
X74476131Y56339438D01*
X74479710Y56337754D01*
X74479717Y56337750D01*
X74758144Y56206733D01*
X74758148Y56206731D01*
X74761734Y56205044D01*
X75061928Y56107505D01*
X75371980Y56048359D01*
X75608162Y56033500D01*
X75765838Y56033500D01*
X76002020Y56048359D01*
X76312072Y56107505D01*
X76612266Y56205044D01*
X76615852Y56206731D01*
X76615856Y56206733D01*
X76894283Y56337750D01*
X76894290Y56337754D01*
X76897869Y56339438D01*
X77164375Y56508568D01*
X77388130Y56693675D01*
X77404530Y56707242D01*
X77404531Y56707243D01*
X77407582Y56709767D01*
X77419657Y56722625D01*
X77477763Y56784502D01*
X77623654Y56939860D01*
X77809184Y57195221D01*
X77825398Y57224713D01*
X77959340Y57468352D01*
X77959341Y57468353D01*
X77961247Y57471821D01*
X77965722Y57483122D01*
X78075990Y57761628D01*
X78075990Y57761629D01*
X78077443Y57765298D01*
X78155940Y58071025D01*
X78195500Y58384179D01*
X78195500Y58699821D01*
X78155940Y59012975D01*
X78077443Y59318702D01*
X78025918Y59448840D01*
X77962702Y59608505D01*
X77962700Y59608510D01*
X77961247Y59612179D01*
X77894653Y59733312D01*
X77811093Y59885307D01*
X77811091Y59885310D01*
X77809184Y59888779D01*
X77651728Y60105500D01*
X77625982Y60140936D01*
X77625981Y60140938D01*
X77623654Y60144140D01*
X77407582Y60374233D01*
X77164375Y60575432D01*
X76897869Y60744562D01*
X76894290Y60746246D01*
X76894283Y60746250D01*
X76615856Y60877267D01*
X76615852Y60877269D01*
X76612266Y60878956D01*
X76589498Y60886354D01*
X76401820Y60947334D01*
X76312072Y60976495D01*
X76002020Y61035641D01*
X75765838Y61050500D01*
X75608162Y61050500D01*
X75371980Y61035641D01*
X75061928Y60976495D01*
X74972180Y60947334D01*
X74784503Y60886354D01*
X74761734Y60878956D01*
X74758148Y60877269D01*
X74758144Y60877267D01*
X74479717Y60746250D01*
X74479710Y60746246D01*
X74476131Y60744562D01*
X74209625Y60575432D01*
X73966418Y60374233D01*
X73750346Y60144140D01*
X73748019Y60140938D01*
X73748018Y60140936D01*
X73722272Y60105500D01*
X73564816Y59888779D01*
X73562909Y59885310D01*
X73562907Y59885307D01*
X73479347Y59733312D01*
X73412753Y59612179D01*
X73411300Y59608510D01*
X73411298Y59608505D01*
X73348082Y59448840D01*
X73296557Y59318702D01*
X73218060Y59012975D01*
X73178500Y58699821D01*
X73178500Y58384179D01*
X71956493Y58384179D01*
X71968198Y58472489D01*
X71968198Y58472494D01*
X71968898Y58477774D01*
X71960249Y58708158D01*
X71912907Y58933791D01*
X71828224Y59148221D01*
X71708623Y59345317D01*
X71618791Y59448840D01*
X71561023Y59515412D01*
X71561021Y59515414D01*
X71557523Y59519445D01*
X71515970Y59553516D01*
X71383373Y59662240D01*
X71383367Y59662244D01*
X71379245Y59665624D01*
X71374609Y59668263D01*
X71374606Y59668265D01*
X71183529Y59777032D01*
X71178886Y59779675D01*
X70962175Y59858337D01*
X70956926Y59859286D01*
X70956923Y59859287D01*
X70739392Y59898623D01*
X70739385Y59898624D01*
X70735308Y59899361D01*
X70717586Y59900197D01*
X70712644Y59900430D01*
X70712637Y59900430D01*
X70711156Y59900500D01*
X70549110Y59900500D01*
X70482191Y59894822D01*
X70382591Y59886371D01*
X70382587Y59886370D01*
X70377280Y59885920D01*
X70372125Y59884582D01*
X70372119Y59884581D01*
X70159297Y59829343D01*
X70159293Y59829342D01*
X70154128Y59828001D01*
X70149262Y59825809D01*
X70149259Y59825808D01*
X70040980Y59777032D01*
X69943925Y59733312D01*
X69752681Y59604559D01*
X69585865Y59445424D01*
X69448246Y59260458D01*
X69343760Y59054949D01*
X69342178Y59049855D01*
X69342177Y59049852D01*
X69294292Y58895636D01*
X69275393Y58834773D01*
X69274692Y58829484D01*
X69259304Y58713377D01*
X69245102Y58606226D01*
X22703112Y58606226D01*
X17609433Y63699905D01*
X17575407Y63762217D01*
X17580472Y63833032D01*
X17623019Y63889868D01*
X17689539Y63914679D01*
X17698528Y63915000D01*
X41847550Y63915000D01*
X41851068Y63914951D01*
X41926773Y63912836D01*
X41926776Y63912836D01*
X41933156Y63912658D01*
X41989517Y63922596D01*
X41998665Y63923865D01*
X42049270Y63929005D01*
X42049274Y63929006D01*
X42055616Y63929650D01*
X42081411Y63937734D01*
X42097210Y63941585D01*
X42117534Y63945168D01*
X42117538Y63945169D01*
X42123821Y63946277D01*
X42177043Y63967349D01*
X42185745Y63970430D01*
X42240363Y63987546D01*
X42245950Y63990643D01*
X42245957Y63990646D01*
X42264001Y64000648D01*
X42278701Y64007597D01*
X42297889Y64015194D01*
X42297897Y64015198D01*
X42303832Y64017548D01*
X42351733Y64048894D01*
X42359636Y64053661D01*
X42404111Y64078314D01*
X42409695Y64081409D01*
X42430225Y64099005D01*
X42443221Y64108762D01*
X42461778Y64120906D01*
X42461779Y64120907D01*
X42465835Y64123561D01*
X42470563Y64127818D01*
X42507455Y64164710D01*
X42514553Y64171283D01*
X42556695Y64207403D01*
X42574479Y64230330D01*
X42584944Y64242199D01*
X45278745Y66936000D01*
X48182049Y66936000D01*
X48201813Y66710092D01*
X48260506Y66491049D01*
X48262831Y66486064D01*
X48354017Y66290512D01*
X48354020Y66290507D01*
X48356343Y66285525D01*
X48486414Y66099765D01*
X48646765Y65939414D01*
X48651274Y65936257D01*
X48651276Y65936255D01*
X48828020Y65812496D01*
X48828026Y65812492D01*
X48832524Y65809343D01*
X49038049Y65713506D01*
X49043353Y65712085D01*
X49043358Y65712083D01*
X49145997Y65684581D01*
X49257092Y65654813D01*
X49483000Y65635049D01*
X49708908Y65654813D01*
X49820003Y65684581D01*
X49922642Y65712083D01*
X49922647Y65712085D01*
X49927951Y65713506D01*
X50133476Y65809343D01*
X50137974Y65812492D01*
X50137980Y65812496D01*
X50314724Y65936255D01*
X50314726Y65936257D01*
X50319235Y65939414D01*
X50479586Y66099765D01*
X50609657Y66285525D01*
X50611980Y66290507D01*
X50611983Y66290512D01*
X50703169Y66486064D01*
X50705494Y66491049D01*
X50764187Y66710092D01*
X50783951Y66936000D01*
X53182049Y66936000D01*
X53201813Y66710092D01*
X53260506Y66491049D01*
X53262831Y66486064D01*
X53354017Y66290512D01*
X53354020Y66290507D01*
X53356343Y66285525D01*
X53486414Y66099765D01*
X53646765Y65939414D01*
X53651274Y65936257D01*
X53651276Y65936255D01*
X53828020Y65812496D01*
X53828026Y65812492D01*
X53832524Y65809343D01*
X54038049Y65713506D01*
X54043353Y65712085D01*
X54043358Y65712083D01*
X54145997Y65684581D01*
X54257092Y65654813D01*
X54483000Y65635049D01*
X54708908Y65654813D01*
X54820003Y65684581D01*
X54922642Y65712083D01*
X54922647Y65712085D01*
X54927951Y65713506D01*
X55133476Y65809343D01*
X55137974Y65812492D01*
X55137980Y65812496D01*
X55314724Y65936255D01*
X55314726Y65936257D01*
X55319235Y65939414D01*
X55479586Y66099765D01*
X55609657Y66285525D01*
X55611980Y66290507D01*
X55611983Y66290512D01*
X55703169Y66486064D01*
X55705494Y66491049D01*
X55764187Y66710092D01*
X55783951Y66936000D01*
X55764187Y67161908D01*
X55705494Y67380951D01*
X55660648Y67477124D01*
X55611983Y67581488D01*
X55611980Y67581493D01*
X55609657Y67586475D01*
X55479586Y67772235D01*
X55319235Y67932586D01*
X55314721Y67935747D01*
X55137980Y68059504D01*
X55137974Y68059508D01*
X55133476Y68062657D01*
X54927951Y68158494D01*
X54922647Y68159915D01*
X54922642Y68159917D01*
X54773260Y68199944D01*
X54708908Y68217187D01*
X54483000Y68236951D01*
X54257092Y68217187D01*
X54038049Y68158494D01*
X53941876Y68113648D01*
X53837512Y68064983D01*
X53837509Y68064981D01*
X53832525Y68062657D01*
X53745970Y68002050D01*
X53651276Y67935745D01*
X53651273Y67935743D01*
X53646765Y67932586D01*
X53486414Y67772235D01*
X53356343Y67586475D01*
X53354020Y67581493D01*
X53354017Y67581488D01*
X53305352Y67477124D01*
X53260506Y67380951D01*
X53201813Y67161908D01*
X53182049Y66936000D01*
X50783951Y66936000D01*
X50764187Y67161908D01*
X50705494Y67380951D01*
X50660648Y67477124D01*
X50611983Y67581488D01*
X50611980Y67581493D01*
X50609657Y67586475D01*
X50479586Y67772235D01*
X50319235Y67932586D01*
X50314721Y67935747D01*
X50137980Y68059504D01*
X50137974Y68059508D01*
X50133476Y68062657D01*
X49927951Y68158494D01*
X49922647Y68159915D01*
X49922642Y68159917D01*
X49773260Y68199944D01*
X49708908Y68217187D01*
X49483000Y68236951D01*
X49257092Y68217187D01*
X49038049Y68158494D01*
X48941876Y68113648D01*
X48837512Y68064983D01*
X48837509Y68064981D01*
X48832525Y68062657D01*
X48745970Y68002050D01*
X48651276Y67935745D01*
X48651273Y67935743D01*
X48646765Y67932586D01*
X48486414Y67772235D01*
X48356343Y67586475D01*
X48354020Y67581493D01*
X48354017Y67581488D01*
X48305352Y67477124D01*
X48260506Y67380951D01*
X48201813Y67161908D01*
X48182049Y66936000D01*
X45278745Y66936000D01*
X48470840Y70128095D01*
X48533152Y70162121D01*
X48559935Y70165000D01*
X80411388Y70165000D01*
X80479674Y70171936D01*
X80549267Y70179005D01*
X80549268Y70179005D01*
X80555616Y70179650D01*
X80740363Y70237546D01*
X80909695Y70331409D01*
X81056695Y70457403D01*
X81175358Y70610382D01*
X81260836Y70784098D01*
X81309639Y70971453D01*
X81319771Y71164794D01*
X81290820Y71356224D01*
X81288617Y71362210D01*
X81288616Y71362216D01*
X81226170Y71531936D01*
X81223968Y71537922D01*
X81220610Y71543338D01*
X81220608Y71543342D01*
X81125309Y71697044D01*
X81125306Y71697048D01*
X81121946Y71702467D01*
X81082854Y71743806D01*
X80993310Y71838496D01*
X80993309Y71838497D01*
X80988921Y71843137D01*
X80941578Y71876287D01*
X80897250Y71931744D01*
X80889941Y72002364D01*
X80921972Y72065724D01*
X80983173Y72101709D01*
X81013849Y72105500D01*
X109746972Y72105500D01*
X109815093Y72085498D01*
X109836067Y72068595D01*
X114722411Y67182251D01*
X114756437Y67119939D01*
X114758837Y67082175D01*
X114746049Y66936000D01*
X114765813Y66710092D01*
X114824506Y66491049D01*
X114826831Y66486064D01*
X114918017Y66290512D01*
X114918020Y66290507D01*
X114920343Y66285525D01*
X115050414Y66099765D01*
X115210765Y65939414D01*
X115215274Y65936257D01*
X115215276Y65936255D01*
X115392020Y65812496D01*
X115392026Y65812492D01*
X115396524Y65809343D01*
X115602049Y65713506D01*
X115607353Y65712085D01*
X115607358Y65712083D01*
X115709997Y65684581D01*
X115821092Y65654813D01*
X116047000Y65635049D01*
X116272908Y65654813D01*
X116384003Y65684581D01*
X116486642Y65712083D01*
X116486647Y65712085D01*
X116491951Y65713506D01*
X116697476Y65809343D01*
X116701974Y65812492D01*
X116701980Y65812496D01*
X116878724Y65936255D01*
X116878726Y65936257D01*
X116883235Y65939414D01*
X117043586Y66099765D01*
X117173657Y66285525D01*
X117175980Y66290507D01*
X117175983Y66290512D01*
X117267169Y66486064D01*
X117269494Y66491049D01*
X117328187Y66710092D01*
X117347951Y66936000D01*
X117328187Y67161908D01*
X117269494Y67380951D01*
X117224648Y67477124D01*
X117175983Y67581488D01*
X117175980Y67581493D01*
X117173657Y67586475D01*
X117043586Y67772235D01*
X116883235Y67932586D01*
X116878721Y67935747D01*
X116701980Y68059504D01*
X116701974Y68059508D01*
X116697476Y68062657D01*
X116491951Y68158494D01*
X116486647Y68159915D01*
X116486642Y68159917D01*
X116337260Y68199944D01*
X116272908Y68217187D01*
X116047000Y68236951D01*
X116041525Y68236472D01*
X115900825Y68224163D01*
X115831220Y68238153D01*
X115800749Y68260589D01*
X110983339Y73077999D01*
X110949313Y73140311D01*
X110954378Y73211126D01*
X110996925Y73267962D01*
X111063445Y73292773D01*
X111072434Y73293094D01*
X115807378Y73293094D01*
X115875499Y73273092D01*
X115896473Y73256189D01*
X120247595Y68905067D01*
X120281621Y68842755D01*
X120284500Y68815972D01*
X120284500Y68049807D01*
X120264498Y67981686D01*
X120230769Y67946593D01*
X120215278Y67935747D01*
X120215271Y67935741D01*
X120210765Y67932586D01*
X120050414Y67772235D01*
X119920343Y67586475D01*
X119918020Y67581493D01*
X119918017Y67581488D01*
X119869352Y67477124D01*
X119824506Y67380951D01*
X119765813Y67161908D01*
X119746049Y66936000D01*
X119765813Y66710092D01*
X119824506Y66491049D01*
X119826831Y66486064D01*
X119918017Y66290512D01*
X119918020Y66290507D01*
X119920343Y66285525D01*
X120050414Y66099765D01*
X120210765Y65939414D01*
X120215274Y65936257D01*
X120215276Y65936255D01*
X120392020Y65812496D01*
X120392026Y65812492D01*
X120396524Y65809343D01*
X120602049Y65713506D01*
X120607353Y65712085D01*
X120607358Y65712083D01*
X120709997Y65684581D01*
X120821092Y65654813D01*
X121047000Y65635049D01*
X121272908Y65654813D01*
X121384003Y65684581D01*
X121486642Y65712083D01*
X121486647Y65712085D01*
X121491951Y65713506D01*
X121697476Y65809343D01*
X121701974Y65812492D01*
X121701980Y65812496D01*
X121878724Y65936255D01*
X121878726Y65936257D01*
X121883235Y65939414D01*
X122043586Y66099765D01*
X122173657Y66285525D01*
X122175980Y66290507D01*
X122175983Y66290512D01*
X122267169Y66486064D01*
X122269494Y66491049D01*
X122328187Y66710092D01*
X122347951Y66936000D01*
X122328187Y67161908D01*
X122269494Y67380951D01*
X122224648Y67477124D01*
X122175983Y67581488D01*
X122175980Y67581493D01*
X122173657Y67586475D01*
X122043586Y67772235D01*
X121883235Y67932586D01*
X121878729Y67935741D01*
X121878722Y67935747D01*
X121863231Y67946593D01*
X121818901Y68002050D01*
X121809500Y68049807D01*
X121809500Y69116632D01*
X121810933Y69135583D01*
X121813123Y69149976D01*
X121813123Y69149978D01*
X121814223Y69157208D01*
X121809915Y69210175D01*
X121809500Y69220389D01*
X121809500Y69228525D01*
X121806190Y69256916D01*
X121805757Y69261291D01*
X121800403Y69327128D01*
X121800402Y69327131D01*
X121799809Y69334427D01*
X121797554Y69341389D01*
X121796354Y69347393D01*
X121794948Y69353340D01*
X121794101Y69360607D01*
X121769053Y69429613D01*
X121767625Y69433773D01*
X121747269Y69496609D01*
X121747268Y69496611D01*
X121745012Y69503575D01*
X121741215Y69509832D01*
X121738660Y69515413D01*
X121735929Y69520866D01*
X121733434Y69527741D01*
X121693163Y69589165D01*
X121690842Y69592845D01*
X121655690Y69650775D01*
X121655686Y69650780D01*
X121652773Y69655581D01*
X121649061Y69659784D01*
X121649058Y69659788D01*
X121645332Y69664006D01*
X121645362Y69664032D01*
X121642754Y69666971D01*
X121639959Y69670313D01*
X121635946Y69676435D01*
X121579413Y69729989D01*
X121576972Y69732366D01*
X116762216Y74547122D01*
X116749829Y74561535D01*
X116741201Y74573259D01*
X116736860Y74579158D01*
X116696351Y74613573D01*
X116688835Y74620503D01*
X116683091Y74626247D01*
X116680217Y74628521D01*
X116680210Y74628527D01*
X116660695Y74643966D01*
X116657291Y74646757D01*
X116606934Y74689539D01*
X116606930Y74689542D01*
X116601355Y74694278D01*
X116594838Y74697606D01*
X116589774Y74700983D01*
X116584550Y74704210D01*
X116578806Y74708754D01*
X116516192Y74738018D01*
X116512324Y74739826D01*
X116508373Y74741757D01*
X116449523Y74771807D01*
X116443002Y74775137D01*
X116435887Y74776878D01*
X116430141Y74779015D01*
X116424358Y74780939D01*
X116417727Y74784038D01*
X116345849Y74798988D01*
X116341577Y74799955D01*
X116270294Y74817398D01*
X116264695Y74817745D01*
X116264691Y74817746D01*
X116259076Y74818094D01*
X116259078Y74818133D01*
X116255177Y74818366D01*
X116250818Y74818755D01*
X116243650Y74820246D01*
X116236333Y74820048D01*
X116165829Y74818140D01*
X116162420Y74818094D01*
X44617970Y74818094D01*
X44599020Y74819527D01*
X44584621Y74821718D01*
X44584617Y74821718D01*
X44577387Y74822818D01*
X44570095Y74822225D01*
X44570092Y74822225D01*
X44524408Y74818509D01*
X44514194Y74818094D01*
X44506069Y74818094D01*
X44502434Y74817670D01*
X44502431Y74817670D01*
X44488659Y74816064D01*
X44477704Y74814787D01*
X44473333Y74814354D01*
X44400168Y74808404D01*
X44393211Y74806150D01*
X44387257Y74804961D01*
X44381259Y74803543D01*
X44373987Y74802695D01*
X44304977Y74777646D01*
X44300864Y74776234D01*
X44266410Y74765072D01*
X44237980Y74755862D01*
X44237978Y74755861D01*
X44231020Y74753607D01*
X44224764Y74749811D01*
X44219195Y74747261D01*
X44213731Y74744524D01*
X44206853Y74742028D01*
X44145432Y74701758D01*
X44141769Y74699448D01*
X44079013Y74661367D01*
X44070589Y74653927D01*
X44070563Y74653956D01*
X44067632Y74651356D01*
X44064278Y74648552D01*
X44058159Y74644540D01*
X44028824Y74613573D01*
X44004606Y74588008D01*
X44002228Y74585566D01*
X43038129Y73621467D01*
X43015056Y73603245D01*
X42868095Y73512834D01*
X42868092Y73512832D01*
X42862088Y73509138D01*
X42857053Y73504207D01*
X42857050Y73504205D01*
X42833383Y73481028D01*
X42732493Y73382229D01*
X42634235Y73229762D01*
X42631826Y73223142D01*
X42631824Y73223139D01*
X42590549Y73109736D01*
X42572197Y73059315D01*
X42549463Y72879360D01*
X42567163Y72698840D01*
X42624418Y72526727D01*
X42628065Y72520705D01*
X42628066Y72520703D01*
X42646524Y72490226D01*
X42718380Y72371576D01*
X42723269Y72366513D01*
X42723270Y72366512D01*
X42767703Y72320501D01*
X42844382Y72241098D01*
X42889244Y72211741D01*
X42978908Y72153067D01*
X42996159Y72141778D01*
X43002763Y72139322D01*
X43002765Y72139321D01*
X43159558Y72081010D01*
X43159560Y72081010D01*
X43166168Y72078552D01*
X43240791Y72068595D01*
X43338980Y72055493D01*
X43338984Y72055493D01*
X43345961Y72054562D01*
X43352972Y72055200D01*
X43352976Y72055200D01*
X43500152Y72068595D01*
X43526600Y72071002D01*
X43533302Y72073180D01*
X43533304Y72073180D01*
X43692409Y72124876D01*
X43692412Y72124877D01*
X43699108Y72127053D01*
X43795513Y72184522D01*
X43848860Y72216323D01*
X43848862Y72216324D01*
X43854912Y72219931D01*
X43986266Y72345018D01*
X44086643Y72496098D01*
X44089146Y72502687D01*
X44092364Y72508949D01*
X44093810Y72508206D01*
X44116284Y72542946D01*
X44286380Y72713042D01*
X44348692Y72747068D01*
X44419507Y72742003D01*
X44476343Y72699456D01*
X44495033Y72663716D01*
X44498824Y72652321D01*
X44502471Y72646299D01*
X44502472Y72646297D01*
X44574886Y72526727D01*
X44592786Y72497170D01*
X44597675Y72492107D01*
X44597676Y72492106D01*
X44608102Y72481310D01*
X44718788Y72366692D01*
X44870565Y72267372D01*
X44877166Y72264917D01*
X44877172Y72264914D01*
X44888375Y72260748D01*
X44926032Y72238677D01*
X44927724Y72237240D01*
X44937051Y72229316D01*
X44943570Y72225987D01*
X44948646Y72222602D01*
X44953857Y72219383D01*
X44959600Y72214840D01*
X45026104Y72183758D01*
X45030001Y72181853D01*
X45095404Y72148457D01*
X45102518Y72146716D01*
X45108252Y72144584D01*
X45114048Y72142656D01*
X45120680Y72139556D01*
X45191257Y72124876D01*
X45192555Y72124606D01*
X45196839Y72123636D01*
X45268112Y72106196D01*
X45273714Y72105848D01*
X45273717Y72105848D01*
X45279330Y72105500D01*
X45279328Y72105463D01*
X45283227Y72105227D01*
X45287598Y72104837D01*
X45294757Y72103348D01*
X45372577Y72105454D01*
X45375986Y72105500D01*
X47458943Y72105500D01*
X47527064Y72085498D01*
X47573557Y72031842D01*
X47583661Y71961568D01*
X47554167Y71896988D01*
X47527937Y71874069D01*
X47510165Y71862439D01*
X47505437Y71858183D01*
X47468538Y71821284D01*
X47461440Y71814711D01*
X47419305Y71778597D01*
X47415398Y71773560D01*
X47415396Y71773558D01*
X47401524Y71755674D01*
X47391060Y71743806D01*
X41505160Y65857905D01*
X41442848Y65823879D01*
X41416065Y65821000D01*
X15628450Y65821000D01*
X15624932Y65821049D01*
X15549227Y65823164D01*
X15549224Y65823164D01*
X15542844Y65823342D01*
X15497947Y65815426D01*
X15486481Y65813404D01*
X15477335Y65812135D01*
X15426730Y65806995D01*
X15426726Y65806994D01*
X15420384Y65806350D01*
X15394589Y65798266D01*
X15378790Y65794415D01*
X15358466Y65790832D01*
X15358462Y65790831D01*
X15352179Y65789723D01*
X15298960Y65768652D01*
X15290258Y65765571D01*
X15235637Y65748454D01*
X15230050Y65745357D01*
X15230043Y65745354D01*
X15211999Y65735352D01*
X15197299Y65728403D01*
X15178113Y65720806D01*
X15178111Y65720805D01*
X15172168Y65718452D01*
X15124261Y65687102D01*
X15116372Y65682344D01*
X15066305Y65654591D01*
X15061462Y65650440D01*
X15045779Y65636999D01*
X15032785Y65627242D01*
X15010164Y65612439D01*
X15005437Y65608182D01*
X14968545Y65571290D01*
X14961447Y65564717D01*
X14919305Y65528597D01*
X14915398Y65523560D01*
X14915396Y65523558D01*
X14901521Y65505670D01*
X14891056Y65493801D01*
X14505160Y65107905D01*
X14442848Y65073879D01*
X14416065Y65071000D01*
X9128465Y65071000D01*
X9124947Y65071049D01*
X9049227Y65073164D01*
X9049224Y65073164D01*
X9042844Y65073342D01*
X8997947Y65065426D01*
X8986481Y65063404D01*
X8977335Y65062135D01*
X8926730Y65056995D01*
X8926726Y65056994D01*
X8920384Y65056350D01*
X8894589Y65048266D01*
X8878790Y65044415D01*
X8858466Y65040832D01*
X8858462Y65040831D01*
X8852179Y65039723D01*
X8798960Y65018652D01*
X8790258Y65015571D01*
X8735637Y64998454D01*
X8730050Y64995357D01*
X8730043Y64995354D01*
X8711999Y64985352D01*
X8697299Y64978403D01*
X8678111Y64970806D01*
X8678103Y64970802D01*
X8672168Y64968452D01*
X8666825Y64964955D01*
X8666824Y64964955D01*
X8624272Y64937109D01*
X8616369Y64932342D01*
X8566305Y64904591D01*
X8545775Y64886995D01*
X8532779Y64877238D01*
X8514215Y64865090D01*
X8514209Y64865085D01*
X8510165Y64862439D01*
X8505437Y64858183D01*
X8468538Y64821284D01*
X8461440Y64814711D01*
X8419305Y64778597D01*
X8415398Y64773560D01*
X8415396Y64773558D01*
X8401524Y64755674D01*
X8391060Y64743806D01*
X5136729Y61489474D01*
X5134208Y61487022D01*
X5074517Y61430575D01*
X5070855Y61425345D01*
X5070854Y61425344D01*
X5041691Y61383695D01*
X5036121Y61376330D01*
X4999940Y61331968D01*
X4996985Y61326316D01*
X4996984Y61326314D01*
X4987417Y61308013D01*
X4978967Y61294115D01*
X4963469Y61271982D01*
X4945199Y61229762D01*
X4940740Y61219459D01*
X4936765Y61211127D01*
X4913201Y61166053D01*
X4913198Y61166045D01*
X4910243Y61160393D01*
X4908485Y61154261D01*
X4908483Y61154257D01*
X4902792Y61134409D01*
X4897313Y61119107D01*
X4886578Y61094299D01*
X4874869Y61038250D01*
X4872661Y61029327D01*
X4856878Y60974286D01*
X4856389Y60967927D01*
X4854804Y60947334D01*
X4852513Y60931236D01*
X4847975Y60909515D01*
X4847974Y60909509D01*
X4846987Y60904783D01*
X4846654Y60898430D01*
X4846654Y60846254D01*
X4846283Y60836590D01*
X4842025Y60781250D01*
X4845662Y60752461D01*
X4846654Y60736683D01*
X4846654Y53464000D01*
X4826652Y53395879D01*
X4772996Y53349386D01*
X4720654Y53338000D01*
X436000Y53338000D01*
X367879Y53358002D01*
X321386Y53411658D01*
X310000Y53464000D01*
X310000Y73110598D01*
X330002Y73178719D01*
X383658Y73225212D01*
X453932Y73235316D01*
X518512Y73205822D01*
X530949Y73193427D01*
X611673Y73100892D01*
X649224Y73057846D01*
X905796Y72824383D01*
X1187501Y72621957D01*
X1490606Y72453251D01*
X1811093Y72320501D01*
X1814587Y72319506D01*
X1814589Y72319505D01*
X2141212Y72226464D01*
X2141217Y72226463D01*
X2144713Y72225467D01*
X2380452Y72186863D01*
X2483465Y72169994D01*
X2483469Y72169994D01*
X2487045Y72169408D01*
X2490671Y72169237D01*
X2829926Y72153238D01*
X2829927Y72153238D01*
X2833553Y72153067D01*
X2842745Y72153694D01*
X3176010Y72176413D01*
X3176018Y72176414D01*
X3179641Y72176661D01*
X3183217Y72177324D01*
X3183219Y72177324D01*
X3517160Y72239216D01*
X3517164Y72239217D01*
X3520725Y72239877D01*
X3852282Y72341878D01*
X3859436Y72345018D01*
X4102838Y72451864D01*
X4169918Y72481310D01*
X4217217Y72508949D01*
X4466293Y72654498D01*
X4469423Y72656327D01*
X4746827Y72864608D01*
X4754983Y72872347D01*
X4995820Y73100892D01*
X4995824Y73100896D01*
X4998454Y73103392D01*
X5003759Y73109736D01*
X5218646Y73366739D01*
X5220968Y73369516D01*
X5235156Y73391115D01*
X5409432Y73656425D01*
X5409437Y73656434D01*
X5411419Y73659451D01*
X5536677Y73908497D01*
X5565658Y73966118D01*
X5565661Y73966126D01*
X5567285Y73969354D01*
X5576718Y73995132D01*
X5685249Y74291707D01*
X5685252Y74291716D01*
X5686497Y74295119D01*
X5687342Y74298641D01*
X5687345Y74298649D01*
X5766631Y74628897D01*
X5766632Y74628901D01*
X5767478Y74632426D01*
X5768301Y74639228D01*
X5808816Y74974027D01*
X5808816Y74974033D01*
X5809152Y74976806D01*
X5815098Y75166000D01*
X5798914Y75446675D01*
X5795338Y75508697D01*
X5795337Y75508702D01*
X5795129Y75512317D01*
X5793405Y75522193D01*
X5736113Y75850471D01*
X5736111Y75850478D01*
X5735489Y75854044D01*
X5636966Y76186651D01*
X5500867Y76505729D01*
X5484287Y76534798D01*
X5330788Y76803911D01*
X5328997Y76807051D01*
X5273557Y76882524D01*
X5252806Y76910772D01*
X5123632Y77086621D01*
X5102503Y77109359D01*
X4889967Y77338074D01*
X4889965Y77338075D01*
X4887495Y77340734D01*
X4884741Y77343086D01*
X4884737Y77343090D01*
X4775732Y77436189D01*
X4736923Y77495640D01*
X4736417Y77566634D01*
X4774373Y77626633D01*
X4838742Y77656586D01*
X4857563Y77658000D01*
X13235000Y77658000D01*
X13303121Y77637998D01*
G37*
%TD.AperFunction*%
%TA.AperFunction,Conductor*%
G36*
X15514903Y63305511D02*
G01*
X15557810Y63248946D01*
X15565434Y63216463D01*
X15566474Y63205856D01*
X15566476Y63205847D01*
X15567163Y63198840D01*
X15624418Y63026727D01*
X15718380Y62871576D01*
X15844382Y62741098D01*
X15996159Y62641778D01*
X16002763Y62639322D01*
X16002765Y62639321D01*
X16159558Y62581010D01*
X16159560Y62581010D01*
X16166168Y62578552D01*
X16249995Y62567367D01*
X16338980Y62555493D01*
X16338984Y62555493D01*
X16345961Y62554562D01*
X16352972Y62555200D01*
X16352976Y62555200D01*
X16518288Y62570245D01*
X16587942Y62556500D01*
X16618803Y62533859D01*
X17307067Y61845595D01*
X17341093Y61783283D01*
X17336028Y61712468D01*
X17293481Y61655632D01*
X17226961Y61630821D01*
X17217972Y61630500D01*
X16403733Y61630500D01*
X16361466Y61637801D01*
X16305424Y61657757D01*
X16305422Y61657757D01*
X16298790Y61660119D01*
X16291802Y61660952D01*
X16291799Y61660953D01*
X16168698Y61675632D01*
X16118680Y61681596D01*
X16111677Y61680860D01*
X16111676Y61680860D01*
X15945288Y61663372D01*
X15945286Y61663371D01*
X15938288Y61662636D01*
X15766579Y61604182D01*
X15760575Y61600488D01*
X15618095Y61512834D01*
X15618092Y61512832D01*
X15612088Y61509138D01*
X15607053Y61504207D01*
X15607050Y61504205D01*
X15487525Y61387157D01*
X15482493Y61382229D01*
X15384235Y61229762D01*
X15381826Y61223142D01*
X15381824Y61223139D01*
X15343956Y61119098D01*
X15322197Y61059315D01*
X15299463Y60879360D01*
X15317163Y60698840D01*
X15374418Y60526727D01*
X15378065Y60520705D01*
X15378066Y60520703D01*
X15424322Y60444325D01*
X15442501Y60375695D01*
X15420690Y60308132D01*
X15382569Y60271738D01*
X15362088Y60259138D01*
X15357053Y60254207D01*
X15357050Y60254205D01*
X15247603Y60147026D01*
X15232493Y60132229D01*
X15134235Y59979762D01*
X15131826Y59973142D01*
X15131824Y59973139D01*
X15078998Y59828001D01*
X15072197Y59809315D01*
X15049463Y59629360D01*
X15067163Y59448840D01*
X15124418Y59276727D01*
X15128065Y59270705D01*
X15128066Y59270703D01*
X15199481Y59152783D01*
X15218380Y59121576D01*
X15223269Y59116513D01*
X15223270Y59116512D01*
X15300121Y59036932D01*
X15344382Y58991098D01*
X15496159Y58891778D01*
X15502763Y58889322D01*
X15506126Y58887623D01*
X15538409Y58864253D01*
X20849567Y53553095D01*
X20883593Y53490783D01*
X20878528Y53419968D01*
X20835981Y53363132D01*
X20769461Y53338321D01*
X20760472Y53338000D01*
X6878654Y53338000D01*
X6810533Y53358002D01*
X6764040Y53411658D01*
X6752654Y53464000D01*
X6752654Y60357719D01*
X6772656Y60425840D01*
X6789559Y60446814D01*
X9470840Y63128095D01*
X9533152Y63162121D01*
X9559935Y63165000D01*
X14847550Y63165000D01*
X14851068Y63164951D01*
X14926773Y63162836D01*
X14926776Y63162836D01*
X14933156Y63162658D01*
X14989517Y63172596D01*
X14998665Y63173865D01*
X15049270Y63179005D01*
X15049274Y63179006D01*
X15055616Y63179650D01*
X15081411Y63187734D01*
X15097210Y63191585D01*
X15117534Y63195168D01*
X15117538Y63195169D01*
X15123821Y63196277D01*
X15177043Y63217349D01*
X15185745Y63220430D01*
X15240363Y63237546D01*
X15245950Y63240643D01*
X15245957Y63240646D01*
X15264001Y63250648D01*
X15278701Y63257597D01*
X15297889Y63265194D01*
X15297897Y63265198D01*
X15303832Y63267548D01*
X15351733Y63298894D01*
X15359636Y63303661D01*
X15378951Y63314367D01*
X15448227Y63329899D01*
X15514903Y63305511D01*
G37*
%TD.AperFunction*%
%TD*%
M02*
