%FSLAX45Y45*%
G04 Gerber Fmt 4.5, Leading zero omitted, Abs format (unit mm)*
G04 Created by KiCad (PCBNEW 6.0.2+dfsg-1) date 2022-08-02 12:10:30*
%MOMM*%
%LPD*%
G01*
G04 APERTURE LIST*
%TA.AperFunction,Profile*%
%ADD10C,0.100000*%
%TD*%
%ADD11C,0.200000*%
%ADD12C,0.170000*%
%ADD13C,0.400000*%
G04 APERTURE END LIST*
D10*
X19617500Y-6777000D02*
G75*
G03*
X19617500Y-6777000I-250000J0D01*
G01*
X19617500Y-13877000D02*
G75*
G03*
X19617500Y-13877000I-250000J0D01*
G01*
X7217500Y-6777000D02*
G75*
G03*
X7217500Y-6777000I-250000J0D01*
G01*
X7217500Y-13877000D02*
G75*
G03*
X7217500Y-13877000I-250000J0D01*
G01*
X6667500Y-6477000D02*
X19667500Y-6477000D01*
X19667500Y-6477000D02*
X19667500Y-14177000D01*
X19667500Y-14177000D02*
X6667500Y-14177000D01*
X6667500Y-14177000D02*
X6667500Y-6477000D01*
D11*
D12*
X9663000Y-12354400D02*
X9833000Y-12524400D01*
X9833000Y-12354400D02*
X9663000Y-12524400D01*
X10679000Y-12354400D02*
X10849000Y-12524400D01*
X10849000Y-12354400D02*
X10679000Y-12524400D01*
X11663000Y-10354400D02*
X11833000Y-10524400D01*
X11833000Y-10354400D02*
X11663000Y-10524400D01*
X11663000Y-12354400D02*
X11833000Y-12524400D01*
X11833000Y-12354400D02*
X11663000Y-12524400D01*
X12679000Y-10354400D02*
X12849000Y-10524400D01*
X12849000Y-10354400D02*
X12679000Y-10524400D01*
X12679000Y-12354400D02*
X12849000Y-12524400D01*
X12849000Y-12354400D02*
X12679000Y-12524400D01*
X13663000Y-8354400D02*
X13833000Y-8524400D01*
X13833000Y-8354400D02*
X13663000Y-8524400D01*
X13663000Y-10354400D02*
X13833000Y-10524400D01*
X13833000Y-10354400D02*
X13663000Y-10524400D01*
X13663000Y-12354400D02*
X13833000Y-12524400D01*
X13833000Y-12354400D02*
X13663000Y-12524400D01*
X14679000Y-8354400D02*
X14849000Y-8524400D01*
X14849000Y-8354400D02*
X14679000Y-8524400D01*
X14679000Y-10354400D02*
X14849000Y-10524400D01*
X14849000Y-10354400D02*
X14679000Y-10524400D01*
X14679000Y-12354400D02*
X14849000Y-12524400D01*
X14849000Y-12354400D02*
X14679000Y-12524400D01*
X15663000Y-8354400D02*
X15833000Y-8524400D01*
X15833000Y-8354400D02*
X15663000Y-8524400D01*
X15663000Y-10354400D02*
X15833000Y-10524400D01*
X15833000Y-10354400D02*
X15663000Y-10524400D01*
X15663000Y-12354400D02*
X15833000Y-12524400D01*
X15833000Y-12354400D02*
X15663000Y-12524400D01*
X16679000Y-8354400D02*
X16849000Y-8524400D01*
X16849000Y-8354400D02*
X16679000Y-8524400D01*
X16679000Y-10354400D02*
X16849000Y-10524400D01*
X16849000Y-10354400D02*
X16679000Y-10524400D01*
X16679000Y-12354400D02*
X16849000Y-12524400D01*
X16849000Y-12354400D02*
X16679000Y-12524400D01*
X17663000Y-10354400D02*
X17833000Y-10524400D01*
X17833000Y-10354400D02*
X17663000Y-10524400D01*
X17663000Y-12354400D02*
X17833000Y-12524400D01*
X17833000Y-12354400D02*
X17663000Y-12524400D01*
X18679000Y-10354400D02*
X18849000Y-10524400D01*
X18849000Y-10354400D02*
X18679000Y-10524400D01*
X18679000Y-12354400D02*
X18849000Y-12524400D01*
X18849000Y-12354400D02*
X18679000Y-12524400D01*
D13*
X10456000Y-12439400D02*
G75*
G03*
X10456000Y-12439400I-200000J0D01*
G01*
X12456000Y-10439400D02*
G75*
G03*
X12456000Y-10439400I-200000J0D01*
G01*
X12456000Y-12439400D02*
G75*
G03*
X12456000Y-12439400I-200000J0D01*
G01*
X14456000Y-8439400D02*
G75*
G03*
X14456000Y-8439400I-200000J0D01*
G01*
X14456000Y-10439400D02*
G75*
G03*
X14456000Y-10439400I-200000J0D01*
G01*
X14456000Y-12439400D02*
G75*
G03*
X14456000Y-12439400I-200000J0D01*
G01*
X16456000Y-8439400D02*
G75*
G03*
X16456000Y-8439400I-200000J0D01*
G01*
X16456000Y-10439400D02*
G75*
G03*
X16456000Y-10439400I-200000J0D01*
G01*
X16456000Y-12439400D02*
G75*
G03*
X16456000Y-12439400I-200000J0D01*
G01*
X18456000Y-10439400D02*
G75*
G03*
X18456000Y-10439400I-200000J0D01*
G01*
X18456000Y-12439400D02*
G75*
G03*
X18456000Y-12439400I-200000J0D01*
G01*
D11*
X6920119Y-14492476D02*
X6920119Y-14292476D01*
X6967738Y-14292476D01*
X6996309Y-14302000D01*
X7015357Y-14321048D01*
X7024881Y-14340095D01*
X7034405Y-14378190D01*
X7034405Y-14406762D01*
X7024881Y-14444857D01*
X7015357Y-14463905D01*
X6996309Y-14482952D01*
X6967738Y-14492476D01*
X6920119Y-14492476D01*
X7120119Y-14492476D02*
X7120119Y-14359143D01*
X7120119Y-14397238D02*
X7129643Y-14378190D01*
X7139167Y-14368667D01*
X7158214Y-14359143D01*
X7177262Y-14359143D01*
X7243928Y-14492476D02*
X7243928Y-14359143D01*
X7243928Y-14292476D02*
X7234405Y-14302000D01*
X7243928Y-14311524D01*
X7253452Y-14302000D01*
X7243928Y-14292476D01*
X7243928Y-14311524D01*
X7367738Y-14492476D02*
X7348690Y-14482952D01*
X7339167Y-14463905D01*
X7339167Y-14292476D01*
X7472500Y-14492476D02*
X7453452Y-14482952D01*
X7443928Y-14463905D01*
X7443928Y-14292476D01*
X7701071Y-14492476D02*
X7701071Y-14292476D01*
X7767738Y-14435333D01*
X7834405Y-14292476D01*
X7834405Y-14492476D01*
X8015357Y-14492476D02*
X8015357Y-14387714D01*
X8005833Y-14368667D01*
X7986786Y-14359143D01*
X7948690Y-14359143D01*
X7929643Y-14368667D01*
X8015357Y-14482952D02*
X7996309Y-14492476D01*
X7948690Y-14492476D01*
X7929643Y-14482952D01*
X7920119Y-14463905D01*
X7920119Y-14444857D01*
X7929643Y-14425809D01*
X7948690Y-14416286D01*
X7996309Y-14416286D01*
X8015357Y-14406762D01*
X8110595Y-14359143D02*
X8110595Y-14559143D01*
X8110595Y-14368667D02*
X8129643Y-14359143D01*
X8167738Y-14359143D01*
X8186786Y-14368667D01*
X8196309Y-14378190D01*
X8205833Y-14397238D01*
X8205833Y-14454381D01*
X8196309Y-14473428D01*
X8186786Y-14482952D01*
X8167738Y-14492476D01*
X8129643Y-14492476D01*
X8110595Y-14482952D01*
X8291548Y-14473428D02*
X8301071Y-14482952D01*
X8291548Y-14492476D01*
X8282024Y-14482952D01*
X8291548Y-14473428D01*
X8291548Y-14492476D01*
X8291548Y-14368667D02*
X8301071Y-14378190D01*
X8291548Y-14387714D01*
X8282024Y-14378190D01*
X8291548Y-14368667D01*
X8291548Y-14387714D01*
D12*
X6492500Y-14737000D02*
X6662500Y-14907000D01*
X6662500Y-14737000D02*
X6492500Y-14907000D01*
D11*
X7024881Y-14912476D02*
X6910595Y-14912476D01*
X6967738Y-14912476D02*
X6967738Y-14712476D01*
X6948690Y-14741048D01*
X6929643Y-14760095D01*
X6910595Y-14769619D01*
X7110595Y-14893428D02*
X7120119Y-14902952D01*
X7110595Y-14912476D01*
X7101071Y-14902952D01*
X7110595Y-14893428D01*
X7110595Y-14912476D01*
X7186786Y-14712476D02*
X7320119Y-14712476D01*
X7234405Y-14912476D01*
X7434405Y-14712476D02*
X7453452Y-14712476D01*
X7472500Y-14722000D01*
X7482024Y-14731524D01*
X7491548Y-14750571D01*
X7501071Y-14788667D01*
X7501071Y-14836286D01*
X7491548Y-14874381D01*
X7482024Y-14893428D01*
X7472500Y-14902952D01*
X7453452Y-14912476D01*
X7434405Y-14912476D01*
X7415357Y-14902952D01*
X7405833Y-14893428D01*
X7396309Y-14874381D01*
X7386786Y-14836286D01*
X7386786Y-14788667D01*
X7396309Y-14750571D01*
X7405833Y-14731524D01*
X7415357Y-14722000D01*
X7434405Y-14712476D01*
X7624881Y-14712476D02*
X7643928Y-14712476D01*
X7662976Y-14722000D01*
X7672500Y-14731524D01*
X7682024Y-14750571D01*
X7691548Y-14788667D01*
X7691548Y-14836286D01*
X7682024Y-14874381D01*
X7672500Y-14893428D01*
X7662976Y-14902952D01*
X7643928Y-14912476D01*
X7624881Y-14912476D01*
X7605833Y-14902952D01*
X7596309Y-14893428D01*
X7586786Y-14874381D01*
X7577262Y-14836286D01*
X7577262Y-14788667D01*
X7586786Y-14750571D01*
X7596309Y-14731524D01*
X7605833Y-14722000D01*
X7624881Y-14712476D01*
X7777262Y-14912476D02*
X7777262Y-14779143D01*
X7777262Y-14798190D02*
X7786786Y-14788667D01*
X7805833Y-14779143D01*
X7834405Y-14779143D01*
X7853452Y-14788667D01*
X7862976Y-14807714D01*
X7862976Y-14912476D01*
X7862976Y-14807714D02*
X7872500Y-14788667D01*
X7891548Y-14779143D01*
X7920119Y-14779143D01*
X7939167Y-14788667D01*
X7948690Y-14807714D01*
X7948690Y-14912476D01*
X8043928Y-14912476D02*
X8043928Y-14779143D01*
X8043928Y-14798190D02*
X8053452Y-14788667D01*
X8072500Y-14779143D01*
X8101071Y-14779143D01*
X8120119Y-14788667D01*
X8129643Y-14807714D01*
X8129643Y-14912476D01*
X8129643Y-14807714D02*
X8139167Y-14788667D01*
X8158214Y-14779143D01*
X8186786Y-14779143D01*
X8205833Y-14788667D01*
X8215357Y-14807714D01*
X8215357Y-14912476D01*
X8605833Y-14702952D02*
X8434405Y-14960095D01*
X8862976Y-14712476D02*
X8882024Y-14712476D01*
X8901071Y-14722000D01*
X8910595Y-14731524D01*
X8920119Y-14750571D01*
X8929643Y-14788667D01*
X8929643Y-14836286D01*
X8920119Y-14874381D01*
X8910595Y-14893428D01*
X8901071Y-14902952D01*
X8882024Y-14912476D01*
X8862976Y-14912476D01*
X8843929Y-14902952D01*
X8834405Y-14893428D01*
X8824881Y-14874381D01*
X8815357Y-14836286D01*
X8815357Y-14788667D01*
X8824881Y-14750571D01*
X8834405Y-14731524D01*
X8843929Y-14722000D01*
X8862976Y-14712476D01*
X9015357Y-14893428D02*
X9024881Y-14902952D01*
X9015357Y-14912476D01*
X9005833Y-14902952D01*
X9015357Y-14893428D01*
X9015357Y-14912476D01*
X9148690Y-14712476D02*
X9167738Y-14712476D01*
X9186786Y-14722000D01*
X9196310Y-14731524D01*
X9205833Y-14750571D01*
X9215357Y-14788667D01*
X9215357Y-14836286D01*
X9205833Y-14874381D01*
X9196310Y-14893428D01*
X9186786Y-14902952D01*
X9167738Y-14912476D01*
X9148690Y-14912476D01*
X9129643Y-14902952D01*
X9120119Y-14893428D01*
X9110595Y-14874381D01*
X9101071Y-14836286D01*
X9101071Y-14788667D01*
X9110595Y-14750571D01*
X9120119Y-14731524D01*
X9129643Y-14722000D01*
X9148690Y-14712476D01*
X9386786Y-14712476D02*
X9348690Y-14712476D01*
X9329643Y-14722000D01*
X9320119Y-14731524D01*
X9301071Y-14760095D01*
X9291548Y-14798190D01*
X9291548Y-14874381D01*
X9301071Y-14893428D01*
X9310595Y-14902952D01*
X9329643Y-14912476D01*
X9367738Y-14912476D01*
X9386786Y-14902952D01*
X9396310Y-14893428D01*
X9405833Y-14874381D01*
X9405833Y-14826762D01*
X9396310Y-14807714D01*
X9386786Y-14798190D01*
X9367738Y-14788667D01*
X9329643Y-14788667D01*
X9310595Y-14798190D01*
X9301071Y-14807714D01*
X9291548Y-14826762D01*
X9577262Y-14712476D02*
X9539167Y-14712476D01*
X9520119Y-14722000D01*
X9510595Y-14731524D01*
X9491548Y-14760095D01*
X9482024Y-14798190D01*
X9482024Y-14874381D01*
X9491548Y-14893428D01*
X9501071Y-14902952D01*
X9520119Y-14912476D01*
X9558214Y-14912476D01*
X9577262Y-14902952D01*
X9586786Y-14893428D01*
X9596310Y-14874381D01*
X9596310Y-14826762D01*
X9586786Y-14807714D01*
X9577262Y-14798190D01*
X9558214Y-14788667D01*
X9520119Y-14788667D01*
X9501071Y-14798190D01*
X9491548Y-14807714D01*
X9482024Y-14826762D01*
X9691548Y-14912476D02*
X9729643Y-14912476D01*
X9748690Y-14902952D01*
X9758214Y-14893428D01*
X9777262Y-14864857D01*
X9786786Y-14826762D01*
X9786786Y-14750571D01*
X9777262Y-14731524D01*
X9767738Y-14722000D01*
X9748690Y-14712476D01*
X9710595Y-14712476D01*
X9691548Y-14722000D01*
X9682024Y-14731524D01*
X9672500Y-14750571D01*
X9672500Y-14798190D01*
X9682024Y-14817238D01*
X9691548Y-14826762D01*
X9710595Y-14836286D01*
X9748690Y-14836286D01*
X9767738Y-14826762D01*
X9777262Y-14817238D01*
X9786786Y-14798190D01*
X9862976Y-14712476D02*
X9862976Y-14750571D01*
X9939167Y-14712476D02*
X9939167Y-14750571D01*
X10234405Y-14988667D02*
X10224881Y-14979143D01*
X10205833Y-14950571D01*
X10196310Y-14931524D01*
X10186786Y-14902952D01*
X10177262Y-14855333D01*
X10177262Y-14817238D01*
X10186786Y-14769619D01*
X10196310Y-14741048D01*
X10205833Y-14722000D01*
X10224881Y-14693428D01*
X10234405Y-14683905D01*
X10301071Y-14731524D02*
X10310595Y-14722000D01*
X10329643Y-14712476D01*
X10377262Y-14712476D01*
X10396310Y-14722000D01*
X10405833Y-14731524D01*
X10415357Y-14750571D01*
X10415357Y-14769619D01*
X10405833Y-14798190D01*
X10291548Y-14912476D01*
X10415357Y-14912476D01*
X10491548Y-14731524D02*
X10501071Y-14722000D01*
X10520119Y-14712476D01*
X10567738Y-14712476D01*
X10586786Y-14722000D01*
X10596310Y-14731524D01*
X10605833Y-14750571D01*
X10605833Y-14769619D01*
X10596310Y-14798190D01*
X10482024Y-14912476D01*
X10605833Y-14912476D01*
X10843929Y-14912476D02*
X10843929Y-14712476D01*
X10929643Y-14912476D02*
X10929643Y-14807714D01*
X10920119Y-14788667D01*
X10901071Y-14779143D01*
X10872500Y-14779143D01*
X10853452Y-14788667D01*
X10843929Y-14798190D01*
X11053452Y-14912476D02*
X11034405Y-14902952D01*
X11024881Y-14893428D01*
X11015357Y-14874381D01*
X11015357Y-14817238D01*
X11024881Y-14798190D01*
X11034405Y-14788667D01*
X11053452Y-14779143D01*
X11082024Y-14779143D01*
X11101071Y-14788667D01*
X11110595Y-14798190D01*
X11120119Y-14817238D01*
X11120119Y-14874381D01*
X11110595Y-14893428D01*
X11101071Y-14902952D01*
X11082024Y-14912476D01*
X11053452Y-14912476D01*
X11234405Y-14912476D02*
X11215357Y-14902952D01*
X11205833Y-14883905D01*
X11205833Y-14712476D01*
X11386786Y-14902952D02*
X11367738Y-14912476D01*
X11329643Y-14912476D01*
X11310595Y-14902952D01*
X11301071Y-14883905D01*
X11301071Y-14807714D01*
X11310595Y-14788667D01*
X11329643Y-14779143D01*
X11367738Y-14779143D01*
X11386786Y-14788667D01*
X11396309Y-14807714D01*
X11396309Y-14826762D01*
X11301071Y-14845809D01*
X11472500Y-14902952D02*
X11491548Y-14912476D01*
X11529643Y-14912476D01*
X11548690Y-14902952D01*
X11558214Y-14883905D01*
X11558214Y-14874381D01*
X11548690Y-14855333D01*
X11529643Y-14845809D01*
X11501071Y-14845809D01*
X11482024Y-14836286D01*
X11472500Y-14817238D01*
X11472500Y-14807714D01*
X11482024Y-14788667D01*
X11501071Y-14779143D01*
X11529643Y-14779143D01*
X11548690Y-14788667D01*
X11624881Y-14988667D02*
X11634405Y-14979143D01*
X11653452Y-14950571D01*
X11662976Y-14931524D01*
X11672500Y-14902952D01*
X11682024Y-14855333D01*
X11682024Y-14817238D01*
X11672500Y-14769619D01*
X11662976Y-14741048D01*
X11653452Y-14722000D01*
X11634405Y-14693428D01*
X11624881Y-14683905D01*
X11986786Y-14988667D02*
X11977262Y-14979143D01*
X11958214Y-14950571D01*
X11948690Y-14931524D01*
X11939167Y-14902952D01*
X11929643Y-14855333D01*
X11929643Y-14817238D01*
X11939167Y-14769619D01*
X11948690Y-14741048D01*
X11958214Y-14722000D01*
X11977262Y-14693428D01*
X11986786Y-14683905D01*
X12062976Y-14779143D02*
X12062976Y-14912476D01*
X12062976Y-14798190D02*
X12072500Y-14788667D01*
X12091548Y-14779143D01*
X12120119Y-14779143D01*
X12139167Y-14788667D01*
X12148690Y-14807714D01*
X12148690Y-14912476D01*
X12272500Y-14912476D02*
X12253452Y-14902952D01*
X12243928Y-14893428D01*
X12234405Y-14874381D01*
X12234405Y-14817238D01*
X12243928Y-14798190D01*
X12253452Y-14788667D01*
X12272500Y-14779143D01*
X12301071Y-14779143D01*
X12320119Y-14788667D01*
X12329643Y-14798190D01*
X12339167Y-14817238D01*
X12339167Y-14874381D01*
X12329643Y-14893428D01*
X12320119Y-14902952D01*
X12301071Y-14912476D01*
X12272500Y-14912476D01*
X12396309Y-14779143D02*
X12472500Y-14779143D01*
X12424881Y-14712476D02*
X12424881Y-14883905D01*
X12434405Y-14902952D01*
X12453452Y-14912476D01*
X12472500Y-14912476D01*
X12691548Y-14779143D02*
X12691548Y-14979143D01*
X12691548Y-14788667D02*
X12710595Y-14779143D01*
X12748690Y-14779143D01*
X12767738Y-14788667D01*
X12777262Y-14798190D01*
X12786786Y-14817238D01*
X12786786Y-14874381D01*
X12777262Y-14893428D01*
X12767738Y-14902952D01*
X12748690Y-14912476D01*
X12710595Y-14912476D01*
X12691548Y-14902952D01*
X12901071Y-14912476D02*
X12882024Y-14902952D01*
X12872500Y-14883905D01*
X12872500Y-14712476D01*
X13062976Y-14912476D02*
X13062976Y-14807714D01*
X13053452Y-14788667D01*
X13034405Y-14779143D01*
X12996309Y-14779143D01*
X12977262Y-14788667D01*
X13062976Y-14902952D02*
X13043928Y-14912476D01*
X12996309Y-14912476D01*
X12977262Y-14902952D01*
X12967738Y-14883905D01*
X12967738Y-14864857D01*
X12977262Y-14845809D01*
X12996309Y-14836286D01*
X13043928Y-14836286D01*
X13062976Y-14826762D01*
X13129643Y-14779143D02*
X13205833Y-14779143D01*
X13158214Y-14712476D02*
X13158214Y-14883905D01*
X13167738Y-14902952D01*
X13186786Y-14912476D01*
X13205833Y-14912476D01*
X13348690Y-14902952D02*
X13329643Y-14912476D01*
X13291548Y-14912476D01*
X13272500Y-14902952D01*
X13262976Y-14883905D01*
X13262976Y-14807714D01*
X13272500Y-14788667D01*
X13291548Y-14779143D01*
X13329643Y-14779143D01*
X13348690Y-14788667D01*
X13358214Y-14807714D01*
X13358214Y-14826762D01*
X13262976Y-14845809D01*
X13529643Y-14912476D02*
X13529643Y-14712476D01*
X13529643Y-14902952D02*
X13510595Y-14912476D01*
X13472500Y-14912476D01*
X13453452Y-14902952D01*
X13443928Y-14893428D01*
X13434405Y-14874381D01*
X13434405Y-14817238D01*
X13443928Y-14798190D01*
X13453452Y-14788667D01*
X13472500Y-14779143D01*
X13510595Y-14779143D01*
X13529643Y-14788667D01*
X13605833Y-14988667D02*
X13615357Y-14979143D01*
X13634405Y-14950571D01*
X13643928Y-14931524D01*
X13653452Y-14902952D01*
X13662976Y-14855333D01*
X13662976Y-14817238D01*
X13653452Y-14769619D01*
X13643928Y-14741048D01*
X13634405Y-14722000D01*
X13615357Y-14693428D01*
X13605833Y-14683905D01*
X6662500Y-15112000D02*
G75*
G03*
X6662500Y-15112000I-100000J0D01*
G01*
X7005833Y-15069143D02*
X7005833Y-15202476D01*
X6958214Y-14992952D02*
X6910595Y-15135809D01*
X7034405Y-15135809D01*
X7110595Y-15183428D02*
X7120119Y-15192952D01*
X7110595Y-15202476D01*
X7101071Y-15192952D01*
X7110595Y-15183428D01*
X7110595Y-15202476D01*
X7243928Y-15002476D02*
X7262976Y-15002476D01*
X7282024Y-15012000D01*
X7291548Y-15021524D01*
X7301071Y-15040571D01*
X7310595Y-15078667D01*
X7310595Y-15126286D01*
X7301071Y-15164381D01*
X7291548Y-15183428D01*
X7282024Y-15192952D01*
X7262976Y-15202476D01*
X7243928Y-15202476D01*
X7224881Y-15192952D01*
X7215357Y-15183428D01*
X7205833Y-15164381D01*
X7196309Y-15126286D01*
X7196309Y-15078667D01*
X7205833Y-15040571D01*
X7215357Y-15021524D01*
X7224881Y-15012000D01*
X7243928Y-15002476D01*
X7434405Y-15002476D02*
X7453452Y-15002476D01*
X7472500Y-15012000D01*
X7482024Y-15021524D01*
X7491548Y-15040571D01*
X7501071Y-15078667D01*
X7501071Y-15126286D01*
X7491548Y-15164381D01*
X7482024Y-15183428D01*
X7472500Y-15192952D01*
X7453452Y-15202476D01*
X7434405Y-15202476D01*
X7415357Y-15192952D01*
X7405833Y-15183428D01*
X7396309Y-15164381D01*
X7386786Y-15126286D01*
X7386786Y-15078667D01*
X7396309Y-15040571D01*
X7405833Y-15021524D01*
X7415357Y-15012000D01*
X7434405Y-15002476D01*
X7624881Y-15002476D02*
X7643928Y-15002476D01*
X7662976Y-15012000D01*
X7672500Y-15021524D01*
X7682024Y-15040571D01*
X7691548Y-15078667D01*
X7691548Y-15126286D01*
X7682024Y-15164381D01*
X7672500Y-15183428D01*
X7662976Y-15192952D01*
X7643928Y-15202476D01*
X7624881Y-15202476D01*
X7605833Y-15192952D01*
X7596309Y-15183428D01*
X7586786Y-15164381D01*
X7577262Y-15126286D01*
X7577262Y-15078667D01*
X7586786Y-15040571D01*
X7596309Y-15021524D01*
X7605833Y-15012000D01*
X7624881Y-15002476D01*
X7777262Y-15202476D02*
X7777262Y-15069143D01*
X7777262Y-15088190D02*
X7786786Y-15078667D01*
X7805833Y-15069143D01*
X7834405Y-15069143D01*
X7853452Y-15078667D01*
X7862976Y-15097714D01*
X7862976Y-15202476D01*
X7862976Y-15097714D02*
X7872500Y-15078667D01*
X7891548Y-15069143D01*
X7920119Y-15069143D01*
X7939167Y-15078667D01*
X7948690Y-15097714D01*
X7948690Y-15202476D01*
X8043928Y-15202476D02*
X8043928Y-15069143D01*
X8043928Y-15088190D02*
X8053452Y-15078667D01*
X8072500Y-15069143D01*
X8101071Y-15069143D01*
X8120119Y-15078667D01*
X8129643Y-15097714D01*
X8129643Y-15202476D01*
X8129643Y-15097714D02*
X8139167Y-15078667D01*
X8158214Y-15069143D01*
X8186786Y-15069143D01*
X8205833Y-15078667D01*
X8215357Y-15097714D01*
X8215357Y-15202476D01*
X8605833Y-14992952D02*
X8434405Y-15250095D01*
X8862976Y-15002476D02*
X8882024Y-15002476D01*
X8901071Y-15012000D01*
X8910595Y-15021524D01*
X8920119Y-15040571D01*
X8929643Y-15078667D01*
X8929643Y-15126286D01*
X8920119Y-15164381D01*
X8910595Y-15183428D01*
X8901071Y-15192952D01*
X8882024Y-15202476D01*
X8862976Y-15202476D01*
X8843929Y-15192952D01*
X8834405Y-15183428D01*
X8824881Y-15164381D01*
X8815357Y-15126286D01*
X8815357Y-15078667D01*
X8824881Y-15040571D01*
X8834405Y-15021524D01*
X8843929Y-15012000D01*
X8862976Y-15002476D01*
X9015357Y-15183428D02*
X9024881Y-15192952D01*
X9015357Y-15202476D01*
X9005833Y-15192952D01*
X9015357Y-15183428D01*
X9015357Y-15202476D01*
X9215357Y-15202476D02*
X9101071Y-15202476D01*
X9158214Y-15202476D02*
X9158214Y-15002476D01*
X9139167Y-15031048D01*
X9120119Y-15050095D01*
X9101071Y-15059619D01*
X9396310Y-15002476D02*
X9301071Y-15002476D01*
X9291548Y-15097714D01*
X9301071Y-15088190D01*
X9320119Y-15078667D01*
X9367738Y-15078667D01*
X9386786Y-15088190D01*
X9396310Y-15097714D01*
X9405833Y-15116762D01*
X9405833Y-15164381D01*
X9396310Y-15183428D01*
X9386786Y-15192952D01*
X9367738Y-15202476D01*
X9320119Y-15202476D01*
X9301071Y-15192952D01*
X9291548Y-15183428D01*
X9472500Y-15002476D02*
X9605833Y-15002476D01*
X9520119Y-15202476D01*
X9777262Y-15002476D02*
X9682024Y-15002476D01*
X9672500Y-15097714D01*
X9682024Y-15088190D01*
X9701071Y-15078667D01*
X9748690Y-15078667D01*
X9767738Y-15088190D01*
X9777262Y-15097714D01*
X9786786Y-15116762D01*
X9786786Y-15164381D01*
X9777262Y-15183428D01*
X9767738Y-15192952D01*
X9748690Y-15202476D01*
X9701071Y-15202476D01*
X9682024Y-15192952D01*
X9672500Y-15183428D01*
X9862976Y-15002476D02*
X9862976Y-15040571D01*
X9939167Y-15002476D02*
X9939167Y-15040571D01*
X10234405Y-15278667D02*
X10224881Y-15269143D01*
X10205833Y-15240571D01*
X10196310Y-15221524D01*
X10186786Y-15192952D01*
X10177262Y-15145333D01*
X10177262Y-15107238D01*
X10186786Y-15059619D01*
X10196310Y-15031048D01*
X10205833Y-15012000D01*
X10224881Y-14983428D01*
X10234405Y-14973905D01*
X10415357Y-15202476D02*
X10301071Y-15202476D01*
X10358214Y-15202476D02*
X10358214Y-15002476D01*
X10339167Y-15031048D01*
X10320119Y-15050095D01*
X10301071Y-15059619D01*
X10605833Y-15202476D02*
X10491548Y-15202476D01*
X10548690Y-15202476D02*
X10548690Y-15002476D01*
X10529643Y-15031048D01*
X10510595Y-15050095D01*
X10491548Y-15059619D01*
X10843929Y-15202476D02*
X10843929Y-15002476D01*
X10929643Y-15202476D02*
X10929643Y-15097714D01*
X10920119Y-15078667D01*
X10901071Y-15069143D01*
X10872500Y-15069143D01*
X10853452Y-15078667D01*
X10843929Y-15088190D01*
X11053452Y-15202476D02*
X11034405Y-15192952D01*
X11024881Y-15183428D01*
X11015357Y-15164381D01*
X11015357Y-15107238D01*
X11024881Y-15088190D01*
X11034405Y-15078667D01*
X11053452Y-15069143D01*
X11082024Y-15069143D01*
X11101071Y-15078667D01*
X11110595Y-15088190D01*
X11120119Y-15107238D01*
X11120119Y-15164381D01*
X11110595Y-15183428D01*
X11101071Y-15192952D01*
X11082024Y-15202476D01*
X11053452Y-15202476D01*
X11234405Y-15202476D02*
X11215357Y-15192952D01*
X11205833Y-15173905D01*
X11205833Y-15002476D01*
X11386786Y-15192952D02*
X11367738Y-15202476D01*
X11329643Y-15202476D01*
X11310595Y-15192952D01*
X11301071Y-15173905D01*
X11301071Y-15097714D01*
X11310595Y-15078667D01*
X11329643Y-15069143D01*
X11367738Y-15069143D01*
X11386786Y-15078667D01*
X11396309Y-15097714D01*
X11396309Y-15116762D01*
X11301071Y-15135809D01*
X11472500Y-15192952D02*
X11491548Y-15202476D01*
X11529643Y-15202476D01*
X11548690Y-15192952D01*
X11558214Y-15173905D01*
X11558214Y-15164381D01*
X11548690Y-15145333D01*
X11529643Y-15135809D01*
X11501071Y-15135809D01*
X11482024Y-15126286D01*
X11472500Y-15107238D01*
X11472500Y-15097714D01*
X11482024Y-15078667D01*
X11501071Y-15069143D01*
X11529643Y-15069143D01*
X11548690Y-15078667D01*
X11624881Y-15278667D02*
X11634405Y-15269143D01*
X11653452Y-15240571D01*
X11662976Y-15221524D01*
X11672500Y-15192952D01*
X11682024Y-15145333D01*
X11682024Y-15107238D01*
X11672500Y-15059619D01*
X11662976Y-15031048D01*
X11653452Y-15012000D01*
X11634405Y-14983428D01*
X11624881Y-14973905D01*
X11986786Y-15278667D02*
X11977262Y-15269143D01*
X11958214Y-15240571D01*
X11948690Y-15221524D01*
X11939167Y-15192952D01*
X11929643Y-15145333D01*
X11929643Y-15107238D01*
X11939167Y-15059619D01*
X11948690Y-15031048D01*
X11958214Y-15012000D01*
X11977262Y-14983428D01*
X11986786Y-14973905D01*
X12062976Y-15069143D02*
X12062976Y-15202476D01*
X12062976Y-15088190D02*
X12072500Y-15078667D01*
X12091548Y-15069143D01*
X12120119Y-15069143D01*
X12139167Y-15078667D01*
X12148690Y-15097714D01*
X12148690Y-15202476D01*
X12272500Y-15202476D02*
X12253452Y-15192952D01*
X12243928Y-15183428D01*
X12234405Y-15164381D01*
X12234405Y-15107238D01*
X12243928Y-15088190D01*
X12253452Y-15078667D01*
X12272500Y-15069143D01*
X12301071Y-15069143D01*
X12320119Y-15078667D01*
X12329643Y-15088190D01*
X12339167Y-15107238D01*
X12339167Y-15164381D01*
X12329643Y-15183428D01*
X12320119Y-15192952D01*
X12301071Y-15202476D01*
X12272500Y-15202476D01*
X12396309Y-15069143D02*
X12472500Y-15069143D01*
X12424881Y-15002476D02*
X12424881Y-15173905D01*
X12434405Y-15192952D01*
X12453452Y-15202476D01*
X12472500Y-15202476D01*
X12691548Y-15069143D02*
X12691548Y-15269143D01*
X12691548Y-15078667D02*
X12710595Y-15069143D01*
X12748690Y-15069143D01*
X12767738Y-15078667D01*
X12777262Y-15088190D01*
X12786786Y-15107238D01*
X12786786Y-15164381D01*
X12777262Y-15183428D01*
X12767738Y-15192952D01*
X12748690Y-15202476D01*
X12710595Y-15202476D01*
X12691548Y-15192952D01*
X12901071Y-15202476D02*
X12882024Y-15192952D01*
X12872500Y-15173905D01*
X12872500Y-15002476D01*
X13062976Y-15202476D02*
X13062976Y-15097714D01*
X13053452Y-15078667D01*
X13034405Y-15069143D01*
X12996309Y-15069143D01*
X12977262Y-15078667D01*
X13062976Y-15192952D02*
X13043928Y-15202476D01*
X12996309Y-15202476D01*
X12977262Y-15192952D01*
X12967738Y-15173905D01*
X12967738Y-15154857D01*
X12977262Y-15135809D01*
X12996309Y-15126286D01*
X13043928Y-15126286D01*
X13062976Y-15116762D01*
X13129643Y-15069143D02*
X13205833Y-15069143D01*
X13158214Y-15002476D02*
X13158214Y-15173905D01*
X13167738Y-15192952D01*
X13186786Y-15202476D01*
X13205833Y-15202476D01*
X13348690Y-15192952D02*
X13329643Y-15202476D01*
X13291548Y-15202476D01*
X13272500Y-15192952D01*
X13262976Y-15173905D01*
X13262976Y-15097714D01*
X13272500Y-15078667D01*
X13291548Y-15069143D01*
X13329643Y-15069143D01*
X13348690Y-15078667D01*
X13358214Y-15097714D01*
X13358214Y-15116762D01*
X13262976Y-15135809D01*
X13529643Y-15202476D02*
X13529643Y-15002476D01*
X13529643Y-15192952D02*
X13510595Y-15202476D01*
X13472500Y-15202476D01*
X13453452Y-15192952D01*
X13443928Y-15183428D01*
X13434405Y-15164381D01*
X13434405Y-15107238D01*
X13443928Y-15088190D01*
X13453452Y-15078667D01*
X13472500Y-15069143D01*
X13510595Y-15069143D01*
X13529643Y-15078667D01*
X13605833Y-15278667D02*
X13615357Y-15269143D01*
X13634405Y-15240571D01*
X13643928Y-15221524D01*
X13653452Y-15192952D01*
X13662976Y-15145333D01*
X13662976Y-15107238D01*
X13653452Y-15059619D01*
X13643928Y-15031048D01*
X13634405Y-15012000D01*
X13615357Y-14983428D01*
X13605833Y-14973905D01*
M02*
