M48
; DRILL file {KiCad 6.0.2+dfsg-1} date ter 02 ago 2022 12:10:31
; FORMAT={-:-/ absolute / metric / decimal}
; #@! TF.CreationDate,2022-08-02T12:10:31-03:00
; #@! TF.GenerationSoftware,Kicad,Pcbnew,6.0.2+dfsg-1
; #@! TF.FileFunction,NonPlated,1,2,NPTH
FMAT,2
METRIC
; #@! TA.AperFunction,NonPlated,NPTH,ComponentDrill
T1C1.700
; #@! TA.AperFunction,NonPlated,NPTH,ComponentDrill
T2C4.000
%
G90
G05
T1
X97.48Y-124.394
X107.64Y-124.394
X117.48Y-104.394
X117.48Y-124.394
X127.64Y-104.394
X127.64Y-124.394
X137.48Y-84.394
X137.48Y-104.394
X137.48Y-124.394
X147.64Y-84.394
X147.64Y-104.394
X147.64Y-124.394
X157.48Y-84.394
X157.48Y-104.394
X157.48Y-124.394
X167.64Y-84.394
X167.64Y-104.394
X167.64Y-124.394
X177.48Y-104.394
X177.48Y-124.394
X187.64Y-104.394
X187.64Y-124.394
T2
X102.56Y-124.394
X122.56Y-104.394
X122.56Y-124.394
X142.56Y-84.394
X142.56Y-104.394
X142.56Y-124.394
X162.56Y-84.394
X162.56Y-104.394
X162.56Y-124.394
X182.56Y-104.394
X182.56Y-124.394
T0
M30
