M48
; DRILL file {KiCad 6.0.2+dfsg-1} date sex 15 jul 2022 09:21:21
; FORMAT={3:3/ absolute / metric / suppress leading zeros}
; #@! TF.CreationDate,2022-07-15T09:21:21-03:00
; #@! TF.GenerationSoftware,Kicad,Pcbnew,6.0.2+dfsg-1
; #@! TF.FileFunction,MixedPlating,1,2
FMAT,2
METRIC,TZ
; #@! TA.AperFunction,Plated,PTH,ViaDrill
T1C0.400
; #@! TA.AperFunction,Plated,PTH,ComponentDrill
T2C0.500
; #@! TA.AperFunction,Plated,PTH,ComponentDrill
T3C0.700
; #@! TA.AperFunction,Plated,PTH,ComponentDrill
T4C0.800
; #@! TA.AperFunction,Plated,PTH,ComponentDrill
T5C1.000
; #@! TA.AperFunction,Plated,PTH,ComponentDrill
T6C1.050
; #@! TA.AperFunction,Plated,PTH,ComponentDrill
T7C1.500
; #@! TA.AperFunction,Plated,PTH,ComponentDrill
T8C3.041
; #@! TA.AperFunction,NonPlated,NPTH,ComponentDrill
T9C1.700
; #@! TA.AperFunction,NonPlated,NPTH,ComponentDrill
T10C4.000
%
G90
G05
T1
X81280Y-87122
X81534Y-85344
X82550Y-89662
X83058Y-84582
X88646Y-74168
X89662Y-94488
X98768Y-88137
X100076Y-88138
X114046Y-70612
T2
X80486Y-140068
X81736Y-140068
T3
X113361Y-66368
X114611Y-66368
X115861Y-66368
X117111Y-66368
T4
X111791Y-113180
X111986Y-134025
X119411Y-113180
X119606Y-134025
X129540Y-113180
X129856Y-92185
X129986Y-134025
X137160Y-113180
X137476Y-92185
X137606Y-134025
X147801Y-113204
X147867Y-92085
X147996Y-134025
X155421Y-113204
X155487Y-92085
X155616Y-134025
X165946Y-134025
X166012Y-113204
X173566Y-134025
X173632Y-113204
T5
X67760Y-101945
X67760Y-108145
X89010Y-120725
X89010Y-129175
T6
X117105Y-75185
X119605Y-75185
X122105Y-75185
X172105Y-75185
X174605Y-75185
X177105Y-75185
T7
X97425Y-121275
X103775Y-118735
X116230Y-100320
X116425Y-121275
X122580Y-97780
X122775Y-118735
X134230Y-100320
X134295Y-79301
X134425Y-121275
X140580Y-97780
X140645Y-76761
X140775Y-118735
X152306Y-79295
X152335Y-100344
X152425Y-121275
X158656Y-76755
X158685Y-97804
X158775Y-118735
X170385Y-121275
X170451Y-100344
X176735Y-118735
X176801Y-97804
T8
X114055Y-82685
X125155Y-82685
X169055Y-82685
X180155Y-82685
T9
X96155Y-123815
X106315Y-123815
X114960Y-102860
X115155Y-123815
X125120Y-102860
X125315Y-123815
X132960Y-102860
X133025Y-81841
X133155Y-123815
X143120Y-102860
X143185Y-81841
X143315Y-123815
X151036Y-81835
X151065Y-102884
X151155Y-123815
X161196Y-81835
X161225Y-102884
X161315Y-123815
X169115Y-123815
X169181Y-102884
X179275Y-123815
X179341Y-102884
T10
X101235Y-123815
X120040Y-102860
X120235Y-123815
X138040Y-102860
X138105Y-81841
X138235Y-123815
X156116Y-81835
X156145Y-102884
X156235Y-123815
X174195Y-123815
X174261Y-102884
T0
M30
