%TF.GenerationSoftware,KiCad,Pcbnew,6.0.2+dfsg-1*%
%TF.CreationDate,2022-07-15T09:18:34-03:00*%
%TF.ProjectId,Nano-keyboard,4e616e6f-2d6b-4657-9962-6f6172642e6b,rev?*%
%TF.SameCoordinates,Original*%
%TF.FileFunction,Soldermask,Bot*%
%TF.FilePolarity,Negative*%
%FSLAX46Y46*%
G04 Gerber Fmt 4.6, Leading zero omitted, Abs format (unit mm)*
G04 Created by KiCad (PCBNEW 6.0.2+dfsg-1) date 2022-07-15 09:18:34*
%MOMM*%
%LPD*%
G01*
G04 APERTURE LIST*
%ADD10R,2.000000X2.000000*%
%ADD11R,1.200000X2.000000*%
%ADD12R,1.600000X1.600000*%
%ADD13O,1.600000X1.600000*%
%ADD14C,4.000000*%
%ADD15C,1.700000*%
%ADD16C,2.200000*%
%ADD17R,1.100000X1.100000*%
%ADD18C,1.100000*%
%ADD19C,1.575000*%
%ADD20C,4.562000*%
%ADD21C,1.000000*%
G04 APERTURE END LIST*
D10*
%TO.C,U3*%
X89010000Y-120725000D03*
X89010000Y-129175000D03*
D11*
X67760000Y-101945000D03*
X67760000Y-108145000D03*
%TD*%
D12*
%TO.C,D8*%
X166011705Y-113203629D03*
D13*
X173631705Y-113203629D03*
%TD*%
D14*
%TO.C,B3*%
X156235000Y-123815000D03*
D15*
X151155000Y-123815000D03*
X161315000Y-123815000D03*
D16*
X158775000Y-118735000D03*
X152425000Y-121275000D03*
%TD*%
D14*
%TO.C,B2*%
X138235000Y-123815000D03*
D15*
X133155000Y-123815000D03*
X143315000Y-123815000D03*
D16*
X140775000Y-118735000D03*
X134425000Y-121275000D03*
%TD*%
D12*
%TO.C,D7*%
X147801019Y-113203629D03*
D13*
X155421019Y-113203629D03*
%TD*%
D15*
%TO.C,B9*%
X143185000Y-81841000D03*
D14*
X138105000Y-81841000D03*
D15*
X133025000Y-81841000D03*
D16*
X140645000Y-76761000D03*
X134295000Y-79301000D03*
%TD*%
D14*
%TO.C,B8*%
X174261019Y-102883629D03*
D15*
X179341019Y-102883629D03*
X169181019Y-102883629D03*
D16*
X176801019Y-97803629D03*
X170451019Y-100343629D03*
%TD*%
D17*
%TO.C,J1*%
X117111000Y-66368000D03*
D18*
X115861000Y-66368000D03*
X114611000Y-66368000D03*
X113361000Y-66368000D03*
%TD*%
D12*
%TO.C,D1*%
X111985686Y-134025000D03*
D13*
X119605686Y-134025000D03*
%TD*%
D15*
%TO.C,B7*%
X151065334Y-102883629D03*
X161225334Y-102883629D03*
D14*
X156145334Y-102883629D03*
D16*
X158685334Y-97803629D03*
X152335334Y-100343629D03*
%TD*%
D15*
%TO.C,B4*%
X179275000Y-123815000D03*
X169115000Y-123815000D03*
D14*
X174195000Y-123815000D03*
D16*
X176735000Y-118735000D03*
X170385000Y-121275000D03*
%TD*%
D19*
%TO.C,U5*%
X122105000Y-75185000D03*
X117105000Y-75185000D03*
X119605000Y-75185000D03*
D20*
X125155000Y-82685000D03*
X114055000Y-82685000D03*
%TD*%
D12*
%TO.C,D10*%
X147866704Y-92085000D03*
D13*
X155486704Y-92085000D03*
%TD*%
D12*
%TO.C,D4*%
X165945686Y-134025000D03*
D13*
X173565686Y-134025000D03*
%TD*%
D12*
%TO.C,D3*%
X147996019Y-134025000D03*
D13*
X155616019Y-134025000D03*
%TD*%
D15*
%TO.C,B5*%
X114960000Y-102860000D03*
X125120000Y-102860000D03*
D14*
X120040000Y-102860000D03*
D16*
X122580000Y-97780000D03*
X116230000Y-100320000D03*
%TD*%
D12*
%TO.C,D9*%
X129855686Y-92185000D03*
D13*
X137475686Y-92185000D03*
%TD*%
D12*
%TO.C,D5*%
X111790686Y-113180000D03*
D13*
X119410686Y-113180000D03*
%TD*%
D15*
%TO.C,B0*%
X96155000Y-123815000D03*
D14*
X101235000Y-123815000D03*
D15*
X106315000Y-123815000D03*
D16*
X103775000Y-118735000D03*
X97425000Y-121275000D03*
%TD*%
D15*
%TO.C,B10*%
X161196019Y-81835000D03*
X151036019Y-81835000D03*
D14*
X156116019Y-81835000D03*
D16*
X158656019Y-76755000D03*
X152306019Y-79295000D03*
%TD*%
D19*
%TO.C,U6*%
X177105000Y-75185000D03*
X172105000Y-75185000D03*
X174605000Y-75185000D03*
D20*
X180155000Y-82685000D03*
X169055000Y-82685000D03*
%TD*%
D15*
%TO.C,B1*%
X115155000Y-123815000D03*
X125315000Y-123815000D03*
D14*
X120235000Y-123815000D03*
D16*
X122775000Y-118735000D03*
X116425000Y-121275000D03*
%TD*%
D21*
%TO.C,J2*%
X80486000Y-140068000D03*
X81736000Y-140068000D03*
%TD*%
D12*
%TO.C,D6*%
X129540000Y-113180000D03*
D13*
X137160000Y-113180000D03*
%TD*%
D15*
%TO.C,B6*%
X143120000Y-102860000D03*
X132960000Y-102860000D03*
D14*
X138040000Y-102860000D03*
D16*
X140580000Y-97780000D03*
X134230000Y-100320000D03*
%TD*%
D12*
%TO.C,D2*%
X129985686Y-134025000D03*
D13*
X137605686Y-134025000D03*
%TD*%
M02*
