M48
; DRILL file {KiCad 6.0.2+dfsg-1} date ter 02 ago 2022 12:10:31
; FORMAT={-:-/ absolute / metric / decimal}
; #@! TF.CreationDate,2022-08-02T12:10:31-03:00
; #@! TF.GenerationSoftware,Kicad,Pcbnew,6.0.2+dfsg-1
; #@! TF.FileFunction,Plated,1,2,PTH
FMAT,2
METRIC
; #@! TA.AperFunction,Plated,PTH,ViaDrill
T1C0.400
; #@! TA.AperFunction,Plated,PTH,ComponentDrill
T2C0.650
; #@! TA.AperFunction,Plated,PTH,ComponentDrill
T3C0.700
; #@! TA.AperFunction,Plated,PTH,ComponentDrill
T4C0.800
; #@! TA.AperFunction,Plated,PTH,ComponentDrill
T5C1.000
; #@! TA.AperFunction,Plated,PTH,ComponentDrill
T6C1.050
; #@! TA.AperFunction,Plated,PTH,ComponentDrill
T7C1.500
; #@! TA.AperFunction,Plated,PTH,ComponentDrill
T8C3.041
%
G90
G05
T1
X75.986Y-78.818
X77.486Y-87.568
X79.486Y-92.818
X79.486Y-96.568
X82.736Y-83.318
X82.986Y-82.068
X83.236Y-79.568
X110.236Y-70.068
X112.11Y-69.942
X147.236Y-71.818
T2
X69.934Y-128.003
X69.934Y-130.503
X81.671Y-139.62
X84.171Y-139.62
T3
X114.182Y-66.368
X116.682Y-66.368
X119.182Y-66.368
X121.682Y-66.368
T4
X115.545Y-113.114
X115.768Y-133.284
X123.165Y-113.114
X123.388Y-133.284
X135.58Y-113.218
X135.58Y-133.284
X135.834Y-93.406
X143.2Y-113.218
X143.2Y-133.284
X143.454Y-93.406
X155.646Y-93.406
X155.646Y-113.218
X155.646Y-133.284
X163.266Y-93.406
X163.266Y-113.218
X163.266Y-133.284
X175.712Y-113.138
X175.712Y-133.284
X183.332Y-113.138
X183.332Y-133.284
T5
X67.816Y-115.128
X67.816Y-121.328
T6
X116.356Y-76.0
X118.856Y-76.0
X121.356Y-76.0
X182.92Y-76.0
X185.42Y-76.0
X187.92Y-76.0
T7
X89.066Y-95.898
X89.066Y-104.898
X100.02Y-129.474
X106.37Y-126.934
X120.02Y-109.474
X120.02Y-129.474
X126.37Y-106.934
X126.37Y-126.934
X140.02Y-89.474
X140.02Y-109.474
X140.02Y-129.474
X146.37Y-86.934
X146.37Y-106.934
X146.37Y-126.934
X160.02Y-89.474
X160.02Y-109.474
X160.02Y-129.474
X166.37Y-86.934
X166.37Y-106.934
X166.37Y-126.934
X180.02Y-109.474
X180.02Y-129.474
X186.37Y-106.934
X186.37Y-126.934
T8
X113.306Y-83.5
X124.406Y-83.5
X179.87Y-83.5
X190.97Y-83.5
T0
M30
