M48
; DRILL file {KiCad 6.0.2+dfsg-1} date qua 03 ago 2022 16:05:03
; FORMAT={-:-/ absolute / metric / decimal}
; #@! TF.CreationDate,2022-08-03T16:05:03-03:00
; #@! TF.GenerationSoftware,Kicad,Pcbnew,6.0.2+dfsg-1
; #@! TF.FileFunction,NonPlated,1,2,NPTH
FMAT,2
METRIC
; #@! TA.AperFunction,NonPlated,NPTH,ComponentDrill
T1C1.700
; #@! TA.AperFunction,NonPlated,NPTH,ComponentDrill
T2C4.000
%
G90
G05
T1
X30.607Y18.542
X40.767Y18.542
X50.607Y38.542
X50.607Y18.542
X60.767Y38.542
X60.767Y18.542
X70.607Y58.542
X70.607Y38.542
X70.607Y18.542
X80.767Y58.542
X80.767Y38.542
X80.767Y18.542
X90.607Y58.542
X90.607Y38.542
X90.607Y18.542
X100.767Y58.542
X100.767Y38.542
X100.767Y18.542
X110.607Y38.542
X110.607Y18.542
X120.767Y38.542
X120.767Y18.542
T2
X35.687Y18.542
X55.687Y38.542
X55.687Y18.542
X75.687Y58.542
X75.687Y38.542
X75.687Y18.542
X95.687Y58.542
X95.687Y38.542
X95.687Y18.542
X115.687Y38.542
X115.687Y18.542
T0
M30
