%TF.GenerationSoftware,KiCad,Pcbnew,6.0.2+dfsg-1*%
%TF.CreationDate,2022-08-02T12:10:18-03:00*%
%TF.ProjectId,Nano-keyboard,4e616e6f-2d6b-4657-9962-6f6172642e6b,rev?*%
%TF.SameCoordinates,Original*%
%TF.FileFunction,Legend,Bot*%
%TF.FilePolarity,Positive*%
%FSLAX46Y46*%
G04 Gerber Fmt 4.6, Leading zero omitted, Abs format (unit mm)*
G04 Created by KiCad (PCBNEW 6.0.2+dfsg-1) date 2022-08-02 12:10:18*
%MOMM*%
%LPD*%
G01*
G04 APERTURE LIST*
%ADD10C,0.150000*%
%ADD11C,0.120000*%
G04 APERTURE END LIST*
D10*
X179044190Y-138977714D02*
X179044190Y-139787238D01*
X179091809Y-139882476D01*
X179139428Y-139930095D01*
X179234666Y-139977714D01*
X179377523Y-139977714D01*
X179472761Y-139930095D01*
X179044190Y-139596761D02*
X179139428Y-139644380D01*
X179329904Y-139644380D01*
X179425142Y-139596761D01*
X179472761Y-139549142D01*
X179520380Y-139453904D01*
X179520380Y-139168190D01*
X179472761Y-139072952D01*
X179425142Y-139025333D01*
X179329904Y-138977714D01*
X179139428Y-138977714D01*
X179044190Y-139025333D01*
X178568000Y-139644380D02*
X178568000Y-138977714D01*
X178568000Y-138644380D02*
X178615619Y-138692000D01*
X178568000Y-138739619D01*
X178520380Y-138692000D01*
X178568000Y-138644380D01*
X178568000Y-138739619D01*
X178234666Y-138977714D02*
X177853714Y-138977714D01*
X178091809Y-138644380D02*
X178091809Y-139501523D01*
X178044190Y-139596761D01*
X177948952Y-139644380D01*
X177853714Y-139644380D01*
X177520380Y-139644380D02*
X177520380Y-138644380D01*
X177091809Y-139644380D02*
X177091809Y-139120571D01*
X177139428Y-139025333D01*
X177234666Y-138977714D01*
X177377523Y-138977714D01*
X177472761Y-139025333D01*
X177520380Y-139072952D01*
X176187047Y-138977714D02*
X176187047Y-139644380D01*
X176615619Y-138977714D02*
X176615619Y-139501523D01*
X176568000Y-139596761D01*
X176472761Y-139644380D01*
X176329904Y-139644380D01*
X176234666Y-139596761D01*
X176187047Y-139549142D01*
X175710857Y-139644380D02*
X175710857Y-138644380D01*
X175710857Y-139025333D02*
X175615619Y-138977714D01*
X175425142Y-138977714D01*
X175329904Y-139025333D01*
X175282285Y-139072952D01*
X175234666Y-139168190D01*
X175234666Y-139453904D01*
X175282285Y-139549142D01*
X175329904Y-139596761D01*
X175425142Y-139644380D01*
X175615619Y-139644380D01*
X175710857Y-139596761D01*
X174806095Y-139549142D02*
X174758476Y-139596761D01*
X174806095Y-139644380D01*
X174853714Y-139596761D01*
X174806095Y-139549142D01*
X174806095Y-139644380D01*
X173901333Y-139596761D02*
X173996571Y-139644380D01*
X174187047Y-139644380D01*
X174282285Y-139596761D01*
X174329904Y-139549142D01*
X174377523Y-139453904D01*
X174377523Y-139168190D01*
X174329904Y-139072952D01*
X174282285Y-139025333D01*
X174187047Y-138977714D01*
X173996571Y-138977714D01*
X173901333Y-139025333D01*
X173329904Y-139644380D02*
X173425142Y-139596761D01*
X173472761Y-139549142D01*
X173520380Y-139453904D01*
X173520380Y-139168190D01*
X173472761Y-139072952D01*
X173425142Y-139025333D01*
X173329904Y-138977714D01*
X173187047Y-138977714D01*
X173091809Y-139025333D01*
X173044190Y-139072952D01*
X172996571Y-139168190D01*
X172996571Y-139453904D01*
X173044190Y-139549142D01*
X173091809Y-139596761D01*
X173187047Y-139644380D01*
X173329904Y-139644380D01*
X172568000Y-139644380D02*
X172568000Y-138977714D01*
X172568000Y-139072952D02*
X172520380Y-139025333D01*
X172425142Y-138977714D01*
X172282285Y-138977714D01*
X172187047Y-139025333D01*
X172139428Y-139120571D01*
X172139428Y-139644380D01*
X172139428Y-139120571D02*
X172091809Y-139025333D01*
X171996571Y-138977714D01*
X171853714Y-138977714D01*
X171758476Y-139025333D01*
X171710857Y-139120571D01*
X171710857Y-139644380D01*
X170520380Y-138596761D02*
X171377523Y-139882476D01*
X169853714Y-139120571D02*
X170187047Y-139120571D01*
X170187047Y-139644380D02*
X170187047Y-138644380D01*
X169710857Y-138644380D01*
X169329904Y-139644380D02*
X169329904Y-138977714D01*
X169329904Y-139168190D02*
X169282285Y-139072952D01*
X169234666Y-139025333D01*
X169139428Y-138977714D01*
X169044190Y-138977714D01*
X168329904Y-139596761D02*
X168425142Y-139644380D01*
X168615619Y-139644380D01*
X168710857Y-139596761D01*
X168758476Y-139501523D01*
X168758476Y-139120571D01*
X168710857Y-139025333D01*
X168615619Y-138977714D01*
X168425142Y-138977714D01*
X168329904Y-139025333D01*
X168282285Y-139120571D01*
X168282285Y-139215809D01*
X168758476Y-139311047D01*
X167853714Y-139644380D02*
X167853714Y-138977714D01*
X167853714Y-138644380D02*
X167901333Y-138692000D01*
X167853714Y-138739619D01*
X167806095Y-138692000D01*
X167853714Y-138644380D01*
X167853714Y-138739619D01*
X167377523Y-139644380D02*
X167377523Y-138977714D01*
X167377523Y-139168190D02*
X167329904Y-139072952D01*
X167282285Y-139025333D01*
X167187047Y-138977714D01*
X167091809Y-138977714D01*
X166377523Y-139596761D02*
X166472761Y-139644380D01*
X166663238Y-139644380D01*
X166758476Y-139596761D01*
X166806095Y-139501523D01*
X166806095Y-139120571D01*
X166758476Y-139025333D01*
X166663238Y-138977714D01*
X166472761Y-138977714D01*
X166377523Y-139025333D01*
X166329904Y-139120571D01*
X166329904Y-139215809D01*
X166806095Y-139311047D01*
X165472761Y-138977714D02*
X165472761Y-139787238D01*
X165520380Y-139882476D01*
X165568000Y-139930095D01*
X165663238Y-139977714D01*
X165806095Y-139977714D01*
X165901333Y-139930095D01*
X165472761Y-139596761D02*
X165568000Y-139644380D01*
X165758476Y-139644380D01*
X165853714Y-139596761D01*
X165901333Y-139549142D01*
X165948952Y-139453904D01*
X165948952Y-139168190D01*
X165901333Y-139072952D01*
X165853714Y-139025333D01*
X165758476Y-138977714D01*
X165568000Y-138977714D01*
X165472761Y-139025333D01*
X164282285Y-138596761D02*
X165139428Y-139882476D01*
X163377523Y-139549142D02*
X163425142Y-139596761D01*
X163568000Y-139644380D01*
X163663238Y-139644380D01*
X163806095Y-139596761D01*
X163901333Y-139501523D01*
X163948952Y-139406285D01*
X163996571Y-139215809D01*
X163996571Y-139072952D01*
X163948952Y-138882476D01*
X163901333Y-138787238D01*
X163806095Y-138692000D01*
X163663238Y-138644380D01*
X163568000Y-138644380D01*
X163425142Y-138692000D01*
X163377523Y-138739619D01*
X162520380Y-138977714D02*
X162520380Y-139644380D01*
X162948952Y-138977714D02*
X162948952Y-139501523D01*
X162901333Y-139596761D01*
X162806095Y-139644380D01*
X162663238Y-139644380D01*
X162568000Y-139596761D01*
X162520380Y-139549142D01*
X162091809Y-139596761D02*
X161996571Y-139644380D01*
X161806095Y-139644380D01*
X161710857Y-139596761D01*
X161663238Y-139501523D01*
X161663238Y-139453904D01*
X161710857Y-139358666D01*
X161806095Y-139311047D01*
X161948952Y-139311047D01*
X162044190Y-139263428D01*
X162091809Y-139168190D01*
X162091809Y-139120571D01*
X162044190Y-139025333D01*
X161948952Y-138977714D01*
X161806095Y-138977714D01*
X161710857Y-139025333D01*
X161377523Y-138977714D02*
X160996571Y-138977714D01*
X161234666Y-138644380D02*
X161234666Y-139501523D01*
X161187047Y-139596761D01*
X161091809Y-139644380D01*
X160996571Y-139644380D01*
X160520380Y-139644380D02*
X160615619Y-139596761D01*
X160663238Y-139549142D01*
X160710857Y-139453904D01*
X160710857Y-139168190D01*
X160663238Y-139072952D01*
X160615619Y-139025333D01*
X160520380Y-138977714D01*
X160377523Y-138977714D01*
X160282285Y-139025333D01*
X160234666Y-139072952D01*
X160187047Y-139168190D01*
X160187047Y-139453904D01*
X160234666Y-139549142D01*
X160282285Y-139596761D01*
X160377523Y-139644380D01*
X160520380Y-139644380D01*
X159758476Y-139644380D02*
X159758476Y-138977714D01*
X159758476Y-139072952D02*
X159710857Y-139025333D01*
X159615619Y-138977714D01*
X159472761Y-138977714D01*
X159377523Y-139025333D01*
X159329904Y-139120571D01*
X159329904Y-139644380D01*
X159329904Y-139120571D02*
X159282285Y-139025333D01*
X159187047Y-138977714D01*
X159044190Y-138977714D01*
X158948952Y-139025333D01*
X158901333Y-139120571D01*
X158901333Y-139644380D01*
X158425142Y-139263428D02*
X157663238Y-139263428D01*
X157187047Y-139644380D02*
X157187047Y-138644380D01*
X156853714Y-139358666D01*
X156520380Y-138644380D01*
X156520380Y-139644380D01*
X155615619Y-139644380D02*
X155615619Y-139120571D01*
X155663238Y-139025333D01*
X155758476Y-138977714D01*
X155948952Y-138977714D01*
X156044190Y-139025333D01*
X155615619Y-139596761D02*
X155710857Y-139644380D01*
X155948952Y-139644380D01*
X156044190Y-139596761D01*
X156091809Y-139501523D01*
X156091809Y-139406285D01*
X156044190Y-139311047D01*
X155948952Y-139263428D01*
X155710857Y-139263428D01*
X155615619Y-139215809D01*
X154710857Y-139596761D02*
X154806095Y-139644380D01*
X154996571Y-139644380D01*
X155091809Y-139596761D01*
X155139428Y-139549142D01*
X155187047Y-139453904D01*
X155187047Y-139168190D01*
X155139428Y-139072952D01*
X155091809Y-139025333D01*
X154996571Y-138977714D01*
X154806095Y-138977714D01*
X154710857Y-139025333D01*
X154282285Y-139644380D02*
X154282285Y-138977714D01*
X154282285Y-139168190D02*
X154234666Y-139072952D01*
X154187047Y-139025333D01*
X154091809Y-138977714D01*
X153996571Y-138977714D01*
X153520380Y-139644380D02*
X153615619Y-139596761D01*
X153663238Y-139549142D01*
X153710857Y-139453904D01*
X153710857Y-139168190D01*
X153663238Y-139072952D01*
X153615619Y-139025333D01*
X153520380Y-138977714D01*
X153377523Y-138977714D01*
X153282285Y-139025333D01*
X153234666Y-139072952D01*
X153187047Y-139168190D01*
X153187047Y-139453904D01*
X153234666Y-139549142D01*
X153282285Y-139596761D01*
X153377523Y-139644380D01*
X153520380Y-139644380D01*
X152758476Y-139263428D02*
X151996571Y-139263428D01*
X151520380Y-139644380D02*
X151520380Y-138644380D01*
X150948952Y-139644380D02*
X151377523Y-139072952D01*
X150948952Y-138644380D02*
X151520380Y-139215809D01*
X150139428Y-139596761D02*
X150234666Y-139644380D01*
X150425142Y-139644380D01*
X150520380Y-139596761D01*
X150568000Y-139501523D01*
X150568000Y-139120571D01*
X150520380Y-139025333D01*
X150425142Y-138977714D01*
X150234666Y-138977714D01*
X150139428Y-139025333D01*
X150091809Y-139120571D01*
X150091809Y-139215809D01*
X150568000Y-139311047D01*
X149758476Y-138977714D02*
X149520380Y-139644380D01*
X149282285Y-138977714D02*
X149520380Y-139644380D01*
X149615619Y-139882476D01*
X149663238Y-139930095D01*
X149758476Y-139977714D01*
X148901333Y-138977714D02*
X148901333Y-139977714D01*
X148901333Y-139025333D02*
X148806095Y-138977714D01*
X148615619Y-138977714D01*
X148520380Y-139025333D01*
X148472761Y-139072952D01*
X148425142Y-139168190D01*
X148425142Y-139453904D01*
X148472761Y-139549142D01*
X148520380Y-139596761D01*
X148615619Y-139644380D01*
X148806095Y-139644380D01*
X148901333Y-139596761D01*
X147568000Y-139644380D02*
X147568000Y-139120571D01*
X147615619Y-139025333D01*
X147710857Y-138977714D01*
X147901333Y-138977714D01*
X147996571Y-139025333D01*
X147568000Y-139596761D02*
X147663238Y-139644380D01*
X147901333Y-139644380D01*
X147996571Y-139596761D01*
X148044190Y-139501523D01*
X148044190Y-139406285D01*
X147996571Y-139311047D01*
X147901333Y-139263428D01*
X147663238Y-139263428D01*
X147568000Y-139215809D01*
X146663238Y-139644380D02*
X146663238Y-138644380D01*
X146663238Y-139596761D02*
X146758476Y-139644380D01*
X146948952Y-139644380D01*
X147044190Y-139596761D01*
X147091809Y-139549142D01*
X147139428Y-139453904D01*
X147139428Y-139168190D01*
X147091809Y-139072952D01*
X147044190Y-139025333D01*
X146948952Y-138977714D01*
X146758476Y-138977714D01*
X146663238Y-139025333D01*
X86593142Y-124496571D02*
X86450285Y-124544190D01*
X86402666Y-124591809D01*
X86355047Y-124687047D01*
X86355047Y-124829904D01*
X86402666Y-124925142D01*
X86450285Y-124972761D01*
X86545523Y-125020380D01*
X86926476Y-125020380D01*
X86926476Y-124020380D01*
X86593142Y-124020380D01*
X86497904Y-124068000D01*
X86450285Y-124115619D01*
X86402666Y-124210857D01*
X86402666Y-124306095D01*
X86450285Y-124401333D01*
X86497904Y-124448952D01*
X86593142Y-124496571D01*
X86926476Y-124496571D01*
X85497904Y-125020380D02*
X85497904Y-124496571D01*
X85545523Y-124401333D01*
X85640761Y-124353714D01*
X85831238Y-124353714D01*
X85926476Y-124401333D01*
X85497904Y-124972761D02*
X85593142Y-125020380D01*
X85831238Y-125020380D01*
X85926476Y-124972761D01*
X85974095Y-124877523D01*
X85974095Y-124782285D01*
X85926476Y-124687047D01*
X85831238Y-124639428D01*
X85593142Y-124639428D01*
X85497904Y-124591809D01*
X85164571Y-124353714D02*
X84783619Y-124353714D01*
X85021714Y-124020380D02*
X85021714Y-124877523D01*
X84974095Y-124972761D01*
X84878857Y-125020380D01*
X84783619Y-125020380D01*
X84593142Y-124353714D02*
X84212190Y-124353714D01*
X84450285Y-124020380D02*
X84450285Y-124877523D01*
X84402666Y-124972761D01*
X84307428Y-125020380D01*
X84212190Y-125020380D01*
X83497904Y-124972761D02*
X83593142Y-125020380D01*
X83783619Y-125020380D01*
X83878857Y-124972761D01*
X83926476Y-124877523D01*
X83926476Y-124496571D01*
X83878857Y-124401333D01*
X83783619Y-124353714D01*
X83593142Y-124353714D01*
X83497904Y-124401333D01*
X83450285Y-124496571D01*
X83450285Y-124591809D01*
X83926476Y-124687047D01*
X83021714Y-125020380D02*
X83021714Y-124353714D01*
X83021714Y-124544190D02*
X82974095Y-124448952D01*
X82926476Y-124401333D01*
X82831238Y-124353714D01*
X82736000Y-124353714D01*
X82497904Y-124353714D02*
X82259809Y-125020380D01*
X82021714Y-124353714D02*
X82259809Y-125020380D01*
X82355047Y-125258476D01*
X82402666Y-125306095D01*
X82497904Y-125353714D01*
X80307428Y-124925142D02*
X80355047Y-124972761D01*
X80497904Y-125020380D01*
X80593142Y-125020380D01*
X80736000Y-124972761D01*
X80831238Y-124877523D01*
X80878857Y-124782285D01*
X80926476Y-124591809D01*
X80926476Y-124448952D01*
X80878857Y-124258476D01*
X80831238Y-124163238D01*
X80736000Y-124068000D01*
X80593142Y-124020380D01*
X80497904Y-124020380D01*
X80355047Y-124068000D01*
X80307428Y-124115619D01*
X79878857Y-125020380D02*
X79878857Y-124020380D01*
X79450285Y-125020380D02*
X79450285Y-124496571D01*
X79497904Y-124401333D01*
X79593142Y-124353714D01*
X79736000Y-124353714D01*
X79831238Y-124401333D01*
X79878857Y-124448952D01*
X78545523Y-125020380D02*
X78545523Y-124496571D01*
X78593142Y-124401333D01*
X78688380Y-124353714D01*
X78878857Y-124353714D01*
X78974095Y-124401333D01*
X78545523Y-124972761D02*
X78640761Y-125020380D01*
X78878857Y-125020380D01*
X78974095Y-124972761D01*
X79021714Y-124877523D01*
X79021714Y-124782285D01*
X78974095Y-124687047D01*
X78878857Y-124639428D01*
X78640761Y-124639428D01*
X78545523Y-124591809D01*
X78069333Y-125020380D02*
X78069333Y-124353714D01*
X78069333Y-124544190D02*
X78021714Y-124448952D01*
X77974095Y-124401333D01*
X77878857Y-124353714D01*
X77783619Y-124353714D01*
X77021714Y-124353714D02*
X77021714Y-125163238D01*
X77069333Y-125258476D01*
X77116952Y-125306095D01*
X77212190Y-125353714D01*
X77355047Y-125353714D01*
X77450285Y-125306095D01*
X77021714Y-124972761D02*
X77116952Y-125020380D01*
X77307428Y-125020380D01*
X77402666Y-124972761D01*
X77450285Y-124925142D01*
X77497904Y-124829904D01*
X77497904Y-124544190D01*
X77450285Y-124448952D01*
X77402666Y-124401333D01*
X77307428Y-124353714D01*
X77116952Y-124353714D01*
X77021714Y-124401333D01*
X76164571Y-124972761D02*
X76259809Y-125020380D01*
X76450285Y-125020380D01*
X76545523Y-124972761D01*
X76593142Y-124877523D01*
X76593142Y-124496571D01*
X76545523Y-124401333D01*
X76450285Y-124353714D01*
X76259809Y-124353714D01*
X76164571Y-124401333D01*
X76116952Y-124496571D01*
X76116952Y-124591809D01*
X76593142Y-124687047D01*
X75688380Y-125020380D02*
X75688380Y-124353714D01*
X75688380Y-124544190D02*
X75640761Y-124448952D01*
X75593142Y-124401333D01*
X75497904Y-124353714D01*
X75402666Y-124353714D01*
X74307428Y-125020380D02*
X74307428Y-124020380D01*
X73974095Y-124734666D01*
X73640761Y-124020380D01*
X73640761Y-125020380D01*
X73021714Y-125020380D02*
X73116952Y-124972761D01*
X73164571Y-124925142D01*
X73212190Y-124829904D01*
X73212190Y-124544190D01*
X73164571Y-124448952D01*
X73116952Y-124401333D01*
X73021714Y-124353714D01*
X72878857Y-124353714D01*
X72783619Y-124401333D01*
X72736000Y-124448952D01*
X72688380Y-124544190D01*
X72688380Y-124829904D01*
X72736000Y-124925142D01*
X72783619Y-124972761D01*
X72878857Y-125020380D01*
X73021714Y-125020380D01*
X71831238Y-125020380D02*
X71831238Y-124020380D01*
X71831238Y-124972761D02*
X71926476Y-125020380D01*
X72116952Y-125020380D01*
X72212190Y-124972761D01*
X72259809Y-124925142D01*
X72307428Y-124829904D01*
X72307428Y-124544190D01*
X72259809Y-124448952D01*
X72212190Y-124401333D01*
X72116952Y-124353714D01*
X71926476Y-124353714D01*
X71831238Y-124401333D01*
X70926476Y-124353714D02*
X70926476Y-125020380D01*
X71355047Y-124353714D02*
X71355047Y-124877523D01*
X71307428Y-124972761D01*
X71212190Y-125020380D01*
X71069333Y-125020380D01*
X70974095Y-124972761D01*
X70926476Y-124925142D01*
X70307428Y-125020380D02*
X70402666Y-124972761D01*
X70450285Y-124877523D01*
X70450285Y-124020380D01*
X69545523Y-124972761D02*
X69640761Y-125020380D01*
X69831238Y-125020380D01*
X69926476Y-124972761D01*
X69974095Y-124877523D01*
X69974095Y-124496571D01*
X69926476Y-124401333D01*
X69831238Y-124353714D01*
X69640761Y-124353714D01*
X69545523Y-124401333D01*
X69497904Y-124496571D01*
X69497904Y-124591809D01*
X69974095Y-124687047D01*
%TO.C,U3*%
X92497904Y-121520380D02*
X92497904Y-122329904D01*
X92450285Y-122425142D01*
X92402666Y-122472761D01*
X92307428Y-122520380D01*
X92116952Y-122520380D01*
X92021714Y-122472761D01*
X91974095Y-122425142D01*
X91926476Y-122329904D01*
X91926476Y-121520380D01*
X91545523Y-121520380D02*
X90926476Y-121520380D01*
X91259809Y-121901333D01*
X91116952Y-121901333D01*
X91021714Y-121948952D01*
X90974095Y-121996571D01*
X90926476Y-122091809D01*
X90926476Y-122329904D01*
X90974095Y-122425142D01*
X91021714Y-122472761D01*
X91116952Y-122520380D01*
X91402666Y-122520380D01*
X91497904Y-122472761D01*
X91545523Y-122425142D01*
D11*
X90766000Y-122848000D02*
X67016000Y-122848000D01*
X67016000Y-122848000D02*
X67016000Y-89598000D01*
X67016000Y-89598000D02*
X90766000Y-89598000D01*
X90766000Y-89598000D02*
X90766000Y-122848000D01*
%TD*%
M02*
